<svg width="24" height="24" viewBox="0 0 24 24" fill="none" xmlns="http://www.w3.org/2000/svg">
<path d="M3.73005 6.54497L3.95704 6.99047L3.73005 6.54497ZM1.54497 8.73005L1.99047 8.95704L1.54497 8.73005ZM22.455 8.73005L22.0095 8.95704L22.455 8.73005ZM20.27 6.54497L20.043 6.99047L20.27 6.54497ZM20.27 21.455L20.043 21.0095L20.27 21.455ZM22.455 19.27L22.0095 19.043L22.455 19.27ZM3.73005 21.455L3.95704 21.0095L3.73005 21.455ZM1.54497 19.27L1.99047 19.043L1.54497 19.27ZM8.45825 6.20114C8.34778 6.45422 8.05306 6.56983 7.79998 6.45936C7.54689 6.34889 7.43128 6.05417 7.54175 5.80109L8.45825 6.20114ZM16.446 5.27393C16.5708 5.52024 16.4724 5.82112 16.2261 5.94597C15.9798 6.07083 15.6789 5.97237 15.554 5.72607L16.446 5.27393ZM15.533 4.57874L15.979 4.35267L15.533 4.57874ZM9 21.5H15V22.5H9V21.5ZM15 6.5H9V5.5H15V6.5ZM9 6.5C7.59162 6.5 6.5654 6.50039 5.75673 6.56646C4.95389 6.63206 4.40959 6.75989 3.95704 6.99047L3.50305 6.09946C4.12007 5.78508 4.81061 5.64043 5.67529 5.56978C6.53414 5.49961 7.60812 5.5 9 5.5V6.5ZM0.5 14C0.5 12.6081 0.499611 11.5341 0.569781 10.6753C0.640429 9.81061 0.78508 9.12007 1.09946 8.50305L1.99047 8.95704C1.75989 9.40959 1.63205 9.95389 1.56646 10.7567C1.50039 11.5654 1.5 12.5916 1.5 14H0.5ZM3.95704 6.99047C3.11031 7.4219 2.4219 8.11031 1.99047 8.95704L1.09946 8.50305C1.62677 7.46816 2.46816 6.62677 3.50305 6.09946L3.95704 6.99047ZM22.5 14C22.5 12.5916 22.4996 11.5654 22.4335 10.7567C22.3679 9.95389 22.2401 9.40959 22.0095 8.95704L22.9005 8.50305C23.2149 9.12007 23.3596 9.81061 23.4302 10.6753C23.5004 11.5341 23.5 12.6081 23.5 14H22.5ZM15 5.5C16.3919 5.5 17.4659 5.49961 18.3247 5.56978C19.1894 5.64043 19.8799 5.78508 20.4969 6.09946L20.043 6.99047C19.5904 6.75989 19.0461 6.63206 18.2433 6.56646C17.4346 6.50039 16.4084 6.5 15 6.5V5.5ZM22.0095 8.95704C21.5781 8.11031 20.8897 7.4219 20.043 6.99047L20.4969 6.09946C21.5318 6.62677 22.3732 7.46816 22.9005 8.50305L22.0095 8.95704ZM15 21.5C16.4084 21.5 17.4346 21.4996 18.2433 21.4335C19.0461 21.3679 19.5904 21.2401 20.043 21.0095L20.4969 21.9005C19.8799 22.2149 19.1894 22.3596 18.3247 22.4302C17.4659 22.5004 16.3919 22.5 15 22.5V21.5ZM23.5 14C23.5 15.3919 23.5004 16.4659 23.4302 17.3247C23.3596 18.1894 23.2149 18.8799 22.9005 19.4969L22.0095 19.043C22.2401 18.5904 22.3679 18.0461 22.4335 17.2433C22.4996 16.4346 22.5 15.4084 22.5 14H23.5ZM20.043 21.0095C20.8897 20.5781 21.5781 19.8897 22.0095 19.043L22.9005 19.4969C22.3732 20.5318 21.5318 21.3732 20.4969 21.9005L20.043 21.0095ZM9 22.5C7.60812 22.5 6.53414 22.5004 5.67529 22.4302C4.81061 22.3596 4.12007 22.2149 3.50305 21.9005L3.95704 21.0095C4.40959 21.2401 4.95389 21.3679 5.75673 21.4335C6.5654 21.4996 7.59162 21.5 9 21.5V22.5ZM1.5 14C1.5 15.4084 1.50039 16.4346 1.56646 17.2433C1.63205 18.0461 1.75989 18.5904 1.99047 19.043L1.09946 19.4969C0.78508 18.8799 0.640429 18.1894 0.569781 17.3247C0.499611 16.4659 0.5 15.3919 0.5 14H1.5ZM3.50305 21.9005C2.46816 21.3732 1.62677 20.5318 1.09946 19.4969L1.99047 19.043C2.4219 19.8897 3.11031 20.5781 3.95704 21.0095L3.50305 21.9005ZM7.54175 5.80109L8.13637 4.43885L9.05286 4.83889L8.45825 6.20114L7.54175 5.80109ZM15.979 4.35267L16.446 5.27393L15.554 5.72607L15.087 4.80481L15.979 4.35267ZM15.087 4.80481C14.5527 3.75077 13.3174 3.19224 12 3.19224V2.19224C13.5489 2.19224 15.2173 2.85011 15.979 4.35267L15.087 4.80481ZM8.13637 4.43885C8.80729 2.90178 10.4603 2.19224 12 2.19224V3.19224C10.7114 3.19224 9.51339 3.78384 9.05286 4.83889L8.13637 4.43885Z" fill="#FFD70D"/>

</svg>
