<svg width="24" height="24" viewBox="0 0 24 24" fill="none" xmlns="http://www.w3.org/2000/svg">
<path d="M5.06107 21.0451L5.35497 20.6406L5.06107 21.0451ZM3.95491 19.9389L4.35942 19.645L3.95491 19.9389ZM20.0451 19.9389L19.6406 19.645L20.0451 19.9389ZM18.9389 21.0451L18.645 20.6406L18.9389 21.0451ZM18.9389 2.95491L19.2328 2.55041L18.9389 2.95491ZM20.0451 4.06107L19.6406 4.35497L20.0451 4.06107ZM5.06107 2.95491L5.35497 3.35942L5.06107 2.95491ZM3.95491 4.06107L4.35942 4.35497L3.95491 4.06107ZM13.1461 6.59531L13.2244 7.08915L13.1461 6.59531ZM11.5818 6.59531L11.5036 7.08915L11.5818 6.59531ZM8 17.5C7.72386 17.5 7.5 17.7239 7.5 18C7.5 18.2761 7.72386 18.5 8 18.5V17.5ZM16 18.5C16.2761 18.5 16.5 18.2761 16.5 18C16.5 17.7239 16.2761 17.5 16 17.5V18.5ZM8 13.5C7.72386 13.5 7.5 13.7239 7.5 14C7.5 14.2761 7.72386 14.5 8 14.5V13.5ZM16 14.5C16.2761 14.5 16.5 14.2761 16.5 14C16.5 13.7239 16.2761 13.5 16 13.5V14.5ZM8 9.5C7.72386 9.5 7.5 9.72386 7.5 10C7.5 10.2761 7.72386 10.5 8 10.5V9.5ZM16 10.5C16.2761 10.5 16.5 10.2761 16.5 10C16.5 9.72386 16.2761 9.5 16 9.5V10.5ZM20.5 11V13H21.5V11H20.5ZM3.5 13V11H2.5V13H3.5ZM12 21.5C10.114 21.5 8.73966 21.4993 7.67112 21.3835C6.61193 21.2688 5.91269 21.0458 5.35497 20.6406L4.76718 21.4496C5.52378 21.9993 6.41914 22.2538 7.5634 22.3777C8.69831 22.5007 10.1363 22.5 12 22.5V21.5ZM2.5 13C2.5 14.8637 2.49931 16.3017 2.62227 17.4366C2.74625 18.5809 3.0007 19.4762 3.55041 20.2328L4.35942 19.645C3.95421 19.0873 3.73121 18.3881 3.61646 17.3289C3.50069 16.2603 3.5 14.886 3.5 13H2.5ZM5.35497 20.6406C4.97294 20.363 4.63698 20.0271 4.35942 19.645L3.55041 20.2328C3.88964 20.6997 4.30026 21.1104 4.76718 21.4496L5.35497 20.6406ZM20.5 13C20.5 14.886 20.4993 16.2603 20.3835 17.3289C20.2688 18.3881 20.0458 19.0873 19.6406 19.645L20.4496 20.2328C20.9993 19.4762 21.2538 18.5809 21.3777 17.4366C21.5007 16.3017 21.5 14.8637 21.5 13H20.5ZM12 22.5C13.8637 22.5 15.3017 22.5007 16.4366 22.3777C17.5809 22.2538 18.4762 21.9993 19.2328 21.4496L18.645 20.6406C18.0873 21.0458 17.3881 21.2688 16.3289 21.3835C15.2603 21.4993 13.886 21.5 12 21.5V22.5ZM19.6406 19.645C19.363 20.0271 19.0271 20.363 18.645 20.6406L19.2328 21.4496C19.6997 21.1104 20.1104 20.6997 20.4496 20.2328L19.6406 19.645ZM21.5 11C21.5 9.13627 21.5007 7.69831 21.3777 6.5634C21.2538 5.41914 20.9993 4.52378 20.4496 3.76718L19.6406 4.35497C20.0458 4.91269 20.2688 5.61193 20.3835 6.67112C20.4993 7.73966 20.5 9.114 20.5 11H21.5ZM18.645 3.35942C19.0271 3.63698 19.363 3.97294 19.6406 4.35497L20.4496 3.76718C20.1104 3.30026 19.6997 2.88964 19.2328 2.55041L18.645 3.35942ZM3.5 11C3.5 9.114 3.50069 7.73966 3.61646 6.67112C3.73121 5.61193 3.95421 4.91269 4.35942 4.35497L3.55041 3.76718C3.0007 4.52378 2.74625 5.41914 2.62227 6.5634C2.49931 7.69831 2.5 9.13627 2.5 11H3.5ZM4.76718 2.55041C4.30026 2.88964 3.88964 3.30026 3.55041 3.76718L4.35942 4.35497C4.63698 3.97294 4.97294 3.63698 5.35497 3.35942L4.76718 2.55041ZM13.0679 6.10147C12.6015 6.17534 12.1264 6.17534 11.66 6.10147L11.5036 7.08915C12.0736 7.17944 12.6543 7.17944 13.2244 7.08915L13.0679 6.10147ZM18.0871 2.29767C16.8499 3.53392 15.935 4.43546 15.1403 5.0613C14.353 5.68129 13.7238 5.99759 13.0679 6.10147L13.2244 7.08915C14.1141 6.94824 14.901 6.52267 15.759 5.84693C16.6096 5.17705 17.5691 4.229 18.7939 3.00503L18.0871 2.29767ZM12 2.5C13.6579 2.5 14.9225 2.50035 15.9345 2.57988C16.9448 2.65928 17.6545 2.81498 18.2154 3.0978L18.6656 2.2049C17.9348 1.83638 17.0746 1.66639 16.0128 1.58296C14.9527 1.49965 13.6428 1.5 12 1.5V2.5ZM18.2154 3.0978C18.3675 3.17452 18.5098 3.2612 18.645 3.35942L19.2328 2.55041C19.0533 2.41997 18.8649 2.30537 18.6656 2.2049L18.2154 3.0978ZM5.71867 2.78975C7.01295 4.08397 8.01492 5.08384 8.89463 5.78793C9.78172 6.49792 10.5883 6.94419 11.5036 7.08915L11.66 6.10147C10.9853 5.99461 10.3389 5.66298 9.5195 5.0072C8.69278 4.34553 7.73494 3.39174 6.42577 2.08263L5.71867 2.78975ZM12 1.5C10.5612 1.5 9.37919 1.49982 8.39897 1.55532C7.41924 1.6108 6.60565 1.7232 5.90913 1.96353L6.23531 2.90884C6.80295 2.71298 7.50934 2.6073 8.4555 2.55372C9.40118 2.50018 10.551 2.5 12 2.5V1.5ZM5.90913 1.96353C5.48963 2.10828 5.11299 2.29916 4.76718 2.55041L5.35497 3.35942C5.61338 3.17167 5.9002 3.02447 6.23531 2.90884L5.90913 1.96353ZM8 18.5H16V17.5H8V18.5ZM8 14.5H16V13.5H8V14.5ZM8 10.5H16V9.5H8V10.5Z" fill="#0057FF"/>

</svg>
