<svg width="24" height="24" viewBox="0 0 24 24" fill="none" xmlns="http://www.w3.org/2000/svg">
<path d="M4.78217 15.0616L4.86039 14.5677H4.86039L4.78217 15.0616ZM8.93844 19.2178L9.43229 19.1396L8.93844 19.2178ZM5.06107 20.0451L4.76718 20.4496L5.06107 20.0451ZM3.95491 18.9389L4.35942 18.645L3.95491 18.9389ZM20.0451 18.9389L19.6406 18.645L20.0451 18.9389ZM18.9389 20.0451L18.645 19.6406L18.9389 20.0451ZM18.9389 3.95491L18.645 4.35942L18.9389 3.95491ZM20.0451 5.06107L19.6406 5.35497L20.0451 5.06107ZM5.06107 3.95491L5.35497 4.35942L5.06107 3.95491ZM3.95491 5.06107L4.35942 5.35497L3.95491 5.06107ZM3.02893 15L2.52922 15.0171L3.02893 15ZM9 20.9711L8.98288 21.4708L9 20.9711ZM8 11.5C7.72386 11.5 7.5 11.7239 7.5 12C7.5 12.2761 7.72386 12.5 8 12.5V11.5ZM16 12.5C16.2761 12.5 16.5 12.2761 16.5 12C16.5 11.7239 16.2761 11.5 16 11.5V12.5ZM10 7.5C9.72386 7.5 9.5 7.72386 9.5 8C9.5 8.27614 9.72386 8.5 10 8.5V7.5ZM14 8.5C14.2761 8.5 14.5 8.27614 14.5 8C14.5 7.72386 14.2761 7.5 14 7.5V8.5ZM4.70396 15.5554C6.62947 15.8604 8.13963 17.3705 8.4446 19.296L9.43229 19.1396C9.05954 16.7862 7.2138 14.9405 4.86039 14.5677L4.70396 15.5554ZM5.35497 19.6406C4.97294 19.363 4.63698 19.0271 4.35942 18.645L3.55041 19.2328C3.88964 19.6997 4.30026 20.1104 4.76718 20.4496L5.35497 19.6406ZM20.5 12C20.5 13.886 20.4993 15.2603 20.3835 16.3289C20.2688 17.3881 20.0458 18.0873 19.6406 18.645L20.4496 19.2328C20.9993 18.4762 21.2538 17.5809 21.3777 16.4366C21.5007 15.3017 21.5 13.8637 21.5 12H20.5ZM12 21.5C13.8637 21.5 15.3017 21.5007 16.4366 21.3777C17.5809 21.2538 18.4762 20.9993 19.2328 20.4496L18.645 19.6406C18.0873 20.0458 17.3881 20.2688 16.3289 20.3835C15.2603 20.4993 13.886 20.5 12 20.5V21.5ZM19.6406 18.645C19.363 19.0271 19.0271 19.363 18.645 19.6406L19.2328 20.4496C19.6997 20.1104 20.1104 19.6997 20.4496 19.2328L19.6406 18.645ZM12 3.5C13.886 3.5 15.2603 3.50069 16.3289 3.61646C17.3881 3.73121 18.0873 3.95421 18.645 4.35942L19.2328 3.55041C18.4762 3.0007 17.5809 2.74625 16.4366 2.62227C15.3017 2.49931 13.8637 2.5 12 2.5V3.5ZM21.5 12C21.5 10.1363 21.5007 8.69831 21.3777 7.5634C21.2538 6.41914 20.9993 5.52378 20.4496 4.76718L19.6406 5.35497C20.0458 5.91269 20.2688 6.61193 20.3835 7.67112C20.4993 8.73966 20.5 10.114 20.5 12H21.5ZM18.645 4.35942C19.0271 4.63698 19.363 4.97294 19.6406 5.35497L20.4496 4.76718C20.1104 4.30026 19.6997 3.88964 19.2328 3.55041L18.645 4.35942ZM12 2.5C10.1363 2.5 8.69831 2.49931 7.5634 2.62227C6.41914 2.74625 5.52378 3.0007 4.76718 3.55041L5.35497 4.35942C5.91269 3.95421 6.61193 3.73121 7.67112 3.61646C8.73966 3.50069 10.114 3.5 12 3.5V2.5ZM3.5 12C3.5 10.114 3.50069 8.73966 3.61646 7.67112C3.73121 6.61193 3.95421 5.91269 4.35942 5.35497L3.55041 4.76718C3.0007 5.52378 2.74625 6.41914 2.62227 7.5634C2.49931 8.69831 2.5 10.1363 2.5 12H3.5ZM4.76718 3.55041C4.30026 3.88964 3.88964 4.30026 3.55041 4.76718L4.35942 5.35497C4.63698 4.97294 4.97294 4.63698 5.35497 4.35942L4.76718 3.55041ZM2.5 12C2.5 13.1662 2.49994 14.1624 2.52922 15.0171L3.52864 14.9829C3.50006 14.1489 3.5 13.1717 3.5 12H2.5ZM2.52922 15.0171C2.5933 16.8875 2.79676 18.1955 3.55041 19.2328L4.35942 18.645C3.7986 17.8731 3.59229 16.8409 3.52864 14.9829L2.52922 15.0171ZM3.02892 15.5C3.95701 15.5 4.36784 15.5022 4.70396 15.5554L4.86039 14.5677C4.42729 14.4991 3.92037 14.5 3.02893 14.5L3.02892 15.5ZM12 20.5C10.8283 20.5 9.85108 20.4999 9.01712 20.4714L8.98288 21.4708C9.83761 21.5001 10.8338 21.5 12 21.5V20.5ZM9.01712 20.4714C7.15911 20.4077 6.12687 20.2014 5.35497 19.6406L4.76718 20.4496C5.80449 21.2032 7.11252 21.4067 8.98288 21.4708L9.01712 20.4714ZM9.5 20.9711C9.49999 20.0796 9.50088 19.5727 9.43229 19.1396L8.4446 19.296C8.49783 19.6322 8.49999 20.043 8.5 20.9711L9.5 20.9711ZM8 12.5H16V11.5H8V12.5ZM10 8.5H14V7.5H10V8.5Z" fill="#0057FF"/>

</svg>
