<svg width="24" height="24" viewBox="0 0 24 24" fill="none" xmlns="http://www.w3.org/2000/svg">
<path d="M5.06107 21.0451L5.35497 20.6406L5.06107 21.0451ZM3.95491 19.9389L4.35942 19.645L3.95491 19.9389ZM20.0451 19.9389L19.6406 19.645L20.0451 19.9389ZM18.9389 21.0451L18.645 20.6406L18.9389 21.0451ZM18.9389 2.95491L18.645 3.35942L18.9389 2.95491ZM20.0451 4.06107L19.6406 4.35497L20.0451 4.06107ZM5.06107 2.95491L5.35497 3.35942L5.06107 2.95491ZM3.95491 4.06107L4.35942 4.35497L3.95491 4.06107ZM8 15.5C7.72386 15.5 7.5 15.7239 7.5 16C7.5 16.2761 7.72386 16.5 8 16.5V15.5ZM16 16.5C16.2761 16.5 16.5 16.2761 16.5 16C16.5 15.7239 16.2761 15.5 16 15.5V16.5ZM20.5 11V13H21.5V11H20.5ZM3.5 13V11H2.5V13H3.5ZM12 21.5C10.114 21.5 8.73966 21.4993 7.67112 21.3835C6.61193 21.2688 5.91269 21.0458 5.35497 20.6406L4.76718 21.4496C5.52378 21.9993 6.41914 22.2538 7.5634 22.3777C8.69831 22.5007 10.1363 22.5 12 22.5V21.5ZM2.5 13C2.5 14.8637 2.49931 16.3017 2.62227 17.4366C2.74625 18.5809 3.0007 19.4762 3.55041 20.2328L4.35942 19.645C3.95421 19.0873 3.73121 18.3881 3.61646 17.3289C3.50069 16.2603 3.5 14.886 3.5 13H2.5ZM5.35497 20.6406C4.97294 20.363 4.63698 20.0271 4.35942 19.645L3.55041 20.2328C3.88964 20.6997 4.30026 21.1104 4.76718 21.4496L5.35497 20.6406ZM20.5 13C20.5 14.886 20.4993 16.2603 20.3835 17.3289C20.2688 18.3881 20.0458 19.0873 19.6406 19.645L20.4496 20.2328C20.9993 19.4762 21.2538 18.5809 21.3777 17.4366C21.5007 16.3017 21.5 14.8637 21.5 13H20.5ZM12 22.5C13.8637 22.5 15.3017 22.5007 16.4366 22.3777C17.5809 22.2538 18.4762 21.9993 19.2328 21.4496L18.645 20.6406C18.0873 21.0458 17.3881 21.2688 16.3289 21.3835C15.2603 21.4993 13.886 21.5 12 21.5V22.5ZM19.6406 19.645C19.363 20.0271 19.0271 20.363 18.645 20.6406L19.2328 21.4496C19.6997 21.1104 20.1104 20.6997 20.4496 20.2328L19.6406 19.645ZM12 2.5C13.886 2.5 15.2603 2.50069 16.3289 2.61646C17.3881 2.73121 18.0873 2.95421 18.645 3.35942L19.2328 2.55041C18.4762 2.0007 17.5809 1.74625 16.4366 1.62227C15.3017 1.49931 13.8637 1.5 12 1.5V2.5ZM21.5 11C21.5 9.13627 21.5007 7.69831 21.3777 6.5634C21.2538 5.41914 20.9993 4.52378 20.4496 3.76718L19.6406 4.35497C20.0458 4.91269 20.2688 5.61193 20.3835 6.67112C20.4993 7.73966 20.5 9.114 20.5 11H21.5ZM18.645 3.35942C19.0271 3.63698 19.363 3.97294 19.6406 4.35497L20.4496 3.76718C20.1104 3.30026 19.6997 2.88964 19.2328 2.55041L18.645 3.35942ZM12 1.5C10.1363 1.5 8.69831 1.49931 7.5634 1.62227C6.41914 1.74625 5.52378 2.0007 4.76718 2.55041L5.35497 3.35942C5.91269 2.95421 6.61193 2.73121 7.67112 2.61646C8.73966 2.50069 10.114 2.5 12 2.5V1.5ZM3.5 11C3.5 9.114 3.50069 7.73966 3.61646 6.67112C3.73121 5.61193 3.95421 4.91269 4.35942 4.35497L3.55041 3.76718C3.0007 4.52378 2.74625 5.41914 2.62227 6.5634C2.49931 7.69831 2.5 9.13627 2.5 11H3.5ZM4.76718 2.55041C4.30026 2.88964 3.88964 3.30026 3.55041 3.76718L4.35942 4.35497C4.63698 3.97294 4.97294 3.63698 5.35497 3.35942L4.76718 2.55041ZM8 16.5H16V15.5H8V16.5Z" fill="#00EE24"/>

</svg>
