<svg width="24" height="24" viewBox="0 0 24 24" fill="none" xmlns="http://www.w3.org/2000/svg">
<path d="M19.2178 15.0616L19.1396 14.5677L19.2178 15.0616ZM15.0616 19.2178L14.5677 19.1396L15.0616 19.2178ZM5.06107 20.0451L5.35497 19.6406L5.06107 20.0451ZM3.95491 18.9389L4.35942 18.645L3.95491 18.9389ZM20.0451 18.9389L20.4496 19.2328L20.0451 18.9389ZM18.9389 20.0451L19.2328 20.4496L18.9389 20.0451ZM18.9389 3.95491L18.645 4.35942L18.9389 3.95491ZM20.0451 5.06107L19.6406 5.35497L20.0451 5.06107ZM5.06107 3.95491L5.35497 4.35942L5.06107 3.95491ZM3.95491 5.06107L4.35942 5.35497L3.95491 5.06107ZM20.9711 15L21.4708 15.0171L20.9711 15ZM15 20.9711L15.0171 21.4708L15 20.9711ZM8 15.5C7.72386 15.5 7.5 15.7239 7.5 16C7.5 16.2761 7.72386 16.5 8 16.5V15.5ZM11 16.5C11.2761 16.5 11.5 16.2761 11.5 16C11.5 15.7239 11.2761 15.5 11 15.5V16.5ZM8 11.5C7.72386 11.5 7.5 11.7239 7.5 12C7.5 12.2761 7.72386 12.5 8 12.5V11.5ZM16 12.5C16.2761 12.5 16.5 12.2761 16.5 12C16.5 11.7239 16.2761 11.5 16 11.5V12.5ZM8 7.5C7.72386 7.5 7.5 7.72386 7.5 8C7.5 8.27614 7.72386 8.5 8 8.5V7.5ZM11 8.5C11.2761 8.5 11.5 8.27614 11.5 8C11.5 7.72386 11.2761 7.5 11 7.5V8.5ZM19.1396 14.5677C16.7862 14.9405 14.9405 16.7862 14.5677 19.1396L15.5554 19.296C15.8604 17.3705 17.3705 15.8604 19.296 15.5554L19.1396 14.5677ZM12 20.5C10.114 20.5 8.73966 20.4993 7.67112 20.3835C6.61193 20.2688 5.91269 20.0458 5.35497 19.6406L4.76718 20.4496C5.52378 20.9993 6.41914 21.2538 7.5634 21.3777C8.69831 21.5007 10.1363 21.5 12 21.5V20.5ZM2.5 12C2.5 13.8637 2.49931 15.3017 2.62227 16.4366C2.74625 17.5809 3.0007 18.4762 3.55041 19.2328L4.35942 18.645C3.95421 18.0873 3.73121 17.3881 3.61646 16.3289C3.50069 15.2603 3.5 13.886 3.5 12H2.5ZM5.35497 19.6406C4.97294 19.363 4.63698 19.0271 4.35942 18.645L3.55041 19.2328C3.88964 19.6997 4.30026 20.1104 4.76718 20.4496L5.35497 19.6406ZM19.6406 18.645C19.363 19.0271 19.0271 19.363 18.645 19.6406L19.2328 20.4496C19.6997 20.1104 20.1104 19.6997 20.4496 19.2328L19.6406 18.645ZM12 3.5C13.886 3.5 15.2603 3.50069 16.3289 3.61646C17.3881 3.73121 18.0873 3.95421 18.645 4.35942L19.2328 3.55041C18.4762 3.0007 17.5809 2.74625 16.4366 2.62227C15.3017 2.49931 13.8637 2.5 12 2.5V3.5ZM21.5 12C21.5 10.1363 21.5007 8.69831 21.3777 7.5634C21.2538 6.41914 20.9993 5.52378 20.4496 4.76718L19.6406 5.35497C20.0458 5.91269 20.2688 6.61193 20.3835 7.67112C20.4993 8.73966 20.5 10.114 20.5 12H21.5ZM18.645 4.35942C19.0271 4.63698 19.363 4.97294 19.6406 5.35497L20.4496 4.76718C20.1104 4.30026 19.6997 3.88964 19.2328 3.55041L18.645 4.35942ZM12 2.5C10.1363 2.5 8.69831 2.49931 7.5634 2.62227C6.41914 2.74625 5.52378 3.0007 4.76718 3.55041L5.35497 4.35942C5.91269 3.95421 6.61193 3.73121 7.67112 3.61646C8.73966 3.50069 10.114 3.5 12 3.5V2.5ZM3.5 12C3.5 10.114 3.50069 8.73966 3.61646 7.67112C3.73121 6.61193 3.95421 5.91269 4.35942 5.35497L3.55041 4.76718C3.0007 5.52378 2.74625 6.41914 2.62227 7.5634C2.49931 8.69831 2.5 10.1363 2.5 12H3.5ZM4.76718 3.55041C4.30026 3.88964 3.88964 4.30026 3.55041 4.76718L4.35942 5.35497C4.63698 4.97294 4.97294 4.63698 5.35497 4.35942L4.76718 3.55041ZM20.5 12C20.5 13.1717 20.4999 14.1489 20.4714 14.9829L21.4708 15.0171C21.5001 14.1624 21.5 13.1662 21.5 12H20.5ZM20.4714 14.9829C20.4077 16.8409 20.2014 17.8731 19.6406 18.645L20.4496 19.2328C21.2032 18.1955 21.4067 16.8875 21.4708 15.0171L20.4714 14.9829ZM20.9711 14.5C20.0796 14.5 19.5727 14.4991 19.1396 14.5677L19.296 15.5554C19.6322 15.5022 20.043 15.5 20.9711 15.5L20.9711 14.5ZM12 21.5C13.1662 21.5 14.1624 21.5001 15.0171 21.4708L14.9829 20.4714C14.1489 20.4999 13.1717 20.5 12 20.5V21.5ZM15.0171 21.4708C16.8875 21.4067 18.1955 21.2032 19.2328 20.4496L18.645 19.6406C17.8731 20.2014 16.8409 20.4077 14.9829 20.4714L15.0171 21.4708ZM15.5 20.9711C15.5 20.043 15.5022 19.6322 15.5554 19.296L14.5677 19.1396C14.4991 19.5727 14.5 20.0796 14.5 20.9711L15.5 20.9711ZM8 16.5H11V15.5H8V16.5ZM8 12.5H16V11.5H8V12.5ZM8 8.5H11V7.5H8V8.5Z" fill="#0057FF"/>

</svg>
