<svg width="24" height="24" viewBox="0 0 24 24" fill="none" xmlns="http://www.w3.org/2000/svg">
<path d="M11.5 19C11.5 19.2761 11.7239 19.5 12 19.5C12.2761 19.5 12.5 19.2761 12.5 19H11.5ZM12.5 5C12.5 4.72386 12.2761 4.5 12 4.5C11.7239 4.5 11.5 4.72386 11.5 5H12.5ZM14.6542 8.32675C14.7923 8.5659 15.0981 8.64783 15.3372 8.50976C15.5764 8.37169 15.6583 8.0659 15.5203 7.82675L14.6542 8.32675ZM14.7117 7.42625L14.2787 7.67625V7.67625L14.7117 7.42625ZM11.1301 11.68L11.3027 11.2107L11.3027 11.2107L11.1301 11.68ZM12.8702 12.32L13.0428 11.8508L13.0427 11.8508L12.8702 12.32ZM9.28853 16.5738L8.85552 16.8238H8.85552L9.28853 16.5738ZM9.34598 15.6733C9.20791 15.4341 8.90212 15.3522 8.66297 15.4902C8.42382 15.6283 8.34189 15.9341 8.47996 16.1733L9.34598 15.6733ZM13.3279 17.6561L13.0779 17.2231L13.3279 17.6561ZM10.6723 6.34391L10.9223 6.77693L10.6723 6.34391ZM21.5 12C21.5 17.2467 17.2467 21.5 12 21.5V22.5C17.799 22.5 22.5 17.799 22.5 12H21.5ZM12 21.5C6.75329 21.5 2.5 17.2467 2.5 12H1.5C1.5 17.799 6.20101 22.5 12 22.5V21.5ZM2.5 12C2.5 6.75329 6.75329 2.5 12 2.5V1.5C6.20101 1.5 1.5 6.20101 1.5 12H2.5ZM12 2.5C17.2467 2.5 21.5 6.75329 21.5 12H22.5C22.5 6.20101 17.799 1.5 12 1.5V2.5ZM15.5203 7.82675L15.1447 7.17625L14.2787 7.67625L14.6542 8.32675L15.5203 7.82675ZM9.72155 16.3238L9.34598 15.6733L8.47996 16.1733L8.85552 16.8238L9.72155 16.3238ZM12.6976 12.7893C14.6526 13.5084 14.8819 16.1815 13.0779 17.2231L13.5779 18.0891C16.1162 16.6236 15.7936 12.8626 13.0428 11.8508L12.6976 12.7893ZM10.4223 5.9109C7.88404 7.37639 8.20666 11.1375 10.9575 12.1492L11.3027 11.2107C9.34758 10.4916 9.11829 7.8185 10.9223 6.77693L10.4223 5.9109ZM12.5 19V18.049H11.5V19H12.5ZM12.5 18.049V12H11.5V18.049H12.5ZM13.0779 17.2231C12.7282 17.425 12.3508 17.5308 11.9749 17.5497L12.0251 18.5484C12.5556 18.5218 13.0877 18.3721 13.5779 18.0891L13.0779 17.2231ZM11.9749 17.5497C11.082 17.5945 10.1982 17.1493 9.72155 16.3238L8.85552 16.8238C9.52704 17.9869 10.772 18.6113 12.0251 18.5484L11.9749 17.5497ZM10.9574 12.1492L11.8274 12.4693L12.1726 11.5307L11.3027 11.2107L10.9574 12.1492ZM11.8274 12.4693L12.6976 12.7893L13.0427 11.8508L12.1726 11.5307L11.8274 12.4693ZM12.5 12L12.5 5.95097H11.5L11.5 12H12.5ZM12.5 5.95097V5H11.5V5.95097H12.5ZM15.1447 7.17625C14.4731 6.01307 13.228 5.38863 11.9749 5.4516L12.0251 6.45034C12.9181 6.40547 13.802 6.85061 14.2787 7.67625L15.1447 7.17625ZM11.9749 5.4516C11.4445 5.47826 10.9125 5.62793 10.4223 5.9109L10.9223 6.77693C11.272 6.57504 11.6493 6.46923 12.0251 6.45034L11.9749 5.4516Z" fill="#FFD70D"/>

</svg>
