<svg width="24" height="24" viewBox="0 0 24 24" fill="none" xmlns="http://www.w3.org/2000/svg">
<path d="M4.06107 20.2164L4.35497 19.8119H4.35497L4.06107 20.2164ZM2.95491 19.1102L2.55041 19.4041H2.55041L2.95491 19.1102ZM17.9389 20.2164L17.645 19.8119L17.9389 20.2164ZM19.0451 19.1102L18.6406 18.8163L19.0451 19.1102ZM2.95491 5.23238L2.55041 4.93849H2.55041L2.95491 5.23238ZM4.06107 4.12623L4.35497 4.53073L4.06107 4.12623ZM9.00599 3.67848C9.28212 3.67517 9.50327 3.44865 9.49996 3.17252C9.49665 2.8964 9.27013 2.67524 8.99401 2.67855L9.00599 3.67848ZM20.4928 14.1773C20.4961 13.9012 20.2749 13.6747 19.9988 13.6713C19.7227 13.668 19.4961 13.8892 19.4928 14.1653L20.4928 14.1773ZM11.7976 16.1758L11.7423 15.6788L11.7976 16.1758ZM7.67777 15.8783L7.32422 16.2318L7.32422 16.2318L7.67777 15.8783ZM7.3803 11.7585L7.87724 11.8137L7.3803 11.7585ZM8.5274 9.3718L8.17385 9.01825L8.5274 9.3718ZM7.64293 10.4157L7.19228 10.1991L7.64293 10.4157ZM14.1843 15.0287L14.5378 15.3822L14.1843 15.0287ZM13.1403 15.9131L13.3569 16.3638V16.3638L13.1403 15.9131ZM11 20.6713C9.114 20.6713 7.73966 20.6706 6.67112 20.5549C5.61193 20.4401 4.91269 20.2171 4.35497 19.8119L3.76718 20.6209C4.52379 21.1706 5.41914 21.4251 6.5634 21.549C7.69831 21.672 9.13627 21.6713 11 21.6713V20.6713ZM1.5 12.1713C1.5 14.035 1.49931 15.473 1.62227 16.6079C1.74625 17.7522 2.0007 18.6475 2.55041 19.4041L3.35942 18.8163C2.95421 18.2586 2.73121 17.5594 2.61646 16.5002C2.50069 15.4317 2.5 14.0573 2.5 12.1713H1.5ZM4.35497 19.8119C3.97294 19.5343 3.63698 19.1984 3.35942 18.8163L2.55041 19.4041C2.88964 19.871 3.30026 20.2817 3.76718 20.6209L4.35497 19.8119ZM11 21.6713C12.8637 21.6713 14.3017 21.672 15.4366 21.549C16.5809 21.4251 17.4762 21.1706 18.2328 20.6209L17.645 19.8119C17.0873 20.2171 16.3881 20.4401 15.3289 20.5549C14.2603 20.6706 12.886 20.6713 11 20.6713V21.6713ZM18.6406 18.8163C18.363 19.1984 18.0271 19.5343 17.645 19.8119L18.2328 20.6209C18.6997 20.2817 19.1104 19.8711 19.4496 19.4041L18.6406 18.8163ZM2.5 12.1713C2.5 10.2853 2.50069 8.91097 2.61646 7.84243C2.73121 6.78325 2.95421 6.084 3.35942 5.52628L2.55041 4.93849C2.0007 5.6951 1.74625 6.59045 1.62227 7.73471C1.49931 8.86962 1.5 10.3076 1.5 12.1713H2.5ZM3.76718 3.72172C3.30026 4.06096 2.88964 4.47157 2.55041 4.93849L3.35942 5.52628C3.63698 5.14425 3.97294 4.80829 4.35497 4.53073L3.76718 3.72172ZM8.99401 2.67855C6.55511 2.70779 4.97183 2.84649 3.76718 3.72172L4.35497 4.53073C5.26338 3.87073 6.51757 3.70831 9.00599 3.67848L8.99401 2.67855ZM19.4928 14.1653C19.463 16.6537 19.3006 17.9079 18.6406 18.8163L19.4496 19.4041C20.3248 18.1995 20.4635 16.6162 20.4928 14.1773L19.4928 14.1653ZM19.2025 9.3033L13.8307 14.6751L14.5378 15.3822L19.9096 10.0104L19.2025 9.3033ZM8.88096 9.72535L14.2528 4.35355L13.5457 3.64645L8.17385 9.01825L8.88096 9.72535ZM11.7423 15.6788C10.5801 15.808 9.76257 15.8976 9.14867 15.8777C8.54819 15.8583 8.24215 15.7356 8.03133 15.5247L7.32422 16.2318C7.7931 16.7007 8.40026 16.8541 9.1164 16.8772C9.81912 16.8999 10.7216 16.7984 11.8528 16.6727L11.7423 15.6788ZM6.88335 11.7033C6.75767 12.8345 6.65616 13.7369 6.67885 14.4397C6.70197 15.1558 6.85534 15.763 7.32422 16.2318L8.03133 15.5247C7.8205 15.3139 7.69772 15.0079 7.67833 14.4074C7.6585 13.7935 7.7481 12.9759 7.87724 11.8137L6.88335 11.7033ZM8.17385 9.01825C7.70667 9.48542 7.38523 9.79766 7.19228 10.1991L8.09358 10.6323C8.19572 10.4198 8.36557 10.2407 8.88096 9.72535L8.17385 9.01825ZM7.87724 11.8137C7.95773 11.0893 7.99144 10.8448 8.09358 10.6323L7.19228 10.1991C6.99933 10.6006 6.95632 11.0466 6.88335 11.7033L7.87724 11.8137ZM13.8307 14.6751C13.3153 15.1905 13.1363 15.3603 12.9237 15.4625L13.3569 16.3638C13.7584 16.1708 14.0706 15.8494 14.5378 15.3822L13.8307 14.6751ZM11.8528 16.6727C12.5094 16.5997 12.9555 16.5567 13.3569 16.3638L12.9237 15.4625C12.7112 15.5646 12.4668 15.5983 11.7423 15.6788L11.8528 16.6727ZM19.2025 4.35355C19.8792 5.03021 20.3503 5.50289 20.6585 5.90684C20.9579 6.29925 21.0561 6.56749 21.0561 6.82843H22.0561C22.0561 6.26093 21.8208 5.78163 21.4536 5.30026C21.0951 4.83044 20.5663 4.30312 19.9096 3.64645L19.2025 4.35355ZM19.9096 10.0104C20.5663 9.35373 21.0951 8.82641 21.4536 8.35659C21.8208 7.87523 22.0561 7.39592 22.0561 6.82843H21.0561C21.0561 7.08936 20.9579 7.3576 20.6585 7.75001C20.3503 8.15396 19.8792 8.62664 19.2025 9.3033L19.9096 10.0104ZM19.9096 3.64645C19.2529 2.98977 18.7256 2.46095 18.2558 2.10249C17.7744 1.73522 17.2951 1.5 16.7276 1.5V2.5C16.9886 2.5 17.2568 2.59811 17.6492 2.89751C18.0532 3.20571 18.5258 3.67689 19.2025 4.35355L19.9096 3.64645ZM14.2528 4.35355C14.9294 3.67689 15.4021 3.20571 15.806 2.89751C16.1985 2.59811 16.4667 2.5 16.7276 2.5V1.5C16.1601 1.5 15.6808 1.73522 15.1995 2.10249C14.7296 2.46095 14.2023 2.98977 13.5457 3.64645L14.2528 4.35355ZM19.9096 9.3033L14.2528 3.64645L13.5457 4.35355L19.2025 10.0104L19.9096 9.3033Z" fill="#00EE24"/>

</svg>
