<svg width="24" height="24" viewBox="0 0 24 24" fill="none" xmlns="http://www.w3.org/2000/svg">
<g >
<path d="M11.9998 0C8.98982 0.0249261 6.0991 1.18583 3.9009 3.25247C1.7027 5.31912 0.357588 8.14057 0.132308 11.1573C-0.0929706 14.174 0.818043 17.1656 2.68468 19.5389C4.55132 21.9121 7.23724 23.4937 10.2098 23.9699V15.2563H7.20978V12.0603H10.2098V9.9799C10.2098 6.48241 11.8998 4.95477 14.7898 4.95477C15.6124 4.94241 16.4348 4.9928 17.2498 5.10553V7.86935H15.2498C14.0198 7.86935 13.5898 9.03518 13.5898 10.3518V12.0603H17.1898L16.6998 15.2261H13.6198V23.9699C16.5809 23.4992 19.2595 21.9317 21.1283 19.5758C22.9972 17.2199 23.9209 14.2463 23.7177 11.2403C23.5146 8.23424 22.1992 5.4135 20.0306 3.33324C17.8619 1.25298 14.997 0.0638867 11.9998 0Z" fill="#FFD70D"/>

</g>
</svg>
