<svg width="24" height="24" viewBox="0 0 24 24" fill="none" xmlns="http://www.w3.org/2000/svg">
<g clip-path="url(#clip0_2042_8707)">
<path opacity="0.5" d="M15.4654 6.68219C16.5765 4.57126 15.9171 1.87202 13.9925 0.65327C12.068 -0.565477 9.60705 0.157782 8.4959 2.26871L0.540002 17.3831C-0.571147 19.4941 0.0882574 22.1933 2.01282 23.412C3.93739 24.6308 6.39832 23.9075 7.50947 21.7966L15.4654 6.68219Z" fill="#FFD70D"/>
<path d="M15.5082 2.20363C14.3971 0.0926966 11.9362 -0.630562 10.0116 0.588185C8.08702 1.80693 7.42762 4.50617 8.53877 6.6171L16.4947 21.7315C17.6058 23.8424 20.0667 24.5657 21.9913 23.347C23.9159 22.1282 24.5753 19.429 23.4641 17.318L15.5082 2.20363Z" fill="#FFD70D"/>
<path d="M4.07958 23.9996C6.33268 23.9996 8.15917 21.9962 8.15917 19.5249C8.15917 17.0537 6.33268 15.0503 4.07958 15.0503C1.82649 15.0503 0 17.0537 0 19.5249C0 21.9962 1.82649 23.9996 4.07958 23.9996Z" fill="#FFD70D"/>

</g>

</svg>
