<svg width="24" height="24" viewBox="0 0 24 24" fill="none" xmlns="http://www.w3.org/2000/svg">
<path d="M14.5 7.75C14.5 9.13071 13.3807 10.25 12 10.25V11.25C13.933 11.25 15.5 9.683 15.5 7.75H14.5ZM12 10.25C10.6193 10.25 9.5 9.13071 9.5 7.75H8.5C8.5 9.683 10.067 11.25 12 11.25V10.25ZM9.5 7.75C9.5 6.36929 10.6193 5.25 12 5.25V4.25C10.067 4.25 8.5 5.817 8.5 7.75H9.5ZM12 5.25C13.3807 5.25 14.5 6.36929 14.5 7.75H15.5C15.5 5.817 13.933 4.25 12 4.25V5.25ZM9 14.25H15V13.25H9V14.25ZM15 19.25H9V20.25H15V19.25ZM9 19.25C7.61929 19.25 6.5 18.1307 6.5 16.75H5.5C5.5 18.683 7.067 20.25 9 20.25V19.25ZM17.5 16.75C17.5 18.1307 16.3807 19.25 15 19.25V20.25C16.933 20.25 18.5 18.683 18.5 16.75H17.5ZM15 14.25C16.3807 14.25 17.5 15.3693 17.5 16.75H18.5C18.5 14.817 16.933 13.25 15 13.25V14.25ZM9 13.25C7.067 13.25 5.5 14.817 5.5 16.75H6.5C6.5 15.3693 7.61929 14.25 9 14.25V13.25Z" fill="#EE00BA"/>
<path d="M7.75214 10.3887C7.59441 10.1353 7.29846 10 7 10C5.75736 10 4.75 8.99264 4.75 7.75C4.75 6.50736 5.75736 5.5 7 5.5C7.29846 5.5 7.59441 5.36473 7.75214 5.11135C7.75912 5.10014 7.76613 5.08896 7.7732 5.07782C8.0358 4.66331 7.90275 4.0764 7.415 4.0227C7.27873 4.0077 7.14027 4 7 4C4.92893 4 3.25 5.67893 3.25 7.75C3.25 9.82107 4.92893 11.5 7 11.5C7.14027 11.5 7.27873 11.4923 7.415 11.4773C7.90275 11.4236 8.0358 10.8367 7.7732 10.4222C7.76614 10.411 7.75912 10.3999 7.75214 10.3887Z" fill="#EE00BA"/>
<path d="M4.70829 18.3169C4.59477 18.1275 4.39439 18 4.17359 18H4C2.75736 18 1.75 16.9926 1.75 15.75C1.75 14.5074 2.75736 13.5 4 13.5H4.17359C4.39439 13.5 4.59477 13.3725 4.70829 13.1831C4.98539 12.7208 4.68468 12 4.14569 12H4C1.92893 12 0.25 13.6789 0.25 15.75C0.25 17.8211 1.92893 19.5 4 19.5H4.14569C4.68469 19.5 4.98539 18.7792 4.70829 18.3169Z" fill="#EE00BA"/>
<path d="M16.2268 10.4222C15.9642 10.8367 16.0973 11.4236 16.585 11.4773C16.7213 11.4923 16.8597 11.5 17 11.5C19.0711 11.5 20.75 9.82107 20.75 7.75C20.75 5.67893 19.0711 4 17 4C16.8597 4 16.7213 4.0077 16.585 4.0227C16.0973 4.0764 15.9642 4.66331 16.2268 5.07782C16.2339 5.08896 16.2409 5.10014 16.2479 5.11134C16.4056 5.36472 16.7015 5.5 17 5.5C18.2426 5.5 19.25 6.50736 19.25 7.75C19.25 8.99264 18.2426 10 17 10C16.7015 10 16.4056 10.1353 16.2479 10.3887C16.2409 10.3999 16.2339 10.411 16.2268 10.4222Z" fill="#EE00BA"/>
<path d="M19.2917 18.3169C19.0146 18.7792 19.3153 19.5 19.8543 19.5H20C22.0711 19.5 23.75 17.8211 23.75 15.75C23.75 13.6789 22.0711 12 20 12H19.8543C19.3153 12 19.0146 12.7208 19.2917 13.1831C19.4052 13.3725 19.6056 13.5 19.8264 13.5H20C21.2426 13.5 22.25 14.5074 22.25 15.75C22.25 16.9926 21.2426 18 20 18H19.8264C19.6056 18 19.4052 18.1275 19.2917 18.3169Z" fill="#EE00BA"/>

</svg>
