<svg width="24" height="24" viewBox="0 0 24 24" fill="none" xmlns="http://www.w3.org/2000/svg">
<path d="M5.06107 20.0451L5.35497 19.6406L5.06107 20.0451ZM3.95491 18.9389L4.35942 18.645L3.95491 18.9389ZM20.0451 18.9389L19.6406 18.645L20.0451 18.9389ZM18.9389 20.0451L18.645 19.6406L18.9389 20.0451ZM18.9389 3.95491L18.645 4.35942L18.9389 3.95491ZM20.0451 5.06107L19.6406 5.35497L20.0451 5.06107ZM5.06107 3.95491L5.35497 4.35942L5.06107 3.95491ZM3.95491 5.06107L4.35942 5.35497L3.95491 5.06107ZM9.5 17C9.5 17.2761 9.72386 17.5 10 17.5C10.2761 17.5 10.5 17.2761 10.5 17H9.5ZM10.5 7C10.5 6.72386 10.2761 6.5 10 6.5C9.72386 6.5 9.5 6.72386 9.5 7H10.5ZM13.5 17C13.5 17.2761 13.7239 17.5 14 17.5C14.2761 17.5 14.5 17.2761 14.5 17H13.5ZM14.5 7C14.5 6.72386 14.2761 6.5 14 6.5C13.7239 6.5 13.5 6.72386 13.5 7H14.5ZM17 10.5C17.2761 10.5 17.5 10.2761 17.5 10C17.5 9.72386 17.2761 9.5 17 9.5V10.5ZM7 9.5C6.72386 9.5 6.5 9.72386 6.5 10C6.5 10.2761 6.72386 10.5 7 10.5V9.5ZM17 14.5C17.2761 14.5 17.5 14.2761 17.5 14C17.5 13.7239 17.2761 13.5 17 13.5V14.5ZM7 13.5C6.72386 13.5 6.5 13.7239 6.5 14C6.5 14.2761 6.72386 14.5 7 14.5V13.5ZM12 20.5C10.114 20.5 8.73966 20.4993 7.67112 20.3835C6.61193 20.2688 5.91269 20.0458 5.35497 19.6406L4.76718 20.4496C5.52378 20.9993 6.41914 21.2538 7.5634 21.3777C8.69831 21.5007 10.1363 21.5 12 21.5V20.5ZM2.5 12C2.5 13.8637 2.49931 15.3017 2.62227 16.4366C2.74625 17.5809 3.0007 18.4762 3.55041 19.2328L4.35942 18.645C3.95421 18.0873 3.73121 17.3881 3.61646 16.3289C3.50069 15.2603 3.5 13.886 3.5 12H2.5ZM5.35497 19.6406C4.97294 19.363 4.63698 19.0271 4.35942 18.645L3.55041 19.2328C3.88964 19.6997 4.30026 20.1104 4.76718 20.4496L5.35497 19.6406ZM20.5 12C20.5 13.886 20.4993 15.2603 20.3835 16.3289C20.2688 17.3881 20.0458 18.0873 19.6406 18.645L20.4496 19.2328C20.9993 18.4762 21.2538 17.5809 21.3777 16.4366C21.5007 15.3017 21.5 13.8637 21.5 12H20.5ZM12 21.5C13.8637 21.5 15.3017 21.5007 16.4366 21.3777C17.5809 21.2538 18.4762 20.9993 19.2328 20.4496L18.645 19.6406C18.0873 20.0458 17.3881 20.2688 16.3289 20.3835C15.2603 20.4993 13.886 20.5 12 20.5V21.5ZM19.6406 18.645C19.363 19.0271 19.0271 19.363 18.645 19.6406L19.2328 20.4496C19.6997 20.1104 20.1104 19.6997 20.4496 19.2328L19.6406 18.645ZM12 3.5C13.886 3.5 15.2603 3.50069 16.3289 3.61646C17.3881 3.73121 18.0873 3.95421 18.645 4.35942L19.2328 3.55041C18.4762 3.0007 17.5809 2.74625 16.4366 2.62227C15.3017 2.49931 13.8637 2.5 12 2.5V3.5ZM21.5 12C21.5 10.1363 21.5007 8.69831 21.3777 7.5634C21.2538 6.41914 20.9993 5.52378 20.4496 4.76718L19.6406 5.35497C20.0458 5.91269 20.2688 6.61193 20.3835 7.67112C20.4993 8.73966 20.5 10.114 20.5 12H21.5ZM18.645 4.35942C19.0271 4.63698 19.363 4.97294 19.6406 5.35497L20.4496 4.76718C20.1104 4.30026 19.6997 3.88964 19.2328 3.55041L18.645 4.35942ZM12 2.5C10.1363 2.5 8.69831 2.49931 7.5634 2.62227C6.41914 2.74625 5.52378 3.0007 4.76718 3.55041L5.35497 4.35942C5.91269 3.95421 6.61193 3.73121 7.67112 3.61646C8.73966 3.50069 10.114 3.5 12 3.5V2.5ZM3.5 12C3.5 10.114 3.50069 8.73966 3.61646 7.67112C3.73121 6.61193 3.95421 5.91269 4.35942 5.35497L3.55041 4.76718C3.0007 5.52378 2.74625 6.41914 2.62227 7.5634C2.49931 8.69831 2.5 10.1363 2.5 12H3.5ZM4.76718 3.55041C4.30026 3.88964 3.88964 4.30026 3.55041 4.76718L4.35942 5.35497C4.63698 4.97294 4.97294 4.63698 5.35497 4.35942L4.76718 3.55041ZM17 13.5H14V14.5H17V13.5ZM14.5 17V14H13.5V17H14.5ZM14 13.5H10V14.5H14V13.5ZM10 13.5H7V14.5H10V13.5ZM10.5 17V14H9.5V17H10.5ZM10.5 14V10H9.5V14H10.5ZM10.5 10V7H9.5V10H10.5ZM10 9.5H7V10.5H10V9.5ZM17 9.5H14V10.5H17V9.5ZM14 9.5H10V10.5H14V9.5ZM14.5 14V10H13.5V14H14.5ZM14.5 10V7H13.5V10H14.5Z" fill="#00EE24"/>

</svg>
