<svg width="24" height="24" viewBox="0 0 24 24" fill="none" xmlns="http://www.w3.org/2000/svg">
<path d="M3 6.35286C3 5.5813 3.62547 4.95583 4.39702 4.95583C5.16858 4.95583 5.79405 5.5813 5.79405 6.35286V10.8233C5.79405 11.5949 5.16858 12.2204 4.39702 12.2204C3.62547 12.2204 3 11.5949 3 10.8233V6.35286Z" stroke="#EE00BA"/>
<path d="M7.79202 3.38555L6.54558 5.41102C6.21092 5.95484 6.0436 6.22675 5.94242 6.52472C5.91155 6.61561 5.88539 6.70803 5.86404 6.80161C5.79405 7.10841 5.79405 7.42768 5.79405 8.06622V9.98512C5.79405 11.2196 6.7948 12.2204 8.02929 12.2204H9.65533C10.7136 12.2204 11.6811 11.6224 12.1544 10.6758L12.7962 9.39224C13.4302 8.12421 12.5081 6.63226 11.0904 6.63226H10.705C9.73883 6.63226 8.99999 5.77106 9.14691 4.81613L9.28272 3.93334C9.35822 3.44258 8.97852 3 8.48199 3C8.20066 3 7.93947 3.14595 7.79202 3.38555Z" stroke="#EE00BA"/>
<path d="M21 17.647C21 18.4186 20.3745 19.0441 19.603 19.0441C18.8314 19.0441 18.206 18.4186 18.206 17.647V13.1766C18.206 12.405 18.8314 11.7795 19.603 11.7795C20.3745 11.7795 21 12.405 21 13.1766V17.647Z" stroke="#EE00BA"/>
<path d="M16.208 20.6143L17.4544 18.5889C17.7891 18.0451 17.9564 17.7732 18.0576 17.4752C18.0884 17.3843 18.1146 17.2919 18.136 17.1983C18.206 16.8915 18.206 16.5722 18.206 15.9337V14.0148C18.206 12.7803 17.2052 11.7795 15.9707 11.7795H14.3447C13.2864 11.7795 12.3189 12.3775 11.8456 13.3241L11.2038 14.6077C10.5698 15.8757 11.4919 17.3676 12.9096 17.3676H13.295C14.2612 17.3676 15 18.2288 14.8531 19.1838L14.7173 20.0666C14.6418 20.5573 15.0215 20.9999 15.518 20.9999C15.7993 20.9999 16.0605 20.8539 16.208 20.6143Z" stroke="#EE00BA"/>

</svg>
