<svg width="24" height="24" viewBox="0 0 24 24" fill="none" xmlns="http://www.w3.org/2000/svg">
<path d="M11.6692 18.9506L11.9598 19.3574L11.6692 18.9506ZM11.7222 18.9128L11.4342 18.5041L11.7222 18.9128ZM14.5703 18.0001L14.5735 18.5001L14.5703 18.0001ZM7.3959 19.5103L7.86014 19.6959L7.3959 19.5103ZM9.05848 20.8154L8.76786 20.4085L9.05848 20.8154ZM21.798 14.4069L22.2778 14.5475L21.798 14.4069ZM18.4069 17.798L18.5475 18.2778L18.4069 17.798ZM4.73005 2.54497L4.95704 2.99047L4.73005 2.54497ZM2.54497 4.73005L2.99047 4.95704L2.54497 4.73005ZM19.27 2.54497L19.043 2.99047L19.27 2.54497ZM21.455 4.73005L21.0095 4.95704L21.455 4.73005ZM12.8003 6.57296L13.0682 6.99518L12.8003 6.57296ZM16.1557 6.73036L16.5127 6.38028L16.1557 6.73036ZM7.84426 6.73036L8.20126 7.08043H8.20126L7.84426 6.73036ZM11.1996 6.57297L11.4675 6.15075L11.1996 6.57297ZM14 1.5H10V2.5H14V1.5ZM1.5 10V14.2283H2.5V10H1.5ZM22.5 11.1842V10H21.5V11.1842H22.5ZM5.77166 18.5H6.37341V17.5H5.77166V18.5ZM9.3491 21.2222L11.9598 19.3574L11.3786 18.5437L8.76786 20.4085L9.3491 21.2222ZM14.6354 18.5H15.1842V17.5H14.6354V18.5ZM11.9598 19.3574C11.987 19.338 11.9988 19.3296 12.0103 19.3215L11.4342 18.5041C11.4195 18.5144 11.4047 18.525 11.3786 18.5437L11.9598 19.3574ZM14.6354 17.5C14.6033 17.5 14.5851 17.5 14.5671 17.5001L14.5735 18.5001C14.5876 18.5 14.6021 18.5 14.6354 18.5V17.5ZM12.0103 19.3215C12.7609 18.7926 13.6553 18.506 14.5735 18.5001L14.5671 17.5001C13.4448 17.5073 12.3516 17.8576 11.4342 18.5041L12.0103 19.3215ZM6.37341 18.5C6.79878 18.5 7.08964 18.9296 6.93166 19.3246L7.86014 19.6959C8.28086 18.6441 7.50624 17.5 6.37341 17.5V18.5ZM6.93166 19.3246C6.33773 20.8094 8.04777 22.1518 9.3491 21.2222L8.76786 20.4085C8.27922 20.7575 7.63712 20.2535 7.86014 19.6959L6.93166 19.3246ZM21.5 11.1842C21.5 12.9085 21.4949 13.6635 21.3182 14.2662L22.2778 14.5475C22.5051 13.7724 22.5 12.8382 22.5 11.1842H21.5ZM15.1842 18.5C16.8382 18.5 17.7724 18.5051 18.5475 18.2778L18.2662 17.3182C17.6635 17.4949 16.9085 17.5 15.1842 17.5V18.5ZM21.3182 14.2662C20.887 15.7369 19.7369 16.887 18.2662 17.3182L18.5475 18.2778C20.3451 17.7507 21.7507 16.3451 22.2778 14.5475L21.3182 14.2662ZM1.5 14.2283C1.5 16.5875 3.41249 18.5 5.77166 18.5V17.5C3.96477 17.5 2.5 16.0352 2.5 14.2283H1.5ZM10 1.5C8.60812 1.5 7.53414 1.49961 6.67529 1.56978C5.81061 1.64043 5.12007 1.78508 4.50305 2.09946L4.95704 2.99047C5.40959 2.75989 5.95389 2.63205 6.75673 2.56646C7.5654 2.50039 8.59162 2.5 10 2.5V1.5ZM2.5 10C2.5 8.59162 2.50039 7.5654 2.56646 6.75673C2.63205 5.95389 2.75989 5.40959 2.99047 4.95704L2.09946 4.50305C1.78508 5.12007 1.64043 5.81061 1.56978 6.67529C1.49961 7.53414 1.5 8.60812 1.5 10H2.5ZM4.50305 2.09946C3.46816 2.62677 2.62677 3.46816 2.09946 4.50305L2.99047 4.95704C3.4219 4.11031 4.11031 3.4219 4.95704 2.99047L4.50305 2.09946ZM14 2.5C15.4084 2.5 16.4346 2.50039 17.2433 2.56646C18.0461 2.63205 18.5904 2.75989 19.043 2.99047L19.4969 2.09946C18.8799 1.78508 18.1894 1.64043 17.3247 1.56978C16.4659 1.49961 15.3919 1.5 14 1.5V2.5ZM22.5 10C22.5 8.60812 22.5004 7.53414 22.4302 6.67529C22.3596 5.81061 22.2149 5.12007 21.9005 4.50305L21.0095 4.95704C21.2401 5.40959 21.3679 5.95389 21.4335 6.75673C21.4996 7.5654 21.5 8.59162 21.5 10H22.5ZM19.043 2.99047C19.8897 3.4219 20.5781 4.11031 21.0095 4.95704L21.9005 4.50305C21.3732 3.46816 20.5318 2.62677 19.4969 2.09946L19.043 2.99047ZM13.0682 6.99518C13.4523 6.75149 13.9181 6.53954 14.3907 6.50494C14.8383 6.47217 15.3222 6.59442 15.7987 7.08043L16.5127 6.38028C15.8222 5.67609 15.0468 5.45423 14.3177 5.50761C13.6136 5.55915 12.9852 5.8636 12.5325 6.15075L13.0682 6.99518ZM15.7987 7.08043C16.37 7.66301 16.5614 8.3777 16.4835 9.16519C16.4041 9.96802 16.0427 10.837 15.5131 11.6523C14.9857 12.4645 14.3116 13.192 13.6482 13.7115C12.9631 14.2482 12.3707 14.5 12 14.5V15.5C12.7169 15.5 13.534 15.0713 14.2649 14.4988C15.0175 13.9093 15.7659 13.0991 16.3518 12.197C16.9356 11.2981 17.3785 10.2763 17.4786 9.26365C17.5803 8.23571 17.3267 7.21036 16.5127 6.38028L15.7987 7.08043ZM12 14.5C11.6293 14.5 11.0369 14.2482 10.3518 13.7115C9.68841 13.192 9.01433 12.4645 8.48687 11.6523C7.95735 10.837 7.59592 9.96802 7.51649 9.16519C7.43858 8.3777 7.62999 7.66301 8.20126 7.08043L7.48726 6.38028C6.67329 7.21037 6.41965 8.23571 6.52135 9.26365C6.62153 10.2763 7.06438 11.2981 7.64822 12.197C8.23412 13.0991 8.98251 13.9093 9.73515 14.4988C10.466 15.0713 11.2831 15.5 12 15.5V14.5ZM8.20126 7.08043C8.67783 6.59443 9.16173 6.47218 9.6093 6.50495C10.0819 6.53954 10.5477 6.7515 10.9318 6.99518L11.4675 6.15075C11.0148 5.8636 10.3864 5.55916 9.68231 5.50762C8.95317 5.45424 8.17779 5.6761 7.48726 6.38028L8.20126 7.08043ZM12.5325 6.15075C12.2232 6.34698 11.7768 6.34698 11.4675 6.15075L10.9318 6.99518C11.5682 7.39884 12.4318 7.39884 13.0682 6.99518L12.5325 6.15075Z" fill="#00EE24"/>

</svg>
