<svg width="24" height="24" viewBox="0 0 24 24" fill="none" xmlns="http://www.w3.org/2000/svg">
<path d="M15.5 6C15.5 7.933 13.933 9.5 12 9.5V10.5C14.4853 10.5 16.5 8.48528 16.5 6H15.5ZM12 9.5C10.067 9.5 8.5 7.933 8.5 6H7.5C7.5 8.48528 9.51472 10.5 12 10.5V9.5ZM8.5 6C8.5 4.067 10.067 2.5 12 2.5V1.5C9.51472 1.5 7.5 3.51472 7.5 6H8.5ZM12 2.5C13.933 2.5 15.5 4.067 15.5 6H16.5C16.5 3.51472 14.4853 1.5 12 1.5V2.5ZM9 13.5H15V12.5H9V13.5ZM15 20.5H9V21.5H15V20.5ZM9 20.5C7.067 20.5 5.5 18.933 5.5 17H4.5C4.5 19.4853 6.51472 21.5 9 21.5V20.5ZM18.5 17C18.5 18.933 16.933 20.5 15 20.5V21.5C17.4853 21.5 19.5 19.4853 19.5 17H18.5ZM15 13.5C16.933 13.5 18.5 15.067 18.5 17H19.5C19.5 14.5147 17.4853 12.5 15 12.5V13.5ZM9 12.5C6.51472 12.5 4.5 14.5147 4.5 17H5.5C5.5 15.067 7.067 13.5 9 13.5V12.5Z" fill="#00EE24"/>

</svg>
