<svg width="24" height="24" viewBox="0 0 24 24" fill="none" xmlns="http://www.w3.org/2000/svg">
<path d="M4.58818 7.77661L5.07229 7.90167L4.58818 7.77661ZM8.08799 4.48256L8.18217 4.97361L8.08799 4.48256ZM10.1526 13.2008L10.0116 12.7211L10.1526 13.2008ZM11.2594 14.3076L10.7797 14.1665L11.2594 14.3076ZM16.6836 19.8721L16.8087 20.3562L16.6836 19.8721ZM19.9777 16.3722L20.4687 16.4664L19.9777 16.3722ZM21.7323 7.22315L21.2412 7.12898V7.12898L21.7323 7.22315ZM17.237 2.72791L17.1429 2.23686L17.237 2.72791ZM6.18198 17.5711C5.98672 17.7664 5.98672 18.083 6.18198 18.2783C6.37724 18.4735 6.69382 18.4735 6.88909 18.2783L6.18198 17.5711ZM8.3033 16.864C8.49856 16.6688 8.49856 16.3522 8.3033 16.1569C8.10804 15.9617 7.79146 15.9617 7.59619 16.1569L8.3033 16.864ZM6.88909 21.1067C6.69383 21.3019 6.69383 21.6185 6.88909 21.8138C7.08435 22.009 7.40093 22.009 7.59619 21.8138L6.88909 21.1067ZM9.01041 20.3996C9.20567 20.2043 9.20567 19.8877 9.01041 19.6925C8.81515 19.4972 8.49856 19.4972 8.3033 19.6925L9.01041 20.3996ZM2.64645 16.864C2.45118 17.0593 2.45118 17.3759 2.64645 17.5711C2.84171 17.7664 3.15829 17.7664 3.35355 17.5711L2.64645 16.864ZM4.76777 16.1569C4.96303 15.9617 4.96303 15.6451 4.76777 15.4498C4.5725 15.2546 4.25592 15.2546 4.06066 15.4498L4.76777 16.1569ZM21.2412 7.12898L19.4866 16.278L20.4687 16.4664L22.2233 7.31733L21.2412 7.12898ZM8.18217 4.97361L17.3312 3.21897L17.1429 2.23686L7.99382 3.99151L8.18217 4.97361ZM5.07229 7.90167C5.45777 6.40945 6.67163 5.26331 8.18217 4.97361L7.99382 3.99151C6.10064 4.35459 4.58543 5.78818 4.10407 7.65156L5.07229 7.90167ZM10.0116 12.7211C7.06973 13.5863 4.302 10.8835 5.07229 7.90167L4.10407 7.65156C3.14289 11.3724 6.59407 14.7685 10.2937 13.6805L10.0116 12.7211ZM11.7391 14.4486C12.0498 13.3921 11.0681 12.4104 10.0116 12.7211L10.2937 13.6805C10.5909 13.5931 10.8671 13.8693 10.7797 14.1665L11.7391 14.4486ZM16.5586 19.3879C13.5767 20.1582 10.8739 17.3905 11.7391 14.4486L10.7797 14.1665C9.69172 17.8662 13.0878 21.3174 16.8087 20.3562L16.5586 19.3879ZM19.4866 16.278C19.1969 17.7886 18.0508 19.0025 16.5586 19.3879L16.8087 20.3562C18.6721 19.8748 20.1056 18.3596 20.4687 16.4664L19.4866 16.278ZM22.2233 7.31733C22.8012 4.30427 20.1559 1.65901 17.1429 2.23686L17.3312 3.21897C19.6501 2.77424 21.686 4.81008 21.2412 7.12898L22.2233 7.31733ZM6.88909 18.2783L8.3033 16.864L7.59619 16.1569L6.18198 17.5711L6.88909 18.2783ZM7.59619 21.8138L9.01041 20.3996L8.3033 19.6925L6.88909 21.1067L7.59619 21.8138ZM3.35355 17.5711L4.76777 16.1569L4.06066 15.4498L2.64645 16.864L3.35355 17.5711Z" fill="#FFD70D"/>

</svg>
