<svg width="24" height="24" viewBox="0 0 24 24" fill="none" xmlns="http://www.w3.org/2000/svg">
<g >
<path d="M20.5 7.32587L21.1067 8.62586L21.1387 8.69451L21.2074 8.72654L22.5074 9.33325L21.2074 9.93996L21.1387 9.972L21.1067 10.0406L20.5 11.3406L19.8933 10.0406L19.8613 9.972L19.7926 9.93996L18.4926 9.33325L19.7926 8.72654L19.8613 8.69451L19.8933 8.62586L20.5 7.32587Z" stroke="#EE00BA" stroke-width="0.416667"/>
<path d="M16.3333 0L17.394 2.27267L19.6667 3.33333L17.394 4.39399L16.3333 6.66667L15.2727 4.39399L13 3.33333L15.2727 2.27267L16.3333 0Z" fill="#EE00BA"/>
<path d="M3.92368 6.46728L3.80211 6.95228L3.92368 6.46728ZM6.74671 4.8374L6.2659 4.70019L6.74671 4.8374ZM1.67039 10.3701L2.02962 10.0223L1.67039 10.3701ZM1.67039 13.6299L1.31115 13.2821L1.67039 13.6299ZM3.92368 17.5327L4.04525 18.0177L3.92368 17.5327ZM6.74671 19.1625L6.26591 19.2998L6.74671 19.1625ZM11.2533 19.1625L11.7341 19.2998L11.2533 19.1625ZM14.0763 17.5327L14.1979 17.0477L14.0763 17.5327ZM16.3296 13.6299L15.9704 13.9776L16.3296 13.6299ZM16.3296 10.3701L15.9704 10.0223L16.3296 10.3701ZM14.0763 6.46728L13.9548 5.98229L14.0763 6.46728ZM11.2533 4.8374L11.7341 4.70019L11.2533 4.8374ZM3.80211 6.95228C5.2905 7.32536 6.80642 6.45014 7.22751 4.97462L6.2659 4.70019C5.99291 5.65676 5.01016 6.22415 4.04525 5.98229L3.80211 6.95228ZM2.02962 10.0223C0.739763 8.68998 2.00335 6.50139 3.80211 6.95228L4.04525 5.98229C1.27062 5.28679 -0.678474 8.66273 1.31115 10.7179L2.02962 10.0223ZM2.02962 13.9776C3.09691 12.8752 3.09691 11.1248 2.02962 10.0223L1.31115 10.7179C2.00307 11.4326 2.00307 12.5674 1.31115 13.2821L2.02962 13.9776ZM3.80211 17.0477C2.00335 17.4986 0.739763 15.31 2.02962 13.9776L1.31115 13.2821C-0.678475 15.3372 1.27062 18.7132 4.04525 18.0177L3.80211 17.0477ZM7.22751 19.0253C6.80642 17.5498 5.2905 16.6746 3.80211 17.0477L4.04525 18.0177C5.01016 17.7758 5.99291 18.3432 6.26591 19.2998L7.22751 19.0253ZM10.7725 19.0253C10.2636 20.8085 7.73642 20.8085 7.22751 19.0253L6.26591 19.2998C7.0509 22.0504 10.9491 22.0504 11.7341 19.2998L10.7725 19.0253ZM14.1979 17.0477C12.7095 16.6746 11.1936 17.5498 10.7725 19.0253L11.7341 19.2998C12.0071 18.3432 12.9898 17.7758 13.9548 18.0177L14.1979 17.0477ZM15.9704 13.9776C17.2602 15.31 15.9967 17.4986 14.1979 17.0477L13.9548 18.0177C16.7294 18.7132 18.6785 15.3372 16.6888 13.2821L15.9704 13.9776ZM15.9704 10.0223C14.9031 11.1248 14.9031 12.8752 15.9704 13.9776L16.6888 13.2821C15.9969 12.5674 15.9969 11.4326 16.6888 10.7179L15.9704 10.0223ZM14.1979 6.95228C15.9967 6.50139 17.2602 8.68998 15.9704 10.0223L16.6888 10.7179C18.6785 8.66273 16.7294 5.28679 13.9548 5.98229L14.1979 6.95228ZM10.7725 4.97462C11.1936 6.45014 12.7095 7.32536 14.1979 6.95228L13.9548 5.98229C12.9898 6.22415 12.0071 5.65676 11.7341 4.70019L10.7725 4.97462ZM11.7341 4.70019C10.9491 1.94955 7.0509 1.94955 6.2659 4.70019L7.22751 4.97462C7.73642 3.1914 10.2636 3.1914 10.7725 4.97462L11.7341 4.70019ZM5.99031 12C5.99031 13.6622 7.33779 15.0097 9 15.0097V14.0097C7.89008 14.0097 6.99031 13.1099 6.99031 12H5.99031ZM9 15.0097C10.6622 15.0097 12.0097 13.6622 12.0097 12H11.0097C11.0097 13.1099 10.1099 14.0097 9 14.0097V15.0097ZM12.0097 12C12.0097 10.3378 10.6622 8.99028 9 8.99028V9.99028C10.1099 9.99028 11.0097 10.8901 11.0097 12H12.0097ZM9 8.99028C7.33779 8.99028 5.99031 10.3378 5.99031 12H6.99031C6.99031 10.8901 7.89008 9.99028 9 9.99028V8.99028Z" fill="#EE00BA"/>

</g>

</svg>
