<svg width="24" height="24" viewBox="0 0 24 24" fill="none" xmlns="http://www.w3.org/2000/svg">
<path d="M10.2235 15.8978L10.353 15.4148L10.2235 15.8978ZM8.10222 13.7765L8.58519 13.647L8.10222 13.7765ZM15.8978 13.7765L15.4148 13.647L15.8978 13.7765ZM13.7765 15.8978L13.647 15.4148L13.7765 15.8978ZM13.7765 8.10222L13.647 8.58519L13.7765 8.10222ZM15.8978 10.2235L15.4148 10.353L15.8978 10.2235ZM10.2235 8.10222L10.353 8.58519L10.2235 8.10222ZM8.10222 10.2235L8.58519 10.353L8.10222 10.2235ZM21.5 12C21.5 17.2467 17.2467 21.5 12 21.5V22.5C17.799 22.5 22.5 17.799 22.5 12H21.5ZM12 21.5C6.75329 21.5 2.5 17.2467 2.5 12H1.5C1.5 17.799 6.20101 22.5 12 22.5V21.5ZM2.5 12C2.5 6.75329 6.75329 2.5 12 2.5V1.5C6.20101 1.5 1.5 6.20101 1.5 12H2.5ZM12 2.5C17.2467 2.5 21.5 6.75329 21.5 12H22.5C22.5 6.20101 17.799 1.5 12 1.5V2.5ZM12 15.5C11.0378 15.5 10.6548 15.4957 10.353 15.4148L10.0941 16.3807C10.5552 16.5043 11.1022 16.5 12 16.5V15.5ZM7.5 12C7.5 12.8978 7.49571 13.4448 7.61926 13.9059L8.58519 13.647C8.50429 13.3452 8.5 12.9622 8.5 12H7.5ZM10.353 15.4148C9.49022 15.1836 8.81635 14.5098 8.58519 13.647L7.61926 13.9059C7.94289 15.1137 8.88631 16.0571 10.0941 16.3807L10.353 15.4148ZM15.5 12C15.5 12.9622 15.4957 13.3452 15.4148 13.647L16.3807 13.9059C16.5043 13.4448 16.5 12.8978 16.5 12H15.5ZM12 16.5C12.8978 16.5 13.4448 16.5043 13.9059 16.3807L13.647 15.4148C13.3452 15.4957 12.9622 15.5 12 15.5V16.5ZM15.4148 13.647C15.1836 14.5098 14.5098 15.1836 13.647 15.4148L13.9059 16.3807C15.1137 16.0571 16.0571 15.1137 16.3807 13.9059L15.4148 13.647ZM12 8.5C12.9622 8.5 13.3452 8.50429 13.647 8.58519L13.9059 7.61926C13.4448 7.49571 12.8978 7.5 12 7.5V8.5ZM16.5 12C16.5 11.1022 16.5043 10.5552 16.3807 10.0941L15.4148 10.353C15.4957 10.6548 15.5 11.0378 15.5 12H16.5ZM13.647 8.58519C14.5098 8.81635 15.1836 9.49022 15.4148 10.353L16.3807 10.0941C16.0571 8.88631 15.1137 7.94289 13.9059 7.61926L13.647 8.58519ZM12 7.5C11.1022 7.5 10.5552 7.49571 10.0941 7.61926L10.353 8.58519C10.6548 8.50429 11.0378 8.5 12 8.5V7.5ZM8.5 12C8.5 11.0378 8.50429 10.6548 8.58519 10.353L7.61926 10.0941C7.49571 10.5552 7.5 11.1022 7.5 12H8.5ZM10.0941 7.61926C8.88631 7.94289 7.94289 8.88631 7.61926 10.0941L8.58519 10.353C8.81635 9.49022 9.49022 8.81635 10.353 8.58519L10.0941 7.61926Z" fill="#FFD70D"/>

</svg>
