<svg width="117" height="24" viewBox="0 0 117 24" fill="none" xmlns="http://www.w3.org/2000/svg">
<g clip-path="url(#clip0_2045_4478)">
<mask id="mask0_2045_4478" style="mask-type:luminance" maskUnits="userSpaceOnUse" x="0" y="0" width="118" height="24">
<path d="M117.001 0H0.000976562V24H117.001V0Z" fill="white"/>
</mask>
<g mask="url(#mask0_2045_4478)">
<path d="M6.99112 22.5416C6.25106 22.3248 5.72761 21.9057 5.52857 21.1341C5.39934 20.6332 5.4684 20.1541 5.73029 19.7272C5.85125 19.5301 5.86448 19.3816 5.77866 19.1875C5.47709 18.505 5.1758 17.8223 4.88407 17.1354C4.59283 16.4497 4.31672 15.7574 4.02717 15.0709C3.83479 14.6149 3.63043 14.164 3.42986 13.7073C2.85402 13.702 2.31998 13.5673 1.91656 13.1185C1.62515 12.7943 1.42798 12.4299 1.43474 11.955C1.44106 11.5112 1.47236 11.1018 1.72631 10.7141C2.13233 10.0943 3.04229 9.74546 3.71058 9.97058C4.02069 10.075 4.31147 10.205 4.52219 10.4715C4.66067 10.6467 4.81941 10.6629 5.02852 10.6046C5.71792 10.4125 6.41199 10.2376 7.1063 10.0646C7.37664 9.99717 7.29503 9.75693 7.32951 9.59166C7.38003 9.34931 7.37908 9.09472 7.38973 8.84493C7.41155 8.33344 7.41981 7.82128 7.44608 7.31008C7.47316 6.78362 7.51614 6.25797 7.5498 5.73179C7.55854 5.59461 7.52077 5.52482 7.37951 5.43055C6.86304 5.08591 6.53357 4.60449 6.48238 3.94051C6.43802 3.36483 6.61672 2.86765 6.9809 2.46849C7.26962 2.15206 7.65778 1.95004 8.10925 1.92472C8.58356 1.89813 9.01603 1.97758 9.41459 2.27473C9.94095 2.66715 10.3294 3.46642 10.1318 4.09232C9.98259 4.56518 10.1235 4.87922 10.3801 5.22467C11.161 6.27568 11.9282 7.33744 12.7087 8.38879C12.7517 8.44658 12.8766 8.48743 12.9474 8.46976C13.6165 8.30253 14.2833 8.12498 14.9486 7.94243C15.7627 7.71909 16.5736 7.48379 17.3882 7.26266C17.6879 7.1813 17.9944 7.12552 18.3139 7.05448C18.3233 6.48242 18.568 6.00943 19.0246 5.66944C19.4749 5.33411 19.9783 5.20634 20.5392 5.34189C21.0282 5.46007 21.4326 5.70549 21.6835 6.14685C22.3332 7.28992 21.8542 8.76823 20.4591 9.03741C19.8321 9.15837 19.298 8.99416 18.8783 8.52323C18.6147 8.22751 18.3441 8.39253 18.0947 8.45656C17.151 8.69872 16.217 8.98015 15.2766 9.23599C14.7396 9.38205 14.1972 9.50714 13.6382 9.64638C13.9184 10.0435 14.1691 10.414 14.4394 10.7688C14.4908 10.8361 14.6297 10.8869 14.7118 10.8686C15.8228 10.6208 16.65 11.3902 16.8788 12.3343C16.9821 12.7605 16.888 13.2008 16.6984 13.6091C16.6673 13.676 16.6698 13.798 16.7102 13.8549C17.1117 14.4204 17.5245 14.9776 17.9319 15.5341C19.0601 15.3396 19.722 15.69 20.1511 16.6079C20.5256 17.4092 20.316 18.2951 19.5199 18.8949C18.8009 19.4367 17.8682 19.3414 17.2774 18.8242C16.5631 18.1988 16.3666 17.2371 16.8801 16.3402C16.658 16.032 16.4388 15.7235 16.2149 15.4186C16.0024 15.1292 15.7849 14.8435 15.5955 14.5909C15.1544 14.5589 14.7363 14.5287 14.2603 14.4942C13.5609 15.2182 12.7957 16.0097 12.0312 16.8019C11.7385 17.1052 11.4478 17.4104 11.1554 17.7139C10.4749 18.4202 9.78861 19.1209 9.12142 19.84C9.05433 19.9123 9.07887 20.0992 9.09927 20.2264C9.2666 21.2714 9.02123 21.7919 8.23323 22.3376C7.88695 22.5774 7.43911 22.58 6.99112 22.5416ZM8.13461 18.385C8.12368 18.5669 8.11274 18.7488 8.10075 18.9481C8.27573 18.7878 8.45194 18.6438 8.60839 18.4801C9.54458 17.501 10.4749 16.5159 11.4099 15.5356C12.0127 14.9035 12.6233 14.279 13.2211 13.642C13.2807 13.5785 13.3064 13.4475 13.2951 13.3545C13.2322 12.8341 13.1285 12.316 13.4262 11.8249C13.4611 11.7673 13.4433 11.636 13.4003 11.5758C13.0735 11.118 12.7243 10.6768 12.4045 10.2141C12.2888 10.0466 12.1504 10.035 12.0013 10.0738C11.4841 10.2084 10.9717 10.3617 10.456 10.5025C9.91626 10.6499 9.37453 10.7895 8.83446 10.9358C8.67238 10.9797 8.51813 11.0375 8.50629 11.2512C8.49101 11.5279 8.47014 11.8043 8.45342 12.0809C8.39999 12.9648 8.34044 13.8483 8.29612 14.7326C8.23604 15.9322 8.18786 17.1326 8.13461 18.385ZM5.05852 14.203C5.62456 15.5276 6.1906 16.8523 6.78921 18.2533C6.82488 18.092 6.85177 18.0132 6.8586 17.9325C6.89704 17.4794 6.94169 17.0264 6.96375 16.5723C7.02326 15.3461 7.07158 14.1194 7.12679 12.893C7.13319 12.7514 7.15969 12.6109 7.16857 12.4693C7.19026 12.1246 7.20706 11.7795 7.22793 11.3955C6.95372 11.4637 6.71304 11.5233 6.47245 11.5835C6.02942 11.6943 5.58568 11.8024 5.14486 11.9218C5.10508 11.9325 5.05971 12.0172 5.05909 12.0682C5.05379 12.4934 4.82093 12.811 4.59798 13.1343C4.74895 13.4738 4.90178 13.8173 5.05852 14.203ZM8.77186 6.46874C8.72381 7.5184 8.67582 8.56802 8.62687 9.63712C9.56249 9.38579 10.473 9.14123 11.4341 8.88309C10.5968 7.73339 9.80466 6.64567 8.96278 5.48963C8.90208 5.62845 8.84325 5.71336 8.82911 5.80538C8.79807 6.00736 8.78962 6.21295 8.77186 6.46874ZM18.7674 17.8195C18.8283 17.7458 18.9294 17.6784 18.9416 17.5971C18.9672 17.4262 18.9936 17.2278 18.9326 17.0776C18.8476 16.8683 18.4942 16.7345 18.3141 16.8028C18.1154 16.878 17.9547 17.0061 17.9056 17.236C17.8168 17.652 18.2804 18.1138 18.7674 17.8195ZM20.1981 6.59272C19.9414 6.56013 19.7766 6.71397 19.6666 6.91168C19.5531 7.11544 19.5626 7.33859 19.7088 7.53746C19.8703 7.75706 20.1054 7.78231 20.3261 7.71059C20.5438 7.63984 20.6636 7.46147 20.6727 7.19992C20.6843 6.86709 20.4637 6.73658 20.1981 6.59272ZM2.93942 11.3281C2.90262 11.3668 2.86286 11.4031 2.82953 11.4448C2.68928 11.62 2.64668 11.9729 2.79998 12.1102C2.94433 12.2395 3.15609 12.3772 3.3293 12.3662C3.61426 12.348 3.77993 12.082 3.78069 11.8066C3.78192 11.3619 3.46683 11.1643 2.93942 11.3281ZM14.8897 13.2484C15.3095 13.2862 15.6291 13.1073 15.5755 12.63C15.539 12.3053 15.2388 12.0575 14.9304 12.153C14.7041 12.223 14.5444 12.3684 14.5111 12.6085C14.4716 12.8932 14.589 13.1065 14.8897 13.2484ZM8.12024 3.28232C8.01771 3.40976 7.87277 3.5217 7.82167 3.66789C7.71785 3.9648 7.80209 4.12607 8.06279 4.27111C8.31599 4.41196 8.54851 4.39118 8.71336 4.17546C8.84492 4.00332 8.96617 3.80977 8.81837 3.57308C8.6135 3.24489 8.47248 3.17797 8.12024 3.28232ZM7.18753 20.1196C6.91743 20.2339 6.7723 20.4126 6.80048 20.739C6.82994 21.0808 7.12325 21.3161 7.44694 21.2105C7.80343 21.0942 7.90424 20.8197 7.86828 20.5707C7.83141 20.3155 7.55162 20.112 7.18753 20.1196Z" fill="#0057FF"/>
<path d="M27.3481 14.1408H34.4483V15.4541H27.3481V14.1408ZM26.4541 18.72H24.8896L30.03 6.62402H31.818L36.9583 18.72H35.3939L30.924 8.07554L26.4541 18.72ZM41.056 14.9875C38.9242 14.6189 37.8584 13.7722 37.8584 12.4474C37.8584 11.6986 38.1449 11.0823 38.7179 10.5984C39.291 10.1031 40.0073 9.85538 40.8669 9.85538C41.6578 9.85538 42.3683 10.0743 42.9987 10.512C43.6405 10.9498 44.099 11.5373 44.3741 12.2746L43.0675 12.7411C42.8726 12.2343 42.5804 11.8368 42.1907 11.5488C41.8125 11.2608 41.3827 11.1168 40.9013 11.1168C40.4199 11.1168 40.0188 11.2378 39.6979 11.4797C39.3884 11.7216 39.2337 12.0211 39.2337 12.3783C39.2337 12.7123 39.3884 12.9831 39.6979 13.1904C40.0188 13.3978 40.5288 13.5648 41.228 13.6915C43.4744 14.0832 44.5976 14.9703 44.5976 16.3527C44.5976 17.0784 44.2824 17.689 43.652 18.1843C43.0331 18.6682 42.2767 18.9101 41.3827 18.9101C40.546 18.9101 39.7838 18.7027 39.0962 18.288C38.42 17.8733 37.9386 17.3146 37.6521 16.6119L38.9071 16.0762C39.1248 16.5715 39.4457 16.9632 39.8698 17.2512C40.3053 17.5392 40.7982 17.6832 41.3483 17.6832C41.887 17.6832 42.334 17.5623 42.6893 17.3203C43.0446 17.0669 43.2222 16.7501 43.2222 16.3699C43.2222 15.7018 42.5002 15.241 41.056 14.9875ZM49.2825 14.9875C47.1508 14.6189 46.0849 13.7722 46.0849 12.4474C46.0849 11.6986 46.3714 11.0823 46.9445 10.5984C47.5175 10.1031 48.2338 9.85538 49.0934 9.85538C49.8842 9.85538 50.5948 10.0743 51.2252 10.512C51.867 10.9498 52.3254 11.5373 52.6005 12.2746L51.2939 12.7411C51.0991 12.2343 50.8068 11.8368 50.4171 11.5488C50.0389 11.2608 49.6091 11.1168 49.1278 11.1168C48.6464 11.1168 48.2452 11.2378 47.9243 11.4797C47.615 11.7216 47.4602 12.0211 47.4602 12.3783C47.4602 12.7123 47.615 12.9831 47.9243 13.1904C48.2452 13.3978 48.7553 13.5648 49.4544 13.6915C51.7008 14.0832 52.824 14.9703 52.824 16.3527C52.824 17.0784 52.5088 17.689 51.8784 18.1843C51.2595 18.6682 50.5031 18.9101 49.6091 18.9101C48.7725 18.9101 48.0103 18.7027 47.3227 18.288C46.6465 17.8733 46.1651 17.3146 45.8786 16.6119L47.1336 16.0762C47.3514 16.5715 47.6723 16.9632 48.0962 17.2512C48.5318 17.5392 49.0246 17.6832 49.5747 17.6832C50.1134 17.6832 50.5604 17.5623 50.9157 17.3203C51.271 17.0669 51.4486 16.7501 51.4486 16.3699C51.4486 15.7018 50.7266 15.241 49.2825 14.9875ZM54.4491 8.40386C54.2657 8.21954 54.174 7.9949 54.174 7.72994C54.174 7.46498 54.2657 7.2461 54.4491 7.0733C54.6325 6.88898 54.8502 6.79682 55.1024 6.79682C55.366 6.79682 55.5838 6.88898 55.7557 7.0733C55.9391 7.2461 56.0307 7.46498 56.0307 7.72994C56.0307 7.9949 55.9391 8.21954 55.7557 8.40386C55.5838 8.57666 55.366 8.66306 55.1024 8.66306C54.8502 8.66306 54.6325 8.57666 54.4491 8.40386ZM54.4147 18.72V10.08H55.7901V18.72H54.4147ZM60.8335 14.9875C58.7017 14.6189 57.6358 13.7722 57.6358 12.4474C57.6358 11.6986 57.9223 11.0823 58.4954 10.5984C59.0685 10.1031 59.7848 9.85538 60.6444 9.85538C61.4352 9.85538 62.1458 10.0743 62.7762 10.512C63.418 10.9498 63.8764 11.5373 64.1515 12.2746L62.8449 12.7411C62.6501 12.2343 62.3578 11.8368 61.9681 11.5488C61.5899 11.2608 61.1601 11.1168 60.6787 11.1168C60.1974 11.1168 59.7962 11.2378 59.4753 11.4797C59.1659 11.7216 59.0111 12.0211 59.0111 12.3783C59.0111 12.7123 59.1659 12.9831 59.4753 13.1904C59.7962 13.3978 60.3063 13.5648 61.0054 13.6915C63.2518 14.0832 64.375 14.9703 64.375 16.3527C64.375 17.0784 64.0598 17.689 63.4295 18.1843C62.8105 18.6682 62.0541 18.9101 61.1601 18.9101C60.3235 18.9101 59.5613 18.7027 58.8736 18.288C58.1974 17.8733 57.716 17.3146 57.4295 16.6119L58.6845 16.0762C58.9023 16.5715 59.2232 16.9632 59.6472 17.2512C60.0828 17.5392 60.5756 17.6832 61.1257 17.6832C61.6644 17.6832 62.1114 17.5623 62.4667 17.3203C62.822 17.0669 62.9997 16.7501 62.9997 16.3699C62.9997 15.7018 62.2776 15.241 60.8335 14.9875ZM69.8535 17.4067H70.9537V18.72H69.6644C68.8277 18.72 68.1687 18.5069 67.6873 18.0807C67.2059 17.6544 66.9652 17.0784 66.9652 16.3527V11.3587H65.3836V10.08H66.9652V7.55714L68.3406 7.28066V10.08H70.9537V11.3587H68.3406V16.0416C68.3406 16.9517 68.8449 17.4067 69.8535 17.4067ZM77.6729 14.7283L75.2145 15.0221C74.0569 15.1603 73.4781 15.6039 73.4781 16.3527C73.4781 16.7443 73.6385 17.0611 73.9594 17.3031C74.2804 17.5335 74.7102 17.6487 75.2488 17.6487C75.9824 17.6487 76.5669 17.4298 77.0024 16.992C77.4494 16.5543 77.6729 15.9783 77.6729 15.264H78.2746C78.2746 16.3123 77.9537 17.1821 77.3119 17.8733C76.67 18.5645 75.8677 18.9101 74.905 18.9101C74.0913 18.9101 73.415 18.6797 72.8764 18.2189C72.3491 17.7466 72.0855 17.1418 72.0855 16.4045C72.097 15.6903 72.3492 15.1085 72.842 14.6592C73.3463 14.1984 74.0397 13.9162 74.9222 13.8125L77.6729 13.5015V13.1559C77.6729 12.6259 77.4666 12.1651 77.054 11.7735C76.6414 11.3818 76.1371 11.1859 75.5411 11.1859C75.0024 11.1859 74.5268 11.3299 74.1142 11.6179C73.7016 11.9059 73.4322 12.2803 73.3062 12.7411L72.034 12.3264C72.2517 11.6007 72.6758 11.0131 73.3062 10.5639C73.9365 10.1146 74.6529 9.88994 75.4551 9.88994C76.4293 9.88994 77.2717 10.201 77.9823 10.8231C78.6929 11.4336 79.0482 12.1651 79.0482 13.0176V18.72H77.6729V14.7283ZM81.0258 18.72V10.08H82.4011V18.72H81.0258ZM87.0085 18.72V13.6051C87.0085 12.8679 86.8022 12.2861 86.3896 11.8599C85.9885 11.4336 85.4613 11.2205 84.808 11.2205C84.1432 11.2205 83.5759 11.4567 83.106 11.929C82.6361 12.3898 82.4011 12.9485 82.4011 13.6051H81.6447C81.6447 12.5914 81.9885 11.7216 82.6762 10.9959C83.3639 10.2586 84.2005 9.88994 85.1862 9.88994C86.0916 9.88994 86.8481 10.2067 87.4555 10.8403C88.0744 11.4739 88.3839 12.2976 88.3839 13.3114V18.72H87.0085ZM93.9961 17.4067H95.0963V18.72H93.8069C92.9703 18.72 92.3113 18.5069 91.8299 18.0807C91.3485 17.6544 91.1078 17.0784 91.1078 16.3527V11.3587H89.5262V10.08H91.1078V7.55714L92.4832 7.28066V10.08H95.0963V11.3587H92.4832V16.0416C92.4832 16.9517 92.9875 17.4067 93.9961 17.4067Z" fill="#1B1B1B"/>
<path d="M103.217 14.1408H110.317V15.4541H103.217V14.1408ZM102.323 18.72H100.759L105.899 6.62402H107.687L112.827 18.72H111.263L106.793 8.07554L102.323 18.72ZM115.71 18.72H114.335V6.62402H115.71V18.72Z" fill="#0057FF"/>
</g>
</g>
<defs>
<clipPath id="clip0_2045_4478">
<rect width="117" height="24" fill="white"/>
</clipPath>
</defs>
</svg>
