<svg xmlns="http://www.w3.org/2000/svg" xmlns:xlink="http://www.w3.org/1999/xlink" width="0" height="0"
     style="position:absolute">
    <symbol id="document" viewBox="0 0 24 24">
        <path stroke="transparent" d="M5.06107 21.0451L5.35497 20.6406L5.06107 21.0451ZM3.95491 19.9389L4.35942 19.645L3.95491 19.9389ZM20.0451 19.9389L19.6406 19.645L20.0451 19.9389ZM18.9389 21.0451L18.645 20.6406L18.9389 21.0451ZM18.9389 2.95491L18.645 3.35942L18.9389 2.95491ZM20.0451 4.06107L19.6406 4.35497L20.0451 4.06107ZM5.06107 2.95491L5.35497 3.35942L5.06107 2.95491ZM3.95491 4.06107L4.35942 4.35497L3.95491 4.06107ZM8 15.5C7.72386 15.5 7.5 15.7239 7.5 16C7.5 16.2761 7.72386 16.5 8 16.5V15.5ZM16 16.5C16.2761 16.5 16.5 16.2761 16.5 16C16.5 15.7239 16.2761 15.5 16 15.5V16.5ZM8 11.5C7.72386 11.5 7.5 11.7239 7.5 12C7.5 12.2761 7.72386 12.5 8 12.5V11.5ZM16 12.5C16.2761 12.5 16.5 12.2761 16.5 12C16.5 11.7239 16.2761 11.5 16 11.5V12.5ZM8 7.5C7.72386 7.5 7.5 7.72386 7.5 8C7.5 8.27614 7.72386 8.5 8 8.5V7.5ZM11 8.5C11.2761 8.5 11.5 8.27614 11.5 8C11.5 7.72386 11.2761 7.5 11 7.5V8.5ZM20.5 11V13H21.5V11H20.5ZM3.5 13V11H2.5V13H3.5ZM12 21.5C10.114 21.5 8.73966 21.4993 7.67112 21.3835C6.61193 21.2688 5.91269 21.0458 5.35497 20.6406L4.76718 21.4496C5.52378 21.9993 6.41914 22.2538 7.5634 22.3777C8.69831 22.5007 10.1363 22.5 12 22.5V21.5ZM2.5 13C2.5 14.8637 2.49931 16.3017 2.62227 17.4366C2.74625 18.5809 3.0007 19.4762 3.55041 20.2328L4.35942 19.645C3.95421 19.0873 3.73121 18.3881 3.61646 17.3289C3.50069 16.2603 3.5 14.886 3.5 13H2.5ZM5.35497 20.6406C4.97294 20.363 4.63698 20.0271 4.35942 19.645L3.55041 20.2328C3.88964 20.6997 4.30026 21.1104 4.76718 21.4496L5.35497 20.6406ZM20.5 13C20.5 14.886 20.4993 16.2603 20.3835 17.3289C20.2688 18.3881 20.0458 19.0873 19.6406 19.645L20.4496 20.2328C20.9993 19.4762 21.2538 18.5809 21.3777 17.4366C21.5007 16.3017 21.5 14.8637 21.5 13H20.5ZM12 22.5C13.8637 22.5 15.3017 22.5007 16.4366 22.3777C17.5809 22.2538 18.4762 21.9993 19.2328 21.4496L18.645 20.6406C18.0873 21.0458 17.3881 21.2688 16.3289 21.3835C15.2603 21.4993 13.886 21.5 12 21.5V22.5ZM19.6406 19.645C19.363 20.0271 19.0271 20.363 18.645 20.6406L19.2328 21.4496C19.6997 21.1104 20.1104 20.6997 20.4496 20.2328L19.6406 19.645ZM12 2.5C13.886 2.5 15.2603 2.50069 16.3289 2.61646C17.3881 2.73121 18.0873 2.95421 18.645 3.35942L19.2328 2.55041C18.4762 2.0007 17.5809 1.74625 16.4366 1.62227C15.3017 1.49931 13.8637 1.5 12 1.5V2.5ZM21.5 11C21.5 9.13627 21.5007 7.69831 21.3777 6.5634C21.2538 5.41914 20.9993 4.52378 20.4496 3.76718L19.6406 4.35497C20.0458 4.91269 20.2688 5.61193 20.3835 6.67112C20.4993 7.73966 20.5 9.114 20.5 11H21.5ZM18.645 3.35942C19.0271 3.63698 19.363 3.97294 19.6406 4.35497L20.4496 3.76718C20.1104 3.30026 19.6997 2.88964 19.2328 2.55041L18.645 3.35942ZM12 1.5C10.1363 1.5 8.69831 1.49931 7.5634 1.62227C6.41914 1.74625 5.52378 2.0007 4.76718 2.55041L5.35497 3.35942C5.91269 2.95421 6.61193 2.73121 7.67112 2.61646C8.73966 2.50069 10.114 2.5 12 2.5V1.5ZM3.5 11C3.5 9.114 3.50069 7.73966 3.61646 6.67112C3.73121 5.61193 3.95421 4.91269 4.35942 4.35497L3.55041 3.76718C3.0007 4.52378 2.74625 5.41914 2.62227 6.5634C2.49931 7.69831 2.5 9.13627 2.5 11H3.5ZM4.76718 2.55041C4.30026 2.88964 3.88964 3.30026 3.55041 3.76718L4.35942 4.35497C4.63698 3.97294 4.97294 3.63698 5.35497 3.35942L4.76718 2.55041ZM8 16.5H16V15.5H8V16.5ZM8 12.5H16V11.5H8V12.5ZM8 8.5H11V7.5H8V8.5Z"/>
    </symbol>
    <symbol id="document-left" viewBox="0 0 24 24">
        <path stroke="transparent" d="M19.2178 15.0616L19.1396 14.5677L19.2178 15.0616ZM15.0616 19.2178L14.5677 19.1396L15.0616 19.2178ZM5.06107 20.0451L5.35497 19.6406L5.06107 20.0451ZM3.95491 18.9389L4.35942 18.645L3.95491 18.9389ZM20.0451 18.9389L20.4496 19.2328L20.0451 18.9389ZM18.9389 20.0451L19.2328 20.4496L18.9389 20.0451ZM18.9389 3.95491L18.645 4.35942L18.9389 3.95491ZM20.0451 5.06107L19.6406 5.35497L20.0451 5.06107ZM5.06107 3.95491L5.35497 4.35942L5.06107 3.95491ZM3.95491 5.06107L4.35942 5.35497L3.95491 5.06107ZM8 11.5C7.72386 11.5 7.5 11.7239 7.5 12C7.5 12.2761 7.72386 12.5 8 12.5V11.5ZM16 12.5C16.2761 12.5 16.5 12.2761 16.5 12C16.5 11.7239 16.2761 11.5 16 11.5V12.5ZM8 7.5C7.72386 7.5 7.5 7.72386 7.5 8C7.5 8.27614 7.72386 8.5 8 8.5V7.5ZM11 8.5C11.2761 8.5 11.5 8.27614 11.5 8C11.5 7.72386 11.2761 7.5 11 7.5V8.5ZM20.9711 15L21.4708 15.0171L20.9711 15ZM15 20.9711L15.0171 21.4708L15 20.9711ZM19.1396 14.5677C16.7862 14.9405 14.9405 16.7862 14.5677 19.1396L15.5554 19.296C15.8604 17.3705 17.3705 15.8604 19.296 15.5554L19.1396 14.5677ZM12 20.5C10.114 20.5 8.73966 20.4993 7.67112 20.3835C6.61193 20.2688 5.91269 20.0458 5.35497 19.6406L4.76718 20.4496C5.52378 20.9993 6.41914 21.2538 7.5634 21.3777C8.69831 21.5007 10.1363 21.5 12 21.5V20.5ZM2.5 12C2.5 13.8637 2.49931 15.3017 2.62227 16.4366C2.74625 17.5809 3.0007 18.4762 3.55041 19.2328L4.35942 18.645C3.95421 18.0873 3.73121 17.3881 3.61646 16.3289C3.50069 15.2603 3.5 13.886 3.5 12H2.5ZM5.35497 19.6406C4.97294 19.363 4.63698 19.0271 4.35942 18.645L3.55041 19.2328C3.88964 19.6997 4.30026 20.1104 4.76718 20.4496L5.35497 19.6406ZM19.6406 18.645C19.363 19.0271 19.0271 19.363 18.645 19.6406L19.2328 20.4496C19.6997 20.1104 20.1104 19.6997 20.4496 19.2328L19.6406 18.645ZM12 3.5C13.886 3.5 15.2603 3.50069 16.3289 3.61646C17.3881 3.73121 18.0873 3.95421 18.645 4.35942L19.2328 3.55041C18.4762 3.0007 17.5809 2.74625 16.4366 2.62227C15.3017 2.49931 13.8637 2.5 12 2.5V3.5ZM21.5 12C21.5 10.1363 21.5007 8.69831 21.3777 7.5634C21.2538 6.41914 20.9993 5.52378 20.4496 4.76718L19.6406 5.35497C20.0458 5.91269 20.2688 6.61193 20.3835 7.67112C20.4993 8.73966 20.5 10.114 20.5 12H21.5ZM18.645 4.35942C19.0271 4.63698 19.363 4.97294 19.6406 5.35497L20.4496 4.76718C20.1104 4.30026 19.6997 3.88964 19.2328 3.55041L18.645 4.35942ZM12 2.5C10.1363 2.5 8.69831 2.49931 7.5634 2.62227C6.41914 2.74625 5.52378 3.0007 4.76718 3.55041L5.35497 4.35942C5.91269 3.95421 6.61193 3.73121 7.67112 3.61646C8.73966 3.50069 10.114 3.5 12 3.5V2.5ZM3.5 12C3.5 10.114 3.50069 8.73966 3.61646 7.67112C3.73121 6.61193 3.95421 5.91269 4.35942 5.35497L3.55041 4.76718C3.0007 5.52378 2.74625 6.41914 2.62227 7.5634C2.49931 8.69831 2.5 10.1363 2.5 12H3.5ZM4.76718 3.55041C4.30026 3.88964 3.88964 4.30026 3.55041 4.76718L4.35942 5.35497C4.63698 4.97294 4.97294 4.63698 5.35497 4.35942L4.76718 3.55041ZM8 12.5L16 12.5V11.5L8 11.5V12.5ZM8 8.5L11 8.5V7.5L8 7.5V8.5ZM20.5 12C20.5 13.1717 20.4999 14.1489 20.4714 14.9829L21.4708 15.0171C21.5001 14.1624 21.5 13.1662 21.5 12H20.5ZM20.4714 14.9829C20.4077 16.8409 20.2014 17.8731 19.6406 18.645L20.4496 19.2328C21.2032 18.1955 21.4067 16.8875 21.4708 15.0171L20.4714 14.9829ZM20.9711 14.5C20.0796 14.5 19.5727 14.4991 19.1396 14.5677L19.296 15.5554C19.6322 15.5022 20.043 15.5 20.9711 15.5L20.9711 14.5ZM12 21.5C13.1662 21.5 14.1624 21.5001 15.0171 21.4708L14.9829 20.4714C14.1489 20.4999 13.1717 20.5 12 20.5V21.5ZM15.0171 21.4708C16.8875 21.4067 18.1955 21.2032 19.2328 20.4496L18.645 19.6406C17.8731 20.2014 16.8409 20.4077 14.9829 20.4714L15.0171 21.4708ZM15.5 20.9711C15.5 20.043 15.5022 19.6322 15.5554 19.296L14.5677 19.1396C14.4991 19.5727 14.5 20.0796 14.5 20.9711L15.5 20.9711Z"/>

    </symbol>
    <symbol id="document-center" viewBox="0 0 24 24">
        <path stroke="transparent" d="M5.06107 21.0451L5.35497 20.6406L5.06107 21.0451ZM3.95491 19.9389L4.35942 19.645L3.95491 19.9389ZM20.0451 19.9389L19.6406 19.645L20.0451 19.9389ZM18.9389 21.0451L18.645 20.6406L18.9389 21.0451ZM18.9389 2.95491L18.645 3.35942L18.9389 2.95491ZM20.0451 4.06107L19.6406 4.35497L20.0451 4.06107ZM5.06107 2.95491L5.35497 3.35942L5.06107 2.95491ZM3.95491 4.06107L4.35942 4.35497L3.95491 4.06107ZM8 15.5C7.72386 15.5 7.5 15.7239 7.5 16C7.5 16.2761 7.72386 16.5 8 16.5V15.5ZM16 16.5C16.2761 16.5 16.5 16.2761 16.5 16C16.5 15.7239 16.2761 15.5 16 15.5V16.5ZM8 11.5C7.72386 11.5 7.5 11.7239 7.5 12C7.5 12.2761 7.72386 12.5 8 12.5V11.5ZM16 12.5C16.2761 12.5 16.5 12.2761 16.5 12C16.5 11.7239 16.2761 11.5 16 11.5V12.5ZM8 7.5C7.72386 7.5 7.5 7.72386 7.5 8C7.5 8.27614 7.72386 8.5 8 8.5V7.5ZM16 8.5C16.2761 8.5 16.5 8.27614 16.5 8C16.5 7.72386 16.2761 7.5 16 7.5V8.5ZM20.5 11V13H21.5V11H20.5ZM3.5 13V11H2.5V13H3.5ZM12 21.5C10.114 21.5 8.73966 21.4993 7.67112 21.3835C6.61193 21.2688 5.91269 21.0458 5.35497 20.6406L4.76718 21.4496C5.52378 21.9993 6.41914 22.2538 7.5634 22.3777C8.69831 22.5007 10.1363 22.5 12 22.5V21.5ZM2.5 13C2.5 14.8637 2.49931 16.3017 2.62227 17.4366C2.74625 18.5809 3.0007 19.4762 3.55041 20.2328L4.35942 19.645C3.95421 19.0873 3.73121 18.3881 3.61646 17.3289C3.50069 16.2603 3.5 14.886 3.5 13H2.5ZM5.35497 20.6406C4.97294 20.363 4.63698 20.0271 4.35942 19.645L3.55041 20.2328C3.88964 20.6997 4.30026 21.1104 4.76718 21.4496L5.35497 20.6406ZM20.5 13C20.5 14.886 20.4993 16.2603 20.3835 17.3289C20.2688 18.3881 20.0458 19.0873 19.6406 19.645L20.4496 20.2328C20.9993 19.4762 21.2538 18.5809 21.3777 17.4366C21.5007 16.3017 21.5 14.8637 21.5 13H20.5ZM12 22.5C13.8637 22.5 15.3017 22.5007 16.4366 22.3777C17.5809 22.2538 18.4762 21.9993 19.2328 21.4496L18.645 20.6406C18.0873 21.0458 17.3881 21.2688 16.3289 21.3835C15.2603 21.4993 13.886 21.5 12 21.5V22.5ZM19.6406 19.645C19.363 20.0271 19.0271 20.363 18.645 20.6406L19.2328 21.4496C19.6997 21.1104 20.1104 20.6997 20.4496 20.2328L19.6406 19.645ZM12 2.5C13.886 2.5 15.2603 2.50069 16.3289 2.61646C17.3881 2.73121 18.0873 2.95421 18.645 3.35942L19.2328 2.55041C18.4762 2.0007 17.5809 1.74625 16.4366 1.62227C15.3017 1.49931 13.8637 1.5 12 1.5V2.5ZM21.5 11C21.5 9.13627 21.5007 7.69831 21.3777 6.5634C21.2538 5.41914 20.9993 4.52378 20.4496 3.76718L19.6406 4.35497C20.0458 4.91269 20.2688 5.61193 20.3835 6.67112C20.4993 7.73966 20.5 9.114 20.5 11H21.5ZM18.645 3.35942C19.0271 3.63698 19.363 3.97294 19.6406 4.35497L20.4496 3.76718C20.1104 3.30026 19.6997 2.88964 19.2328 2.55041L18.645 3.35942ZM12 1.5C10.1363 1.5 8.69831 1.49931 7.5634 1.62227C6.41914 1.74625 5.52378 2.0007 4.76718 2.55041L5.35497 3.35942C5.91269 2.95421 6.61193 2.73121 7.67112 2.61646C8.73966 2.50069 10.114 2.5 12 2.5V1.5ZM3.5 11C3.5 9.114 3.50069 7.73966 3.61646 6.67112C3.73121 5.61193 3.95421 4.91269 4.35942 4.35497L3.55041 3.76718C3.0007 4.52378 2.74625 5.41914 2.62227 6.5634C2.49931 7.69831 2.5 9.13627 2.5 11H3.5ZM4.76718 2.55041C4.30026 2.88964 3.88964 3.30026 3.55041 3.76718L4.35942 4.35497C4.63698 3.97294 4.97294 3.63698 5.35497 3.35942L4.76718 2.55041ZM8 16.5H16V15.5H8V16.5ZM8 12.5H16V11.5H8V12.5ZM8 8.5H16V7.5H8V8.5Z"/>

    </symbol>
    <symbol id="volume-mute" viewBox="0 0 24 24">
        <path fill="transparent" d="M6 11.1579C6 10.8943 6 10.7625 6.0124 10.6517C6.11629 9.72323 6.84914 8.99039 7.7776 8.8865C7.88845 8.8741 8.02022 8.8741 8.28376 8.8741C8.53505 8.8741 8.66069 8.8741 8.78282 8.86812C9.77473 8.81958 10.7297 8.47675 11.526 7.88335C11.6241 7.81029 11.721 7.73038 11.915 7.57056L12.911 6.74968C15.3331 4.75339 16.5442 3.75525 17.5596 4.05122C17.7612 4.10997 17.9523 4.20008 18.1258 4.31825C19 4.91362 19 6.48302 19 9.62183V13.8407C19 16.9795 19 18.5489 18.1258 19.1442C17.9523 19.2624 17.7612 19.3525 17.5596 19.4113C16.5442 19.7072 15.3331 18.7091 12.911 16.7128L11.915 15.8919C11.721 15.7321 11.6241 15.6522 11.526 15.5791C10.7297 14.9857 9.77473 14.6429 8.78282 14.5944C8.66069 14.5884 8.53505 14.5884 8.28376 14.5884C8.02022 14.5884 7.88845 14.5884 7.7776 14.576C6.84914 14.4721 6.11629 13.7392 6.0124 12.8108C6 12.6999 6 12.5682 6 12.3046V11.1579Z"/>

    </symbol>
    <symbol id="text-left" viewBox="0 0 24 24">
        <path fill="transparent" d="M5 14H19M5 18H19M5 6H11M5 10H11" stroke-linecap="round"/>
    </symbol>
    <symbol id="document-center-2" viewBox="0 0 24 24">
        <path stroke="transparent" d="M5.06107 21.0451L5.35497 20.6406L5.06107 21.0451ZM3.95491 19.9389L4.35942 19.645L3.95491 19.9389ZM20.0451 19.9389L19.6406 19.645L20.0451 19.9389ZM18.9389 21.0451L18.645 20.6406L18.9389 21.0451ZM18.9389 2.95491L19.2328 2.55041L18.9389 2.95491ZM20.0451 4.06107L19.6406 4.35497L20.0451 4.06107ZM5.06107 2.95491L5.35497 3.35942L5.06107 2.95491ZM3.95491 4.06107L4.35942 4.35497L3.95491 4.06107ZM13.1461 6.59531L13.2244 7.08915L13.1461 6.59531ZM11.5818 6.59531L11.5036 7.08915L11.5818 6.59531ZM8 17.5C7.72386 17.5 7.5 17.7239 7.5 18C7.5 18.2761 7.72386 18.5 8 18.5V17.5ZM16 18.5C16.2761 18.5 16.5 18.2761 16.5 18C16.5 17.7239 16.2761 17.5 16 17.5V18.5ZM8 13.5C7.72386 13.5 7.5 13.7239 7.5 14C7.5 14.2761 7.72386 14.5 8 14.5V13.5ZM16 14.5C16.2761 14.5 16.5 14.2761 16.5 14C16.5 13.7239 16.2761 13.5 16 13.5V14.5ZM8 9.5C7.72386 9.5 7.5 9.72386 7.5 10C7.5 10.2761 7.72386 10.5 8 10.5V9.5ZM16 10.5C16.2761 10.5 16.5 10.2761 16.5 10C16.5 9.72386 16.2761 9.5 16 9.5V10.5ZM20.5 11V13H21.5V11H20.5ZM3.5 13V11H2.5V13H3.5ZM12 21.5C10.114 21.5 8.73966 21.4993 7.67112 21.3835C6.61193 21.2688 5.91269 21.0458 5.35497 20.6406L4.76718 21.4496C5.52378 21.9993 6.41914 22.2538 7.5634 22.3777C8.69831 22.5007 10.1363 22.5 12 22.5V21.5ZM2.5 13C2.5 14.8637 2.49931 16.3017 2.62227 17.4366C2.74625 18.5809 3.0007 19.4762 3.55041 20.2328L4.35942 19.645C3.95421 19.0873 3.73121 18.3881 3.61646 17.3289C3.50069 16.2603 3.5 14.886 3.5 13H2.5ZM5.35497 20.6406C4.97294 20.363 4.63698 20.0271 4.35942 19.645L3.55041 20.2328C3.88964 20.6997 4.30026 21.1104 4.76718 21.4496L5.35497 20.6406ZM20.5 13C20.5 14.886 20.4993 16.2603 20.3835 17.3289C20.2688 18.3881 20.0458 19.0873 19.6406 19.645L20.4496 20.2328C20.9993 19.4762 21.2538 18.5809 21.3777 17.4366C21.5007 16.3017 21.5 14.8637 21.5 13H20.5ZM12 22.5C13.8637 22.5 15.3017 22.5007 16.4366 22.3777C17.5809 22.2538 18.4762 21.9993 19.2328 21.4496L18.645 20.6406C18.0873 21.0458 17.3881 21.2688 16.3289 21.3835C15.2603 21.4993 13.886 21.5 12 21.5V22.5ZM19.6406 19.645C19.363 20.0271 19.0271 20.363 18.645 20.6406L19.2328 21.4496C19.6997 21.1104 20.1104 20.6997 20.4496 20.2328L19.6406 19.645ZM21.5 11C21.5 9.13627 21.5007 7.69831 21.3777 6.5634C21.2538 5.41914 20.9993 4.52378 20.4496 3.76718L19.6406 4.35497C20.0458 4.91269 20.2688 5.61193 20.3835 6.67112C20.4993 7.73966 20.5 9.114 20.5 11H21.5ZM18.645 3.35942C19.0271 3.63698 19.363 3.97294 19.6406 4.35497L20.4496 3.76718C20.1104 3.30026 19.6997 2.88964 19.2328 2.55041L18.645 3.35942ZM3.5 11C3.5 9.114 3.50069 7.73966 3.61646 6.67112C3.73121 5.61193 3.95421 4.91269 4.35942 4.35497L3.55041 3.76718C3.0007 4.52378 2.74625 5.41914 2.62227 6.5634C2.49931 7.69831 2.5 9.13627 2.5 11H3.5ZM4.76718 2.55041C4.30026 2.88964 3.88964 3.30026 3.55041 3.76718L4.35942 4.35497C4.63698 3.97294 4.97294 3.63698 5.35497 3.35942L4.76718 2.55041ZM13.0679 6.10147C12.6015 6.17534 12.1264 6.17534 11.66 6.10147L11.5036 7.08915C12.0736 7.17944 12.6543 7.17944 13.2244 7.08915L13.0679 6.10147ZM18.0871 2.29767C16.8499 3.53392 15.935 4.43546 15.1403 5.0613C14.353 5.68129 13.7238 5.99759 13.0679 6.10147L13.2244 7.08915C14.1141 6.94824 14.901 6.52267 15.759 5.84693C16.6096 5.17705 17.5691 4.229 18.7939 3.00503L18.0871 2.29767ZM12 2.5C13.6579 2.5 14.9225 2.50035 15.9345 2.57988C16.9448 2.65928 17.6545 2.81498 18.2154 3.0978L18.6656 2.2049C17.9348 1.83638 17.0746 1.66639 16.0128 1.58296C14.9527 1.49965 13.6428 1.5 12 1.5V2.5ZM18.2154 3.0978C18.3675 3.17452 18.5098 3.2612 18.645 3.35942L19.2328 2.55041C19.0533 2.41997 18.8649 2.30537 18.6656 2.2049L18.2154 3.0978ZM5.71867 2.78975C7.01295 4.08397 8.01492 5.08384 8.89463 5.78793C9.78172 6.49792 10.5883 6.94419 11.5036 7.08915L11.66 6.10147C10.9853 5.99461 10.3389 5.66298 9.5195 5.0072C8.69278 4.34553 7.73494 3.39174 6.42577 2.08263L5.71867 2.78975ZM12 1.5C10.5612 1.5 9.37919 1.49982 8.39897 1.55532C7.41924 1.6108 6.60565 1.7232 5.90913 1.96353L6.23531 2.90884C6.80295 2.71298 7.50934 2.6073 8.4555 2.55372C9.40118 2.50018 10.551 2.5 12 2.5V1.5ZM5.90913 1.96353C5.48963 2.10828 5.11299 2.29916 4.76718 2.55041L5.35497 3.35942C5.61338 3.17167 5.9002 3.02447 6.23531 2.90884L5.90913 1.96353ZM8 18.5H16V17.5H8V18.5ZM8 14.5H16V13.5H8V14.5ZM8 10.5H16V9.5H8V10.5Z"/>

    </symbol>
    <symbol id="document-align-center" viewBox="0 0 24 24">
        <path stroke="transparent" d="M4.78217 15.0616L4.86039 14.5677H4.86039L4.78217 15.0616ZM8.93844 19.2178L9.43229 19.1396L8.93844 19.2178ZM5.06107 20.0451L4.76718 20.4496L5.06107 20.0451ZM3.95491 18.9389L4.35942 18.645L3.95491 18.9389ZM20.0451 18.9389L19.6406 18.645L20.0451 18.9389ZM18.9389 20.0451L18.645 19.6406L18.9389 20.0451ZM18.9389 3.95491L18.645 4.35942L18.9389 3.95491ZM20.0451 5.06107L19.6406 5.35497L20.0451 5.06107ZM5.06107 3.95491L5.35497 4.35942L5.06107 3.95491ZM3.95491 5.06107L4.35942 5.35497L3.95491 5.06107ZM3.02893 15L2.52922 15.0171L3.02893 15ZM9 20.9711L8.98288 21.4708L9 20.9711ZM8 11.5C7.72386 11.5 7.5 11.7239 7.5 12C7.5 12.2761 7.72386 12.5 8 12.5V11.5ZM16 12.5C16.2761 12.5 16.5 12.2761 16.5 12C16.5 11.7239 16.2761 11.5 16 11.5V12.5ZM10 7.5C9.72386 7.5 9.5 7.72386 9.5 8C9.5 8.27614 9.72386 8.5 10 8.5V7.5ZM14 8.5C14.2761 8.5 14.5 8.27614 14.5 8C14.5 7.72386 14.2761 7.5 14 7.5V8.5ZM4.70396 15.5554C6.62947 15.8604 8.13963 17.3705 8.4446 19.296L9.43229 19.1396C9.05954 16.7862 7.2138 14.9405 4.86039 14.5677L4.70396 15.5554ZM5.35497 19.6406C4.97294 19.363 4.63698 19.0271 4.35942 18.645L3.55041 19.2328C3.88964 19.6997 4.30026 20.1104 4.76718 20.4496L5.35497 19.6406ZM20.5 12C20.5 13.886 20.4993 15.2603 20.3835 16.3289C20.2688 17.3881 20.0458 18.0873 19.6406 18.645L20.4496 19.2328C20.9993 18.4762 21.2538 17.5809 21.3777 16.4366C21.5007 15.3017 21.5 13.8637 21.5 12H20.5ZM12 21.5C13.8637 21.5 15.3017 21.5007 16.4366 21.3777C17.5809 21.2538 18.4762 20.9993 19.2328 20.4496L18.645 19.6406C18.0873 20.0458 17.3881 20.2688 16.3289 20.3835C15.2603 20.4993 13.886 20.5 12 20.5V21.5ZM19.6406 18.645C19.363 19.0271 19.0271 19.363 18.645 19.6406L19.2328 20.4496C19.6997 20.1104 20.1104 19.6997 20.4496 19.2328L19.6406 18.645ZM12 3.5C13.886 3.5 15.2603 3.50069 16.3289 3.61646C17.3881 3.73121 18.0873 3.95421 18.645 4.35942L19.2328 3.55041C18.4762 3.0007 17.5809 2.74625 16.4366 2.62227C15.3017 2.49931 13.8637 2.5 12 2.5V3.5ZM21.5 12C21.5 10.1363 21.5007 8.69831 21.3777 7.5634C21.2538 6.41914 20.9993 5.52378 20.4496 4.76718L19.6406 5.35497C20.0458 5.91269 20.2688 6.61193 20.3835 7.67112C20.4993 8.73966 20.5 10.114 20.5 12H21.5ZM18.645 4.35942C19.0271 4.63698 19.363 4.97294 19.6406 5.35497L20.4496 4.76718C20.1104 4.30026 19.6997 3.88964 19.2328 3.55041L18.645 4.35942ZM12 2.5C10.1363 2.5 8.69831 2.49931 7.5634 2.62227C6.41914 2.74625 5.52378 3.0007 4.76718 3.55041L5.35497 4.35942C5.91269 3.95421 6.61193 3.73121 7.67112 3.61646C8.73966 3.50069 10.114 3.5 12 3.5V2.5ZM3.5 12C3.5 10.114 3.50069 8.73966 3.61646 7.67112C3.73121 6.61193 3.95421 5.91269 4.35942 5.35497L3.55041 4.76718C3.0007 5.52378 2.74625 6.41914 2.62227 7.5634C2.49931 8.69831 2.5 10.1363 2.5 12H3.5ZM4.76718 3.55041C4.30026 3.88964 3.88964 4.30026 3.55041 4.76718L4.35942 5.35497C4.63698 4.97294 4.97294 4.63698 5.35497 4.35942L4.76718 3.55041ZM2.5 12C2.5 13.1662 2.49994 14.1624 2.52922 15.0171L3.52864 14.9829C3.50006 14.1489 3.5 13.1717 3.5 12H2.5ZM2.52922 15.0171C2.5933 16.8875 2.79676 18.1955 3.55041 19.2328L4.35942 18.645C3.7986 17.8731 3.59229 16.8409 3.52864 14.9829L2.52922 15.0171ZM3.02892 15.5C3.95701 15.5 4.36784 15.5022 4.70396 15.5554L4.86039 14.5677C4.42729 14.4991 3.92037 14.5 3.02893 14.5L3.02892 15.5ZM12 20.5C10.8283 20.5 9.85108 20.4999 9.01712 20.4714L8.98288 21.4708C9.83761 21.5001 10.8338 21.5 12 21.5V20.5ZM9.01712 20.4714C7.15911 20.4077 6.12687 20.2014 5.35497 19.6406L4.76718 20.4496C5.80449 21.2032 7.11252 21.4067 8.98288 21.4708L9.01712 20.4714ZM9.5 20.9711C9.49999 20.0796 9.50088 19.5727 9.43229 19.1396L8.4446 19.296C8.49783 19.6322 8.49999 20.043 8.5 20.9711L9.5 20.9711ZM8 12.5H16V11.5H8V12.5ZM10 8.5H14V7.5H10V8.5Z" />

    </symbol>
    <symbol id="pause" viewBox="0 0 24 24">
        <g fill="transparent">
            <path d="M9 21L9 3M15 21L15 3" stroke-linecap="round"/>
            <path d="M21 15L3 15M21 9L3 9" stroke-linecap="round"/>
        </g>
    </symbol>
    <symbol id="menu-fries" viewBox="0 0 24 24">
        <path fill="transparent" d="M5 9H19M5 15H11" stroke-linecap="round"/>
    </symbol>
    <symbol id="text" viewBox="0 0 24 24">
        <path stroke="transparent" d="M5.06107 20.0451L5.35497 19.6406L5.06107 20.0451ZM3.95491 18.9389L4.35942 18.645L3.95491 18.9389ZM20.0451 18.9389L19.6406 18.645L20.0451 18.9389ZM18.9389 20.0451L18.645 19.6406L18.9389 20.0451ZM18.9389 3.95491L18.645 4.35942L18.9389 3.95491ZM20.0451 5.06107L19.6406 5.35497L20.0451 5.06107ZM5.06107 3.95491L5.35497 4.35942L5.06107 3.95491ZM3.95491 5.06107L4.35942 5.35497L3.95491 5.06107ZM14 17.5C14.2761 17.5 14.5 17.2761 14.5 17C14.5 16.7239 14.2761 16.5 14 16.5V17.5ZM10 16.5C9.72386 16.5 9.5 16.7239 9.5 17C9.5 17.2761 9.72386 17.5 10 17.5V16.5ZM15.5 10C15.5 10.2761 15.7239 10.5 16 10.5C16.2761 10.5 16.5 10.2761 16.5 10H15.5ZM7.5 10C7.5 10.2761 7.72386 10.5 8 10.5C8.27614 10.5 8.5 10.2761 8.5 10H7.5ZM12 20.5C10.114 20.5 8.73966 20.4993 7.67112 20.3835C6.61193 20.2688 5.91269 20.0458 5.35497 19.6406L4.76718 20.4496C5.52378 20.9993 6.41914 21.2538 7.5634 21.3777C8.69831 21.5007 10.1363 21.5 12 21.5V20.5ZM2.5 12C2.5 13.8637 2.49931 15.3017 2.62227 16.4366C2.74625 17.5809 3.0007 18.4762 3.55041 19.2328L4.35942 18.645C3.95421 18.0873 3.73121 17.3881 3.61646 16.3289C3.50069 15.2603 3.5 13.886 3.5 12H2.5ZM5.35497 19.6406C4.97294 19.363 4.63698 19.0271 4.35942 18.645L3.55041 19.2328C3.88964 19.6997 4.30026 20.1104 4.76718 20.4496L5.35497 19.6406ZM20.5 12C20.5 13.886 20.4993 15.2603 20.3835 16.3289C20.2688 17.3881 20.0458 18.0873 19.6406 18.645L20.4496 19.2328C20.9993 18.4762 21.2538 17.5809 21.3777 16.4366C21.5007 15.3017 21.5 13.8637 21.5 12H20.5ZM12 21.5C13.8637 21.5 15.3017 21.5007 16.4366 21.3777C17.5809 21.2538 18.4762 20.9993 19.2328 20.4496L18.645 19.6406C18.0873 20.0458 17.3881 20.2688 16.3289 20.3835C15.2603 20.4993 13.886 20.5 12 20.5V21.5ZM19.6406 18.645C19.363 19.0271 19.0271 19.363 18.645 19.6406L19.2328 20.4496C19.6997 20.1104 20.1104 19.6997 20.4496 19.2328L19.6406 18.645ZM12 3.5C13.886 3.5 15.2603 3.50069 16.3289 3.61646C17.3881 3.73121 18.0873 3.95421 18.645 4.35942L19.2328 3.55041C18.4762 3.0007 17.5809 2.74625 16.4366 2.62227C15.3017 2.49931 13.8637 2.5 12 2.5V3.5ZM21.5 12C21.5 10.1363 21.5007 8.69831 21.3777 7.5634C21.2538 6.41914 20.9993 5.52378 20.4496 4.76718L19.6406 5.35497C20.0458 5.91269 20.2688 6.61193 20.3835 7.67112C20.4993 8.73966 20.5 10.114 20.5 12H21.5ZM18.645 4.35942C19.0271 4.63698 19.363 4.97294 19.6406 5.35497L20.4496 4.76718C20.1104 4.30026 19.6997 3.88964 19.2328 3.55041L18.645 4.35942ZM12 2.5C10.1363 2.5 8.69831 2.49931 7.5634 2.62227C6.41914 2.74625 5.52378 3.0007 4.76718 3.55041L5.35497 4.35942C5.91269 3.95421 6.61193 3.73121 7.67112 3.61646C8.73966 3.50069 10.114 3.5 12 3.5V2.5ZM3.5 12C3.5 10.114 3.50069 8.73966 3.61646 7.67112C3.73121 6.61193 3.95421 5.91269 4.35942 5.35497L3.55041 4.76718C3.0007 5.52378 2.74625 6.41914 2.62227 7.5634C2.49931 8.69831 2.5 10.1363 2.5 12H3.5ZM4.76718 3.55041C4.30026 3.88964 3.88964 4.30026 3.55041 4.76718L4.35942 5.35497C4.63698 4.97294 4.97294 4.63698 5.35497 4.35942L4.76718 3.55041ZM14 6.5H12V7.5H14V6.5ZM12 6.5H10V7.5H12V6.5ZM14 16.5H12V17.5H14V16.5ZM12 16.5H10V17.5H12V16.5ZM15.5 9V10H16.5V9H15.5ZM7.5 9V10H8.5V9H7.5ZM11.5 7V17H12.5V7H11.5ZM10 6.5C8.61929 6.5 7.5 7.61929 7.5 9H8.5C8.5 8.17157 9.17157 7.5 10 7.5V6.5ZM14 7.5C14.8284 7.5 15.5 8.17157 15.5 9H16.5C16.5 7.61929 15.3807 6.5 14 6.5V7.5Z"/>
    </symbol>
    <symbol id="tick" viewBox="0 0 24 24">
        <path fill="transparent" d="M20 7L14.6093 13.4688C12.4732 16.0322 11.4051 17.3139 10 17.3139C8.59488 17.3139 7.52681 16.0322 5.39067 13.4688L4 11.8" stroke-linecap="round"/>
    </symbol>
    <symbol id="group" viewBox="0 0 24 24">
        <g stroke="transparent">
            <path d="M14.5 7.75C14.5 9.13071 13.3807 10.25 12 10.25V11.25C13.933 11.25 15.5 9.683 15.5 7.75H14.5ZM12 10.25C10.6193 10.25 9.5 9.13071 9.5 7.75H8.5C8.5 9.683 10.067 11.25 12 11.25V10.25ZM9.5 7.75C9.5 6.36929 10.6193 5.25 12 5.25V4.25C10.067 4.25 8.5 5.817 8.5 7.75H9.5ZM12 5.25C13.3807 5.25 14.5 6.36929 14.5 7.75H15.5C15.5 5.817 13.933 4.25 12 4.25V5.25ZM9 14.25H15V13.25H9V14.25ZM15 19.25H9V20.25H15V19.25ZM9 19.25C7.61929 19.25 6.5 18.1307 6.5 16.75H5.5C5.5 18.683 7.067 20.25 9 20.25V19.25ZM17.5 16.75C17.5 18.1307 16.3807 19.25 15 19.25V20.25C16.933 20.25 18.5 18.683 18.5 16.75H17.5ZM15 14.25C16.3807 14.25 17.5 15.3693 17.5 16.75H18.5C18.5 14.817 16.933 13.25 15 13.25V14.25ZM9 13.25C7.067 13.25 5.5 14.817 5.5 16.75H6.5C6.5 15.3693 7.61929 14.25 9 14.25V13.25Z"/>
            <path d="M7.75214 10.3887C7.59441 10.1353 7.29846 10 7 10C5.75736 10 4.75 8.99264 4.75 7.75C4.75 6.50736 5.75736 5.5 7 5.5C7.29846 5.5 7.59441 5.36473 7.75214 5.11135C7.75912 5.10014 7.76613 5.08896 7.7732 5.07782C8.0358 4.66331 7.90275 4.0764 7.415 4.0227C7.27873 4.0077 7.14027 4 7 4C4.92893 4 3.25 5.67893 3.25 7.75C3.25 9.82107 4.92893 11.5 7 11.5C7.14027 11.5 7.27873 11.4923 7.415 11.4773C7.90275 11.4236 8.0358 10.8367 7.7732 10.4222C7.76614 10.411 7.75912 10.3999 7.75214 10.3887Z" />
            <path d="M4.70829 18.3169C4.59477 18.1275 4.39439 18 4.17359 18H4C2.75736 18 1.75 16.9926 1.75 15.75C1.75 14.5074 2.75736 13.5 4 13.5H4.17359C4.39439 13.5 4.59477 13.3725 4.70829 13.1831C4.98539 12.7208 4.68468 12 4.14569 12H4C1.92893 12 0.25 13.6789 0.25 15.75C0.25 17.8211 1.92893 19.5 4 19.5H4.14569C4.68469 19.5 4.98539 18.7792 4.70829 18.3169Z"/>
            <path d="M16.2268 10.4222C15.9642 10.8367 16.0973 11.4236 16.585 11.4773C16.7213 11.4923 16.8597 11.5 17 11.5C19.0711 11.5 20.75 9.82107 20.75 7.75C20.75 5.67893 19.0711 4 17 4C16.8597 4 16.7213 4.0077 16.585 4.0227C16.0973 4.0764 15.9642 4.66331 16.2268 5.07782C16.2339 5.08896 16.2409 5.10014 16.2479 5.11134C16.4056 5.36472 16.7015 5.5 17 5.5C18.2426 5.5 19.25 6.50736 19.25 7.75C19.25 8.99264 18.2426 10 17 10C16.7015 10 16.4056 10.1353 16.2479 10.3887C16.2409 10.3999 16.2339 10.411 16.2268 10.4222Z" />
            <path d="M19.2917 18.3169C19.0146 18.7792 19.3153 19.5 19.8543 19.5H20C22.0711 19.5 23.75 17.8211 23.75 15.75C23.75 13.6789 22.0711 12 20 12H19.8543C19.3153 12 19.0146 12.7208 19.2917 13.1831C19.4052 13.3725 19.6056 13.5 19.8264 13.5H20C21.2426 13.5 22.25 14.5074 22.25 15.75C22.25 16.9926 21.2426 18 20 18H19.8264C19.6056 18 19.4052 18.1275 19.2917 18.3169Z"/>
        </g>
    </symbol>
    <symbol id="text-2" viewBox="0 0 24 24">
        <path stroke="transparent" d="M5.06107 20.0451L5.35497 19.6406L5.06107 20.0451ZM3.95491 18.9389L4.35942 18.645L3.95491 18.9389ZM20.0451 18.9389L19.6406 18.645L20.0451 18.9389ZM18.9389 20.0451L18.645 19.6406L18.9389 20.0451ZM18.9389 3.95491L18.645 4.35942L18.9389 3.95491ZM20.0451 5.06107L19.6406 5.35497L20.0451 5.06107ZM5.06107 3.95491L5.35497 4.35942L5.06107 3.95491ZM3.95491 5.06107L4.35942 5.35497L3.95491 5.06107ZM12 20.5C10.114 20.5 8.73966 20.4993 7.67112 20.3835C6.61193 20.2688 5.91269 20.0458 5.35497 19.6406L4.76718 20.4496C5.52378 20.9993 6.41914 21.2538 7.5634 21.3777C8.69831 21.5007 10.1363 21.5 12 21.5V20.5ZM2.5 12C2.5 13.8637 2.49931 15.3017 2.62227 16.4366C2.74625 17.5809 3.0007 18.4762 3.55041 19.2328L4.35942 18.645C3.95421 18.0873 3.73121 17.3881 3.61646 16.3289C3.50069 15.2603 3.5 13.886 3.5 12H2.5ZM5.35497 19.6406C4.97294 19.363 4.63698 19.0271 4.35942 18.645L3.55041 19.2328C3.88964 19.6997 4.30026 20.1104 4.76718 20.4496L5.35497 19.6406ZM20.5 12C20.5 13.886 20.4993 15.2603 20.3835 16.3289C20.2688 17.3881 20.0458 18.0873 19.6406 18.645L20.4496 19.2328C20.9993 18.4762 21.2538 17.5809 21.3777 16.4366C21.5007 15.3017 21.5 13.8637 21.5 12H20.5ZM12 21.5C13.8637 21.5 15.3017 21.5007 16.4366 21.3777C17.5809 21.2538 18.4762 20.9993 19.2328 20.4496L18.645 19.6406C18.0873 20.0458 17.3881 20.2688 16.3289 20.3835C15.2603 20.4993 13.886 20.5 12 20.5V21.5ZM19.6406 18.645C19.363 19.0271 19.0271 19.363 18.645 19.6406L19.2328 20.4496C19.6997 20.1104 20.1104 19.6997 20.4496 19.2328L19.6406 18.645ZM12 3.5C13.886 3.5 15.2603 3.50069 16.3289 3.61646C17.3881 3.73121 18.0873 3.95421 18.645 4.35942L19.2328 3.55041C18.4762 3.0007 17.5809 2.74625 16.4366 2.62227C15.3017 2.49931 13.8637 2.5 12 2.5V3.5ZM21.5 12C21.5 10.1363 21.5007 8.69831 21.3777 7.5634C21.2538 6.41914 20.9993 5.52378 20.4496 4.76718L19.6406 5.35497C20.0458 5.91269 20.2688 6.61193 20.3835 7.67112C20.4993 8.73966 20.5 10.114 20.5 12H21.5ZM18.645 4.35942C19.0271 4.63698 19.363 4.97294 19.6406 5.35497L20.4496 4.76718C20.1104 4.30026 19.6997 3.88964 19.2328 3.55041L18.645 4.35942ZM12 2.5C10.1363 2.5 8.69831 2.49931 7.5634 2.62227C6.41914 2.74625 5.52378 3.0007 4.76718 3.55041L5.35497 4.35942C5.91269 3.95421 6.61193 3.73121 7.67112 3.61646C8.73966 3.50069 10.114 3.5 12 3.5V2.5ZM3.5 12C3.5 10.114 3.50069 8.73966 3.61646 7.67112C3.73121 6.61193 3.95421 5.91269 4.35942 5.35497L3.55041 4.76718C3.0007 5.52378 2.74625 6.41914 2.62227 7.5634C2.49931 8.69831 2.5 10.1363 2.5 12H3.5ZM4.76718 3.55041C4.30026 3.88964 3.88964 4.30026 3.55041 4.76718L4.35942 5.35497C4.63698 4.97294 4.97294 4.63698 5.35497 4.35942L4.76718 3.55041Z"/>
        <path d="M5 11C5 10.4477 5.44772 10 6 10H18C18.5523 10 19 10.4477 19 11V13C19 13.5523 18.5523 14 18 14H6C5.44772 14 5 13.5523 5 13V11Z" stroke-linecap="round"/>
    </symbol>
    <symbol id="faq-circle" viewBox="0 0 24 24">
        <path fill="transparent" d="M9 9L9.33531 7.99408C10.0389 5.88332 12.8236 5.43143 14.1585 7.21138C14.9405 8.25403 14.886 9.70175 14.0277 10.6826L13.1085 11.7331C12.3939 12.5498 12 13.5982 12 14.6834V15M22 12C22 17.5228 17.5228 22 12 22C6.47715 22 2 17.5228 2 12C2 6.47715 6.47715 2 12 2C17.5228 2 22 6.47715 22 12Z" stroke-linecap="round"/>
        <path stroke="transparent" d="M13 18C13 18.5523 12.5523 19 12 19C11.4477 19 11 18.5523 11 18C11 17.4477 11.4477 17 12 17C12.5523 17 13 17.4477 13 18Z"/>

    </symbol>
    <symbol id="stars" viewBox="0 0 24 24">
        <path fill="transparent" d="M18 3.18228L19.4561 6.30227L19.533 6.46701L19.6977 6.5439L22.8177 8L19.6977 9.4561L19.533 9.53299L19.4561 9.69773L18 12.8177L16.5439 9.69773L16.467 9.53299L16.3023 9.4561L13.1823 8L16.3023 6.5439L16.467 6.46701L16.5439 6.30227L18 3.18228Z" />
        <path stroke="transparent" d="M8 6L10.5456 11.4544L16 14L10.5456 16.5456L8 22L5.45442 16.5456L0 14L5.45442 11.4544L8 6Z"/>
    </symbol>
    <symbol id="setting" viewBox="0 0 24 24">
        <path fill="transparent" d="M20.5 7.32587L21.1067 8.62586L21.1387 8.69451L21.2074 8.72654L22.5074 9.33325L21.2074 9.93996L21.1387 9.972L21.1067 10.0406L20.5 11.3406L19.8933 10.0406L19.8613 9.972L19.7926 9.93996L18.4926 9.33325L19.7926 8.72654L19.8613 8.69451L19.8933 8.62586L20.5 7.32587Z" stroke-width="0.416667"/>
        <g stroke="transparent">
            <path d="M16.3333 0L17.394 2.27267L19.6667 3.33333L17.394 4.39399L16.3333 6.66667L15.2727 4.39399L13 3.33333L15.2727 2.27267L16.3333 0Z"/>
            <path d="M3.92368 6.46728L3.80211 6.95228L3.92368 6.46728ZM6.74671 4.8374L6.2659 4.70019L6.74671 4.8374ZM1.67039 10.3701L2.02962 10.0223L1.67039 10.3701ZM1.67039 13.6299L1.31115 13.2821L1.67039 13.6299ZM3.92368 17.5327L4.04525 18.0177L3.92368 17.5327ZM6.74671 19.1625L6.26591 19.2998L6.74671 19.1625ZM11.2533 19.1625L11.7341 19.2998L11.2533 19.1625ZM14.0763 17.5327L14.1979 17.0477L14.0763 17.5327ZM16.3296 13.6299L15.9704 13.9776L16.3296 13.6299ZM16.3296 10.3701L15.9704 10.0223L16.3296 10.3701ZM14.0763 6.46728L13.9548 5.98229L14.0763 6.46728ZM11.2533 4.8374L11.7341 4.70019L11.2533 4.8374ZM3.80211 6.95228C5.2905 7.32536 6.80642 6.45014 7.22751 4.97462L6.2659 4.70019C5.99291 5.65676 5.01016 6.22415 4.04525 5.98229L3.80211 6.95228ZM2.02962 10.0223C0.739763 8.68998 2.00335 6.50139 3.80211 6.95228L4.04525 5.98229C1.27062 5.28679 -0.678474 8.66273 1.31115 10.7179L2.02962 10.0223ZM2.02962 13.9776C3.09691 12.8752 3.09691 11.1248 2.02962 10.0223L1.31115 10.7179C2.00307 11.4326 2.00307 12.5674 1.31115 13.2821L2.02962 13.9776ZM3.80211 17.0477C2.00335 17.4986 0.739763 15.31 2.02962 13.9776L1.31115 13.2821C-0.678475 15.3372 1.27062 18.7132 4.04525 18.0177L3.80211 17.0477ZM7.22751 19.0253C6.80642 17.5498 5.2905 16.6746 3.80211 17.0477L4.04525 18.0177C5.01016 17.7758 5.99291 18.3432 6.26591 19.2998L7.22751 19.0253ZM10.7725 19.0253C10.2636 20.8085 7.73642 20.8085 7.22751 19.0253L6.26591 19.2998C7.0509 22.0504 10.9491 22.0504 11.7341 19.2998L10.7725 19.0253ZM14.1979 17.0477C12.7095 16.6746 11.1936 17.5498 10.7725 19.0253L11.7341 19.2998C12.0071 18.3432 12.9898 17.7758 13.9548 18.0177L14.1979 17.0477ZM15.9704 13.9776C17.2602 15.31 15.9967 17.4986 14.1979 17.0477L13.9548 18.0177C16.7294 18.7132 18.6785 15.3372 16.6888 13.2821L15.9704 13.9776ZM15.9704 10.0223C14.9031 11.1248 14.9031 12.8752 15.9704 13.9776L16.6888 13.2821C15.9969 12.5674 15.9969 11.4326 16.6888 10.7179L15.9704 10.0223ZM14.1979 6.95228C15.9967 6.50139 17.2602 8.68998 15.9704 10.0223L16.6888 10.7179C18.6785 8.66273 16.7294 5.28679 13.9548 5.98229L14.1979 6.95228ZM10.7725 4.97462C11.1936 6.45014 12.7095 7.32536 14.1979 6.95228L13.9548 5.98229C12.9898 6.22415 12.0071 5.65676 11.7341 4.70019L10.7725 4.97462ZM11.7341 4.70019C10.9491 1.94955 7.0509 1.94955 6.2659 4.70019L7.22751 4.97462C7.73642 3.1914 10.2636 3.1914 10.7725 4.97462L11.7341 4.70019ZM5.99031 12C5.99031 13.6622 7.33779 15.0097 9 15.0097V14.0097C7.89008 14.0097 6.99031 13.1099 6.99031 12H5.99031ZM9 15.0097C10.6622 15.0097 12.0097 13.6622 12.0097 12H11.0097C11.0097 13.1099 10.1099 14.0097 9 14.0097V15.0097ZM12.0097 12C12.0097 10.3378 10.6622 8.99028 9 8.99028V9.99028C10.1099 9.99028 11.0097 10.8901 11.0097 12H12.0097ZM9 8.99028C7.33779 8.99028 5.99031 10.3378 5.99031 12H6.99031C6.99031 10.8901 7.89008 9.99028 9 9.99028V8.99028Z" />
        </g>
    </symbol>
    <symbol id="text-3" viewBox="0 0 24 24">
        <path stroke="transparent" d="M5.06107 20.0451L5.35497 19.6406L5.06107 20.0451ZM3.95491 18.9389L4.35942 18.645L3.95491 18.9389ZM20.0451 18.9389L19.6406 18.645L20.0451 18.9389ZM18.9389 20.0451L18.645 19.6406L18.9389 20.0451ZM18.9389 3.95491L18.645 4.35942L18.9389 3.95491ZM20.0451 5.06107L19.6406 5.35497L20.0451 5.06107ZM5.06107 3.95491L5.35497 4.35942L5.06107 3.95491ZM3.95491 5.06107L4.35942 5.35497L3.95491 5.06107ZM12 20.5C10.114 20.5 8.73966 20.4993 7.67112 20.3835C6.61193 20.2688 5.91269 20.0458 5.35497 19.6406L4.76718 20.4496C5.52378 20.9993 6.41914 21.2538 7.5634 21.3777C8.69831 21.5007 10.1363 21.5 12 21.5V20.5ZM2.5 12C2.5 13.8637 2.49931 15.3017 2.62227 16.4366C2.74625 17.5809 3.0007 18.4762 3.55041 19.2328L4.35942 18.645C3.95421 18.0873 3.73121 17.3881 3.61646 16.3289C3.50069 15.2603 3.5 13.886 3.5 12H2.5ZM5.35497 19.6406C4.97294 19.363 4.63698 19.0271 4.35942 18.645L3.55041 19.2328C3.88964 19.6997 4.30026 20.1104 4.76718 20.4496L5.35497 19.6406ZM20.5 12C20.5 13.886 20.4993 15.2603 20.3835 16.3289C20.2688 17.3881 20.0458 18.0873 19.6406 18.645L20.4496 19.2328C20.9993 18.4762 21.2538 17.5809 21.3777 16.4366C21.5007 15.3017 21.5 13.8637 21.5 12H20.5ZM12 21.5C13.8637 21.5 15.3017 21.5007 16.4366 21.3777C17.5809 21.2538 18.4762 20.9993 19.2328 20.4496L18.645 19.6406C18.0873 20.0458 17.3881 20.2688 16.3289 20.3835C15.2603 20.4993 13.886 20.5 12 20.5V21.5ZM19.6406 18.645C19.363 19.0271 19.0271 19.363 18.645 19.6406L19.2328 20.4496C19.6997 20.1104 20.1104 19.6997 20.4496 19.2328L19.6406 18.645ZM12 3.5C13.886 3.5 15.2603 3.50069 16.3289 3.61646C17.3881 3.73121 18.0873 3.95421 18.645 4.35942L19.2328 3.55041C18.4762 3.0007 17.5809 2.74625 16.4366 2.62227C15.3017 2.49931 13.8637 2.5 12 2.5V3.5ZM21.5 12C21.5 10.1363 21.5007 8.69831 21.3777 7.5634C21.2538 6.41914 20.9993 5.52378 20.4496 4.76718L19.6406 5.35497C20.0458 5.91269 20.2688 6.61193 20.3835 7.67112C20.4993 8.73966 20.5 10.114 20.5 12H21.5ZM18.645 4.35942C19.0271 4.63698 19.363 4.97294 19.6406 5.35497L20.4496 4.76718C20.1104 4.30026 19.6997 3.88964 19.2328 3.55041L18.645 4.35942ZM12 2.5C10.1363 2.5 8.69831 2.49931 7.5634 2.62227C6.41914 2.74625 5.52378 3.0007 4.76718 3.55041L5.35497 4.35942C5.91269 3.95421 6.61193 3.73121 7.67112 3.61646C8.73966 3.50069 10.114 3.5 12 3.5V2.5ZM3.5 12C3.5 10.114 3.50069 8.73966 3.61646 7.67112C3.73121 6.61193 3.95421 5.91269 4.35942 5.35497L3.55041 4.76718C3.0007 5.52378 2.74625 6.41914 2.62227 7.5634C2.49931 8.69831 2.5 10.1363 2.5 12H3.5ZM4.76718 3.55041C4.30026 3.88964 3.88964 4.30026 3.55041 4.76718L4.35942 5.35497C4.63698 4.97294 4.97294 4.63698 5.35497 4.35942L4.76718 3.55041Z"/>
        <path d="M4.72361 4.55279C4.893 4.214 5.23926 4 5.61803 4H18.382C18.7607 4 19.107 4.214 19.2764 4.55279L20.5 7H3.5L4.72361 4.55279Z"  stroke-linecap="round"/>
        <g fill="transparent">
            <path d="M5 9H19" stroke-linecap="round"/>
            <path d="M5 11H19" stroke-linecap="round"/>
            <path d="M5 13H19" stroke-linecap="round"/>
        </g>

    </symbol>
    <symbol id="text-4" viewBox="0 0 24 24">
        <path stroke="transparent" d="M5.06107 20.0451L5.35497 19.6406L5.06107 20.0451ZM3.95491 18.9389L4.35942 18.645L3.95491 18.9389ZM20.0451 18.9389L19.6406 18.645L20.0451 18.9389ZM18.9389 20.0451L18.645 19.6406L18.9389 20.0451ZM18.9389 3.95491L18.645 4.35942L18.9389 3.95491ZM20.0451 5.06107L19.6406 5.35497L20.0451 5.06107ZM5.06107 3.95491L5.35497 4.35942L5.06107 3.95491ZM3.95491 5.06107L4.35942 5.35497L3.95491 5.06107ZM12 20.5C10.114 20.5 8.73966 20.4993 7.67112 20.3835C6.61193 20.2688 5.91269 20.0458 5.35497 19.6406L4.76718 20.4496C5.52378 20.9993 6.41914 21.2538 7.5634 21.3777C8.69831 21.5007 10.1363 21.5 12 21.5V20.5ZM2.5 12C2.5 13.8637 2.49931 15.3017 2.62227 16.4366C2.74625 17.5809 3.0007 18.4762 3.55041 19.2328L4.35942 18.645C3.95421 18.0873 3.73121 17.3881 3.61646 16.3289C3.50069 15.2603 3.5 13.886 3.5 12H2.5ZM5.35497 19.6406C4.97294 19.363 4.63698 19.0271 4.35942 18.645L3.55041 19.2328C3.88964 19.6997 4.30026 20.1104 4.76718 20.4496L5.35497 19.6406ZM20.5 12C20.5 13.886 20.4993 15.2603 20.3835 16.3289C20.2688 17.3881 20.0458 18.0873 19.6406 18.645L20.4496 19.2328C20.9993 18.4762 21.2538 17.5809 21.3777 16.4366C21.5007 15.3017 21.5 13.8637 21.5 12H20.5ZM12 21.5C13.8637 21.5 15.3017 21.5007 16.4366 21.3777C17.5809 21.2538 18.4762 20.9993 19.2328 20.4496L18.645 19.6406C18.0873 20.0458 17.3881 20.2688 16.3289 20.3835C15.2603 20.4993 13.886 20.5 12 20.5V21.5ZM19.6406 18.645C19.363 19.0271 19.0271 19.363 18.645 19.6406L19.2328 20.4496C19.6997 20.1104 20.1104 19.6997 20.4496 19.2328L19.6406 18.645ZM12 3.5C13.886 3.5 15.2603 3.50069 16.3289 3.61646C17.3881 3.73121 18.0873 3.95421 18.645 4.35942L19.2328 3.55041C18.4762 3.0007 17.5809 2.74625 16.4366 2.62227C15.3017 2.49931 13.8637 2.5 12 2.5V3.5ZM21.5 12C21.5 10.1363 21.5007 8.69831 21.3777 7.5634C21.2538 6.41914 20.9993 5.52378 20.4496 4.76718L19.6406 5.35497C20.0458 5.91269 20.2688 6.61193 20.3835 7.67112C20.4993 8.73966 20.5 10.114 20.5 12H21.5ZM18.645 4.35942C19.0271 4.63698 19.363 4.97294 19.6406 5.35497L20.4496 4.76718C20.1104 4.30026 19.6997 3.88964 19.2328 3.55041L18.645 4.35942ZM12 2.5C10.1363 2.5 8.69831 2.49931 7.5634 2.62227C6.41914 2.74625 5.52378 3.0007 4.76718 3.55041L5.35497 4.35942C5.91269 3.95421 6.61193 3.73121 7.67112 3.61646C8.73966 3.50069 10.114 3.5 12 3.5V2.5ZM3.5 12C3.5 10.114 3.50069 8.73966 3.61646 7.67112C3.73121 6.61193 3.95421 5.91269 4.35942 5.35497L3.55041 4.76718C3.0007 5.52378 2.74625 6.41914 2.62227 7.5634C2.49931 8.69831 2.5 10.1363 2.5 12H3.5ZM4.76718 3.55041C4.30026 3.88964 3.88964 4.30026 3.55041 4.76718L4.35942 5.35497C4.63698 4.97294 4.97294 4.63698 5.35497 4.35942L4.76718 3.55041Z"/>
        <path d="M4.72361 4.55279C4.893 4.214 5.23926 4 5.61803 4H18.382C18.7607 4 19.107 4.214 19.2764 4.55279L20.5 7H3.5L4.72361 4.55279Z"  stroke-linecap="round"/>
        <g fill="transparent">
            <path d="M10.3345 19L10.3345 9M13.6678 19L13.6678 9" stroke-linecap="round"/>
            <path d="M17 15.6667L7 15.6667M17 12.3334L7 12.3334" stroke-linecap="round"/>
        </g>
    </symbol>
    <symbol id="like" viewBox="0 0 24 24">
        <g fill="transparent">
            <path d="M3 6.35286C3 5.5813 3.62547 4.95583 4.39702 4.95583C5.16858 4.95583 5.79405 5.5813 5.79405 6.35286V10.8233C5.79405 11.5949 5.16858 12.2204 4.39702 12.2204C3.62547 12.2204 3 11.5949 3 10.8233V6.35286Z"/>
            <path d="M7.79202 3.38555L6.54558 5.41102C6.21092 5.95484 6.0436 6.22675 5.94242 6.52472C5.91155 6.61561 5.88539 6.70803 5.86404 6.80161C5.79405 7.10841 5.79405 7.42768 5.79405 8.06622V9.98512C5.79405 11.2196 6.7948 12.2204 8.02929 12.2204H9.65533C10.7136 12.2204 11.6811 11.6224 12.1544 10.6758L12.7962 9.39224C13.4302 8.12421 12.5081 6.63226 11.0904 6.63226H10.705C9.73883 6.63226 8.99999 5.77106 9.14691 4.81613L9.28272 3.93334C9.35822 3.44258 8.97852 3 8.48199 3C8.20066 3 7.93947 3.14595 7.79202 3.38555Z" />
            <path d="M21 17.647C21 18.4186 20.3745 19.0441 19.603 19.0441C18.8314 19.0441 18.206 18.4186 18.206 17.647V13.1766C18.206 12.405 18.8314 11.7795 19.603 11.7795C20.3745 11.7795 21 12.405 21 13.1766V17.647Z" />
            <path d="M16.208 20.6143L17.4544 18.5889C17.7891 18.0451 17.9564 17.7732 18.0576 17.4752C18.0884 17.3843 18.1146 17.2919 18.136 17.1983C18.206 16.8915 18.206 16.5722 18.206 15.9337V14.0148C18.206 12.7803 17.2052 11.7795 15.9707 11.7795H14.3447C13.2864 11.7795 12.3189 12.3775 11.8456 13.3241L11.2038 14.6077C10.5698 15.8757 11.4919 17.3676 12.9096 17.3676H13.295C14.2612 17.3676 15 18.2288 14.8531 19.1838L14.7173 20.0666C14.6418 20.5573 15.0215 20.9999 15.518 20.9999C15.7993 20.9999 16.0605 20.8539 16.208 20.6143Z" />
        </g>
    </symbol>
    <symbol id="star" viewBox="0 0 24 24">
        <path fill="transparent" d="M8.54862 4.50736C9.63488 1.16422 14.3645 1.16422 15.4508 4.50736C15.9366 6.00245 17.3298 7.01471 18.9019 7.01471C22.417 7.01471 23.8786 11.5129 21.0347 13.579C19.7629 14.5031 19.2308 16.1409 19.7165 17.636C20.8028 20.9792 16.9764 23.7592 14.1326 21.693C12.8608 20.769 11.1386 20.769 9.86682 21.693C7.02297 23.7592 3.19661 20.9792 4.28286 17.636C4.76865 16.1409 4.23647 14.5031 2.96466 13.579C0.12082 11.5129 1.58236 7.01471 5.09755 7.01471C6.66959 7.01471 8.06284 6.00245 8.54862 4.50736Z"/>
    </symbol>
    <symbol id="text-5" viewBox="0 0 24 24">
        <path stroke="transparent" d="M5.06107 20.0451L5.35497 19.6406L5.06107 20.0451ZM3.95491 18.9389L4.35942 18.645L3.95491 18.9389ZM20.0451 18.9389L19.6406 18.645L20.0451 18.9389ZM18.9389 20.0451L18.645 19.6406L18.9389 20.0451ZM18.9389 3.95491L18.645 4.35942L18.9389 3.95491ZM20.0451 5.06107L19.6406 5.35497L20.0451 5.06107ZM5.06107 3.95491L5.35497 4.35942L5.06107 3.95491ZM3.95491 5.06107L4.35942 5.35497L3.95491 5.06107ZM12 20.5C10.114 20.5 8.73966 20.4993 7.67112 20.3835C6.61193 20.2688 5.91269 20.0458 5.35497 19.6406L4.76718 20.4496C5.52378 20.9993 6.41914 21.2538 7.5634 21.3777C8.69831 21.5007 10.1363 21.5 12 21.5V20.5ZM2.5 12C2.5 13.8637 2.49931 15.3017 2.62227 16.4366C2.74625 17.5809 3.0007 18.4762 3.55041 19.2328L4.35942 18.645C3.95421 18.0873 3.73121 17.3881 3.61646 16.3289C3.50069 15.2603 3.5 13.886 3.5 12H2.5ZM5.35497 19.6406C4.97294 19.363 4.63698 19.0271 4.35942 18.645L3.55041 19.2328C3.88964 19.6997 4.30026 20.1104 4.76718 20.4496L5.35497 19.6406ZM20.5 12C20.5 13.886 20.4993 15.2603 20.3835 16.3289C20.2688 17.3881 20.0458 18.0873 19.6406 18.645L20.4496 19.2328C20.9993 18.4762 21.2538 17.5809 21.3777 16.4366C21.5007 15.3017 21.5 13.8637 21.5 12H20.5ZM12 21.5C13.8637 21.5 15.3017 21.5007 16.4366 21.3777C17.5809 21.2538 18.4762 20.9993 19.2328 20.4496L18.645 19.6406C18.0873 20.0458 17.3881 20.2688 16.3289 20.3835C15.2603 20.4993 13.886 20.5 12 20.5V21.5ZM19.6406 18.645C19.363 19.0271 19.0271 19.363 18.645 19.6406L19.2328 20.4496C19.6997 20.1104 20.1104 19.6997 20.4496 19.2328L19.6406 18.645ZM12 3.5C13.886 3.5 15.2603 3.50069 16.3289 3.61646C17.3881 3.73121 18.0873 3.95421 18.645 4.35942L19.2328 3.55041C18.4762 3.0007 17.5809 2.74625 16.4366 2.62227C15.3017 2.49931 13.8637 2.5 12 2.5V3.5ZM21.5 12C21.5 10.1363 21.5007 8.69831 21.3777 7.5634C21.2538 6.41914 20.9993 5.52378 20.4496 4.76718L19.6406 5.35497C20.0458 5.91269 20.2688 6.61193 20.3835 7.67112C20.4993 8.73966 20.5 10.114 20.5 12H21.5ZM18.645 4.35942C19.0271 4.63698 19.363 4.97294 19.6406 5.35497L20.4496 4.76718C20.1104 4.30026 19.6997 3.88964 19.2328 3.55041L18.645 4.35942ZM12 2.5C10.1363 2.5 8.69831 2.49931 7.5634 2.62227C6.41914 2.74625 5.52378 3.0007 4.76718 3.55041L5.35497 4.35942C5.91269 3.95421 6.61193 3.73121 7.67112 3.61646C8.73966 3.50069 10.114 3.5 12 3.5V2.5ZM3.5 12C3.5 10.114 3.50069 8.73966 3.61646 7.67112C3.73121 6.61193 3.95421 5.91269 4.35942 5.35497L3.55041 4.76718C3.0007 5.52378 2.74625 6.41914 2.62227 7.5634C2.49931 8.69831 2.5 10.1363 2.5 12H3.5ZM4.76718 3.55041C4.30026 3.88964 3.88964 4.30026 3.55041 4.76718L4.35942 5.35497C4.63698 4.97294 4.97294 4.63698 5.35497 4.35942L4.76718 3.55041Z"/>
        <g fill="transparent">
            <path d="M5 8H19" stroke-linecap="round"/>
            <path d="M5 16H11" stroke-linecap="round"/>
            <path d="M5 11C5 10.4477 5.44772 10 6 10H18C18.5523 10 19 10.4477 19 11V13C19 13.5523 18.5523 14 18 14H6C5.44772 14 5 13.5523 5 13V11Z" stroke-linecap="round"/>
        </g>
    </symbol>
    <symbol id="like-2" viewBox="0 0 24 24">
        <g fill="transparent">
            <path d="M3 10C3 8.61929 4.11929 7.5 5.5 7.5C6.88071 7.5 8 8.61929 8 10V18C8 19.3807 6.88071 20.5 5.5 20.5C4.11929 20.5 3 19.3807 3 18V10Z" stroke-width="1.5"/>
            <path d="M11.5754 4.68995L9.34488 8.31457C8.74601 9.28774 8.44657 9.77432 8.26551 10.3075C8.21028 10.4702 8.16347 10.6356 8.12526 10.8031C8 11.3521 8 11.9234 8 13.0661V16.5C8 18.7091 9.79086 20.5 12 20.5H14.9098C16.8037 20.5 18.535 19.43 19.382 17.7361L20.5305 15.439C21.6651 13.1699 20.015 10.5 17.478 10.5H16.7882C15.0593 10.5 13.7371 8.95887 14 7.25L14.243 5.67022C14.3782 4.79201 13.6987 4 12.8101 4C12.3067 4 11.8393 4.26118 11.5754 4.68995Z" stroke-width="1.5"/>

        </g>
    </symbol>
    <symbol id="stop-circle" viewBox="0 0 24 24">
        <path stroke="transparent" d="M10.2235 15.8978L10.353 15.4148L10.2235 15.8978ZM8.10222 13.7765L8.58519 13.647L8.10222 13.7765ZM15.8978 13.7765L15.4148 13.647L15.8978 13.7765ZM13.7765 15.8978L13.647 15.4148L13.7765 15.8978ZM13.7765 8.10222L13.647 8.58519L13.7765 8.10222ZM15.8978 10.2235L15.4148 10.353L15.8978 10.2235ZM10.2235 8.10222L10.353 8.58519L10.2235 8.10222ZM8.10222 10.2235L8.58519 10.353L8.10222 10.2235ZM21.5 12C21.5 17.2467 17.2467 21.5 12 21.5V22.5C17.799 22.5 22.5 17.799 22.5 12H21.5ZM12 21.5C6.75329 21.5 2.5 17.2467 2.5 12H1.5C1.5 17.799 6.20101 22.5 12 22.5V21.5ZM2.5 12C2.5 6.75329 6.75329 2.5 12 2.5V1.5C6.20101 1.5 1.5 6.20101 1.5 12H2.5ZM12 2.5C17.2467 2.5 21.5 6.75329 21.5 12H22.5C22.5 6.20101 17.799 1.5 12 1.5V2.5ZM12 15.5C11.0378 15.5 10.6548 15.4957 10.353 15.4148L10.0941 16.3807C10.5552 16.5043 11.1022 16.5 12 16.5V15.5ZM7.5 12C7.5 12.8978 7.49571 13.4448 7.61926 13.9059L8.58519 13.647C8.50429 13.3452 8.5 12.9622 8.5 12H7.5ZM10.353 15.4148C9.49022 15.1836 8.81635 14.5098 8.58519 13.647L7.61926 13.9059C7.94289 15.1137 8.88631 16.0571 10.0941 16.3807L10.353 15.4148ZM15.5 12C15.5 12.9622 15.4957 13.3452 15.4148 13.647L16.3807 13.9059C16.5043 13.4448 16.5 12.8978 16.5 12H15.5ZM12 16.5C12.8978 16.5 13.4448 16.5043 13.9059 16.3807L13.647 15.4148C13.3452 15.4957 12.9622 15.5 12 15.5V16.5ZM15.4148 13.647C15.1836 14.5098 14.5098 15.1836 13.647 15.4148L13.9059 16.3807C15.1137 16.0571 16.0571 15.1137 16.3807 13.9059L15.4148 13.647ZM12 8.5C12.9622 8.5 13.3452 8.50429 13.647 8.58519L13.9059 7.61926C13.4448 7.49571 12.8978 7.5 12 7.5V8.5ZM16.5 12C16.5 11.1022 16.5043 10.5552 16.3807 10.0941L15.4148 10.353C15.4957 10.6548 15.5 11.0378 15.5 12H16.5ZM13.647 8.58519C14.5098 8.81635 15.1836 9.49022 15.4148 10.353L16.3807 10.0941C16.0571 8.88631 15.1137 7.94289 13.9059 7.61926L13.647 8.58519ZM12 7.5C11.1022 7.5 10.5552 7.49571 10.0941 7.61926L10.353 8.58519C10.6548 8.50429 11.0378 8.5 12 8.5V7.5ZM8.5 12C8.5 11.0378 8.50429 10.6548 8.58519 10.353L7.61926 10.0941C7.49571 10.5552 7.5 11.1022 7.5 12H8.5ZM10.0941 7.61926C8.88631 7.94289 7.94289 8.88631 7.61926 10.0941L8.58519 10.353C8.81635 9.49022 9.49022 8.81635 10.353 8.58519L10.0941 7.61926Z" />

    </symbol>
    <symbol id="fb-o" viewBox="0 0 24 24">
        <path stroke="transparent" d="M11.9998 0C8.98982 0.0249261 6.0991 1.18583 3.9009 3.25247C1.7027 5.31912 0.357588 8.14057 0.132308 11.1573C-0.0929706 14.174 0.818043 17.1656 2.68468 19.5389C4.55132 21.9121 7.23724 23.4937 10.2098 23.9699V15.2563H7.20978V12.0603H10.2098V9.9799C10.2098 6.48241 11.8998 4.95477 14.7898 4.95477C15.6124 4.94241 16.4348 4.9928 17.2498 5.10553V7.86935H15.2498C14.0198 7.86935 13.5898 9.03518 13.5898 10.3518V12.0603H17.1898L16.6998 15.2261H13.6198V23.9699C16.5809 23.4992 19.2595 21.9317 21.1283 19.5758C22.9972 17.2199 23.9209 14.2463 23.7177 11.2403C23.5146 8.23424 22.1992 5.4135 20.0306 3.33324C17.8619 1.25298 14.997 0.0638867 11.9998 0Z"/>

    </symbol>
    <symbol id="google-advertisement" viewBox="0 0 24 24">
        <g stroke="transparent">
            <path opacity="0.5" d="M15.4654 6.68219C16.5765 4.57126 15.9171 1.87202 13.9925 0.65327C12.068 -0.565477 9.60705 0.157782 8.4959 2.26871L0.540002 17.3831C-0.571147 19.4941 0.0882574 22.1933 2.01282 23.412C3.93739 24.6308 6.39832 23.9075 7.50947 21.7966L15.4654 6.68219Z" />
            <path d="M15.5082 2.20363C14.3971 0.0926966 11.9362 -0.630562 10.0116 0.588185C8.08702 1.80693 7.42762 4.50617 8.53877 6.6171L16.4947 21.7315C17.6058 23.8424 20.0667 24.5657 21.9913 23.347C23.9159 22.1282 24.5753 19.429 23.4641 17.318L15.5082 2.20363Z" />
            <path d="M4.07958 23.9996C6.33268 23.9996 8.15917 21.9962 8.15917 19.5249C8.15917 17.0537 6.33268 15.0503 4.07958 15.0503C1.82649 15.0503 0 17.0537 0 19.5249C0 21.9962 1.82649 23.9996 4.07958 23.9996Z"/>
        </g>
    </symbol>
    <symbol id="display" viewBox="0 0 24 24">
        <path stroke="transparent" d="M3.73005 6.54497L3.95704 6.99047L3.73005 6.54497ZM1.54497 8.73005L1.99047 8.95704L1.54497 8.73005ZM22.455 8.73005L22.0095 8.95704L22.455 8.73005ZM20.27 6.54497L20.043 6.99047L20.27 6.54497ZM20.27 21.455L20.043 21.0095L20.27 21.455ZM22.455 19.27L22.0095 19.043L22.455 19.27ZM3.73005 21.455L3.95704 21.0095L3.73005 21.455ZM1.54497 19.27L1.99047 19.043L1.54497 19.27ZM8.45825 6.20114C8.34778 6.45422 8.05306 6.56983 7.79998 6.45936C7.54689 6.34889 7.43128 6.05417 7.54175 5.80109L8.45825 6.20114ZM16.446 5.27393C16.5708 5.52024 16.4724 5.82112 16.2261 5.94597C15.9798 6.07083 15.6789 5.97237 15.554 5.72607L16.446 5.27393ZM15.533 4.57874L15.979 4.35267L15.533 4.57874ZM9 21.5H15V22.5H9V21.5ZM15 6.5H9V5.5H15V6.5ZM9 6.5C7.59162 6.5 6.5654 6.50039 5.75673 6.56646C4.95389 6.63206 4.40959 6.75989 3.95704 6.99047L3.50305 6.09946C4.12007 5.78508 4.81061 5.64043 5.67529 5.56978C6.53414 5.49961 7.60812 5.5 9 5.5V6.5ZM0.5 14C0.5 12.6081 0.499611 11.5341 0.569781 10.6753C0.640429 9.81061 0.78508 9.12007 1.09946 8.50305L1.99047 8.95704C1.75989 9.40959 1.63205 9.95389 1.56646 10.7567C1.50039 11.5654 1.5 12.5916 1.5 14H0.5ZM3.95704 6.99047C3.11031 7.4219 2.4219 8.11031 1.99047 8.95704L1.09946 8.50305C1.62677 7.46816 2.46816 6.62677 3.50305 6.09946L3.95704 6.99047ZM22.5 14C22.5 12.5916 22.4996 11.5654 22.4335 10.7567C22.3679 9.95389 22.2401 9.40959 22.0095 8.95704L22.9005 8.50305C23.2149 9.12007 23.3596 9.81061 23.4302 10.6753C23.5004 11.5341 23.5 12.6081 23.5 14H22.5ZM15 5.5C16.3919 5.5 17.4659 5.49961 18.3247 5.56978C19.1894 5.64043 19.8799 5.78508 20.4969 6.09946L20.043 6.99047C19.5904 6.75989 19.0461 6.63206 18.2433 6.56646C17.4346 6.50039 16.4084 6.5 15 6.5V5.5ZM22.0095 8.95704C21.5781 8.11031 20.8897 7.4219 20.043 6.99047L20.4969 6.09946C21.5318 6.62677 22.3732 7.46816 22.9005 8.50305L22.0095 8.95704ZM15 21.5C16.4084 21.5 17.4346 21.4996 18.2433 21.4335C19.0461 21.3679 19.5904 21.2401 20.043 21.0095L20.4969 21.9005C19.8799 22.2149 19.1894 22.3596 18.3247 22.4302C17.4659 22.5004 16.3919 22.5 15 22.5V21.5ZM23.5 14C23.5 15.3919 23.5004 16.4659 23.4302 17.3247C23.3596 18.1894 23.2149 18.8799 22.9005 19.4969L22.0095 19.043C22.2401 18.5904 22.3679 18.0461 22.4335 17.2433C22.4996 16.4346 22.5 15.4084 22.5 14H23.5ZM20.043 21.0095C20.8897 20.5781 21.5781 19.8897 22.0095 19.043L22.9005 19.4969C22.3732 20.5318 21.5318 21.3732 20.4969 21.9005L20.043 21.0095ZM9 22.5C7.60812 22.5 6.53414 22.5004 5.67529 22.4302C4.81061 22.3596 4.12007 22.2149 3.50305 21.9005L3.95704 21.0095C4.40959 21.2401 4.95389 21.3679 5.75673 21.4335C6.5654 21.4996 7.59162 21.5 9 21.5V22.5ZM1.5 14C1.5 15.4084 1.50039 16.4346 1.56646 17.2433C1.63205 18.0461 1.75989 18.5904 1.99047 19.043L1.09946 19.4969C0.78508 18.8799 0.640429 18.1894 0.569781 17.3247C0.499611 16.4659 0.5 15.3919 0.5 14H1.5ZM3.50305 21.9005C2.46816 21.3732 1.62677 20.5318 1.09946 19.4969L1.99047 19.043C2.4219 19.8897 3.11031 20.5781 3.95704 21.0095L3.50305 21.9005ZM7.54175 5.80109L8.13637 4.43885L9.05286 4.83889L8.45825 6.20114L7.54175 5.80109ZM15.979 4.35267L16.446 5.27393L15.554 5.72607L15.087 4.80481L15.979 4.35267ZM15.087 4.80481C14.5527 3.75077 13.3174 3.19224 12 3.19224V2.19224C13.5489 2.19224 15.2173 2.85011 15.979 4.35267L15.087 4.80481ZM8.13637 4.43885C8.80729 2.90178 10.4603 2.19224 12 2.19224V3.19224C10.7114 3.19224 9.51339 3.78384 9.05286 4.83889L8.13637 4.43885Z"/>

    </symbol>
    <symbol id="notification" viewBox="0 0 24 24">
        <path fill="transparent" d="M15.1831 2.61489C14.4812 2.22405 13.671 2 12.8029 2H11.0999C8.15552 2 5.87737 4.58064 6.24258 7.50234L6.32194 8.13719C6.46808 9.30631 6.04102 10.4741 5.17514 11.2731C3.99242 12.3645 3.66383 14.1016 4.36619 15.5496L4.46954 15.7627C5.13331 17.1311 6.52054 18 8.04144 18H16.2623C17.5656 18 18.7785 17.3342 19.4783 16.2347C20.4661 14.6826 20.2045 12.6465 18.8564 11.3945L18.8125 11.3538C18.3991 10.9698 18.0805 10.5067 17.8697 10C17.7836 9.79308 17.7154 9.5789 17.6662 9.35988M9.18317 21L9.48317 21.4C10.8332 23.2 13.5332 23.2 14.8832 21.4L15.1832 21" stroke-linecap="round"/>
        <path stroke="transparent" d="M19.1831 6C19.1831 7.10457 18.2877 8 17.1831 8C16.0785 8 15.1831 7.10457 15.1831 6C15.1831 4.89543 16.0785 4 17.1831 4C18.2877 4 19.1831 4.89543 19.1831 6Z" />

    </symbol>
    <symbol id="home" viewBox="0 0 24 24">
        <path fill="transparent" d="M8.00001 22.4063C9.00322 22.5279 10.2763 22.5279 12 22.5279C13.7237 22.5279 14.9968 22.5279 16 22.4063M8.00001 22.4063C7.08473 22.2955 6.39406 22.0834 5.79064 21.678C5.68918 21.6098 5.59025 21.5379 5.49405 21.4625C4.2949 20.5222 3.78559 18.9547 2.76696 15.8197C1.74832 12.6846 1.23901 11.1171 1.65645 9.65157C1.68994 9.534 1.72773 9.41771 1.76974 9.30291C2.29344 7.87189 3.62685 6.90311 6.29367 4.96556C8.96048 3.028 10.2939 2.05923 11.8167 2.00336C11.9389 1.99888 12.0611 1.99888 12.1833 2.00336C13.7061 2.05923 15.0395 3.028 17.7063 4.96556C20.3732 6.90311 21.7066 7.87189 22.2303 9.30291C22.2723 9.41771 22.3101 9.534 22.3436 9.65157C22.761 11.1171 22.2517 12.6846 21.2331 15.8197C20.2144 18.9547 19.7051 20.5222 18.506 21.4625C18.4098 21.5379 18.3108 21.6098 18.2094 21.678C17.606 22.0834 16.9153 22.2955 16 22.4063M8.00001 22.4063V22.3197V18.8197C8.00001 16.6105 9.79087 14.8197 12 14.8197C14.2091 14.8197 16 16.6105 16 18.8197V22.3197V22.4063"/>

    </symbol>
    <symbol id="dollar-circle" viewBox="0 0 24 24">
        <path stroke="transparent" d="M11.5 19C11.5 19.2761 11.7239 19.5 12 19.5C12.2761 19.5 12.5 19.2761 12.5 19H11.5ZM12.5 5C12.5 4.72386 12.2761 4.5 12 4.5C11.7239 4.5 11.5 4.72386 11.5 5H12.5ZM14.6542 8.32675C14.7923 8.5659 15.0981 8.64783 15.3372 8.50976C15.5764 8.37169 15.6583 8.0659 15.5203 7.82675L14.6542 8.32675ZM14.7117 7.42625L14.2787 7.67625V7.67625L14.7117 7.42625ZM11.1301 11.68L11.3027 11.2107L11.3027 11.2107L11.1301 11.68ZM12.8702 12.32L13.0428 11.8508L13.0427 11.8508L12.8702 12.32ZM9.28853 16.5738L8.85552 16.8238H8.85552L9.28853 16.5738ZM9.34598 15.6733C9.20791 15.4341 8.90212 15.3522 8.66297 15.4902C8.42382 15.6283 8.34189 15.9341 8.47996 16.1733L9.34598 15.6733ZM13.3279 17.6561L13.0779 17.2231L13.3279 17.6561ZM10.6723 6.34391L10.9223 6.77693L10.6723 6.34391ZM21.5 12C21.5 17.2467 17.2467 21.5 12 21.5V22.5C17.799 22.5 22.5 17.799 22.5 12H21.5ZM12 21.5C6.75329 21.5 2.5 17.2467 2.5 12H1.5C1.5 17.799 6.20101 22.5 12 22.5V21.5ZM2.5 12C2.5 6.75329 6.75329 2.5 12 2.5V1.5C6.20101 1.5 1.5 6.20101 1.5 12H2.5ZM12 2.5C17.2467 2.5 21.5 6.75329 21.5 12H22.5C22.5 6.20101 17.799 1.5 12 1.5V2.5ZM15.5203 7.82675L15.1447 7.17625L14.2787 7.67625L14.6542 8.32675L15.5203 7.82675ZM9.72155 16.3238L9.34598 15.6733L8.47996 16.1733L8.85552 16.8238L9.72155 16.3238ZM12.6976 12.7893C14.6526 13.5084 14.8819 16.1815 13.0779 17.2231L13.5779 18.0891C16.1162 16.6236 15.7936 12.8626 13.0428 11.8508L12.6976 12.7893ZM10.4223 5.9109C7.88404 7.37639 8.20666 11.1375 10.9575 12.1492L11.3027 11.2107C9.34758 10.4916 9.11829 7.8185 10.9223 6.77693L10.4223 5.9109ZM12.5 19V18.049H11.5V19H12.5ZM12.5 18.049V12H11.5V18.049H12.5ZM13.0779 17.2231C12.7282 17.425 12.3508 17.5308 11.9749 17.5497L12.0251 18.5484C12.5556 18.5218 13.0877 18.3721 13.5779 18.0891L13.0779 17.2231ZM11.9749 17.5497C11.082 17.5945 10.1982 17.1493 9.72155 16.3238L8.85552 16.8238C9.52704 17.9869 10.772 18.6113 12.0251 18.5484L11.9749 17.5497ZM10.9574 12.1492L11.8274 12.4693L12.1726 11.5307L11.3027 11.2107L10.9574 12.1492ZM11.8274 12.4693L12.6976 12.7893L13.0427 11.8508L12.1726 11.5307L11.8274 12.4693ZM12.5 12L12.5 5.95097H11.5L11.5 12H12.5ZM12.5 5.95097V5H11.5V5.95097H12.5ZM15.1447 7.17625C14.4731 6.01307 13.228 5.38863 11.9749 5.4516L12.0251 6.45034C12.9181 6.40547 13.802 6.85061 14.2787 7.67625L15.1447 7.17625ZM11.9749 5.4516C11.4445 5.47826 10.9125 5.62793 10.4223 5.9109L10.9223 6.77693C11.272 6.57504 11.6493 6.46923 12.0251 6.45034L11.9749 5.4516Z"/>

    </symbol>
    <symbol id="text-6" viewBox="0 0 24 24">
        <path stroke="transparent" d="M5.06107 20.0451L5.35497 19.6406L5.06107 20.0451ZM3.95491 18.9389L4.35942 18.645L3.95491 18.9389ZM20.0451 18.9389L19.6406 18.645L20.0451 18.9389ZM18.9389 20.0451L18.645 19.6406L18.9389 20.0451ZM18.9389 3.95491L18.645 4.35942L18.9389 3.95491ZM20.0451 5.06107L19.6406 5.35497L20.0451 5.06107ZM5.06107 3.95491L5.35497 4.35942L5.06107 3.95491ZM3.95491 5.06107L4.35942 5.35497L3.95491 5.06107ZM12 20.5C10.114 20.5 8.73966 20.4993 7.67112 20.3835C6.61193 20.2688 5.91269 20.0458 5.35497 19.6406L4.76718 20.4496C5.52378 20.9993 6.41914 21.2538 7.5634 21.3777C8.69831 21.5007 10.1363 21.5 12 21.5V20.5ZM2.5 12C2.5 13.8637 2.49931 15.3017 2.62227 16.4366C2.74625 17.5809 3.0007 18.4762 3.55041 19.2328L4.35942 18.645C3.95421 18.0873 3.73121 17.3881 3.61646 16.3289C3.50069 15.2603 3.5 13.886 3.5 12H2.5ZM5.35497 19.6406C4.97294 19.363 4.63698 19.0271 4.35942 18.645L3.55041 19.2328C3.88964 19.6997 4.30026 20.1104 4.76718 20.4496L5.35497 19.6406ZM20.5 12C20.5 13.886 20.4993 15.2603 20.3835 16.3289C20.2688 17.3881 20.0458 18.0873 19.6406 18.645L20.4496 19.2328C20.9993 18.4762 21.2538 17.5809 21.3777 16.4366C21.5007 15.3017 21.5 13.8637 21.5 12H20.5ZM12 21.5C13.8637 21.5 15.3017 21.5007 16.4366 21.3777C17.5809 21.2538 18.4762 20.9993 19.2328 20.4496L18.645 19.6406C18.0873 20.0458 17.3881 20.2688 16.3289 20.3835C15.2603 20.4993 13.886 20.5 12 20.5V21.5ZM19.6406 18.645C19.363 19.0271 19.0271 19.363 18.645 19.6406L19.2328 20.4496C19.6997 20.1104 20.1104 19.6997 20.4496 19.2328L19.6406 18.645ZM12 3.5C13.886 3.5 15.2603 3.50069 16.3289 3.61646C17.3881 3.73121 18.0873 3.95421 18.645 4.35942L19.2328 3.55041C18.4762 3.0007 17.5809 2.74625 16.4366 2.62227C15.3017 2.49931 13.8637 2.5 12 2.5V3.5ZM21.5 12C21.5 10.1363 21.5007 8.69831 21.3777 7.5634C21.2538 6.41914 20.9993 5.52378 20.4496 4.76718L19.6406 5.35497C20.0458 5.91269 20.2688 6.61193 20.3835 7.67112C20.4993 8.73966 20.5 10.114 20.5 12H21.5ZM18.645 4.35942C19.0271 4.63698 19.363 4.97294 19.6406 5.35497L20.4496 4.76718C20.1104 4.30026 19.6997 3.88964 19.2328 3.55041L18.645 4.35942ZM12 2.5C10.1363 2.5 8.69831 2.49931 7.5634 2.62227C6.41914 2.74625 5.52378 3.0007 4.76718 3.55041L5.35497 4.35942C5.91269 3.95421 6.61193 3.73121 7.67112 3.61646C8.73966 3.50069 10.114 3.5 12 3.5V2.5ZM3.5 12C3.5 10.114 3.50069 8.73966 3.61646 7.67112C3.73121 6.61193 3.95421 5.91269 4.35942 5.35497L3.55041 4.76718C3.0007 5.52378 2.74625 6.41914 2.62227 7.5634C2.49931 8.69831 2.5 10.1363 2.5 12H3.5ZM4.76718 3.55041C4.30026 3.88964 3.88964 4.30026 3.55041 4.76718L4.35942 5.35497C4.63698 4.97294 4.97294 4.63698 5.35497 4.35942L4.76718 3.55041Z"/>
        <g fill="transparent">
            <path d="M14 11H19" stroke-linecap="round"/>
            <path d="M14 13H19" stroke-linecap="round"/>
        </g>
        <path d="M5 11C5 10.4477 5.44772 10 6 10H11C11.5523 10 12 10.4477 12 11V13C12 13.5523 11.5523 14 11 14H6C5.44772 14 5 13.5523 5 13V11Z" stroke-linecap="round"/>

    </symbol>
    <symbol id="discount-circle" viewBox="0 0 24 24">
        <path fill="transparent" d="M9 15L14.6569 9.34315M22 12C22 17.5228 17.5228 22 12 22C6.47715 22 2 17.5228 2 12C2 6.47715 6.47715 2 12 2C17.5228 2 22 6.47715 22 12Z" stroke-linecap="round"/>
        <g stroke="transparent">
            <path d="M8 9C8 9.55228 8.44772 10 9 10C9.55228 10 10 9.55228 10 9C10 8.44772 9.55228 8 9 8C8.44772 8 8 8.44772 8 9Z" />
            <path d="M14 15C14 15.5523 14.4477 16 15 16C15.5523 16 16 15.5523 16 15C16 14.4477 15.5523 14 15 14C14.4477 14 14 14.4477 14 15Z" />
        </g>
    </symbol>
    <symbol id="message" viewBox="0 0 24 24">
        <path fill="transparent" d="M20.8027 4.60791C20.8027 5.71248 19.9073 6.60791 18.8027 6.60791C17.6982 6.60791 16.8027 5.71248 16.8027 4.60791C16.8027 3.50334 17.6982 2.60791 18.8027 2.60791C19.9073 2.60791 20.8027 3.50334 20.8027 4.60791Z"/>
        <g stroke="transparent">
            <path fill-rule="evenodd" clip-rule="evenodd" d="M21.9571 8.30001C21.8154 7.88072 21.2838 7.77654 20.9076 8.00977C20.6159 8.19066 20.4611 8.54976 20.5675 8.87611C21.612 12.0812 20.8609 15.7438 18.3139 18.2907C17.2759 19.3288 15.6268 20.3187 13.7847 20.7593C11.9531 21.1975 9.9864 21.082 8.23974 20.0026L8.1918 19.9729C8.0248 19.8694 7.85988 19.7672 7.71297 19.709C7.44967 19.6047 7.21619 19.5694 6.93384 19.5913C6.77672 19.6034 6.61334 19.646 6.45662 19.6868L6.4154 19.6975C5.77618 19.8632 5.33333 19.9776 4.99294 20.0418C4.64907 20.1066 4.49461 20.102 4.41337 20.0854C3.92189 19.9854 3.53779 19.6013 3.43776 19.1098C3.42123 19.0286 3.41657 18.8741 3.48141 18.5303C3.5456 18.1899 3.65997 17.747 3.82564 17.1078L3.83636 17.0666C3.87723 16.9098 3.91987 16.7462 3.93196 16.5886C3.95365 16.3059 3.91781 16.0707 3.81289 15.8072C3.75426 15.66 3.65189 15.4957 3.54848 15.3298L3.51889 15.2823C2.43299 13.535 2.29824 11.5902 2.72478 9.77531C3.15392 7.94937 4.14374 6.29798 5.23246 5.20926C7.74229 2.69942 11.3356 1.93341 14.5068 2.91121C14.8348 3.01233 15.1914 2.8516 15.3676 2.55708C15.5948 2.17727 15.4821 1.64758 15.0606 1.51261C11.3483 0.323915 7.11782 1.20258 4.1718 4.1486C2.89212 5.42827 1.75958 7.32586 1.26457 9.43213C0.766964 11.5494 0.906287 13.9201 2.24487 16.0741C2.31416 16.1856 2.35834 16.2568 2.38987 16.3106C2.41072 16.3462 2.419 16.3625 2.42094 16.3663C2.43465 16.4014 2.43669 16.4144 2.437 16.4165C2.43733 16.4186 2.43945 16.4323 2.43648 16.4722C2.43604 16.4753 2.43401 16.4883 2.42725 16.5182C2.41663 16.5652 2.40069 16.627 2.37362 16.7314L2.36676 16.7579C2.20959 17.3643 2.08207 17.8563 2.00739 18.2523C1.93228 18.6506 1.89222 19.0371 1.9679 19.409C2.18794 20.4902 3.03298 21.3352 4.11424 21.5553C4.48608 21.631 4.87261 21.5909 5.2709 21.5158C5.66689 21.4411 6.15878 21.3136 6.76511 21.1565L6.79175 21.1496C6.89614 21.1225 6.95801 21.1066 7.00502 21.0959C7.03487 21.0892 7.04796 21.0871 7.05108 21.0867C7.09256 21.0836 7.10645 21.086 7.10645 21.086C7.10645 21.086 7.12081 21.0881 7.15625 21.1019C7.16019 21.1039 7.17696 21.1123 7.21282 21.1332C7.26709 21.1649 7.33895 21.2092 7.4512 21.2786C9.61435 22.6153 12.0112 22.7259 14.1337 22.2182C16.2456 21.713 18.141 20.585 19.3746 19.3514C22.3637 16.3623 23.2246 12.0508 21.9571 8.30001ZM7.05108 21.0867L7.0494 21.0868L7.05108 21.0867Z"/>
            <path d="M8.80264 11.6078C8.80264 12.1601 8.35493 12.6078 7.80264 12.6078C7.25036 12.6078 6.80264 12.1601 6.80264 11.6078C6.80264 11.0555 7.25036 10.6078 7.80264 10.6078C8.35493 10.6078 8.80264 11.0555 8.80264 11.6078Z"/>
            <path d="M12.8026 11.6078C12.8026 12.1601 12.3549 12.6078 11.8026 12.6078C11.2504 12.6078 10.8026 12.1601 10.8026 11.6078C10.8026 11.0555 11.2504 10.6078 11.8026 10.6078C12.3549 10.6078 12.8026 11.0555 12.8026 11.6078Z"/>
            <path d="M16.8026 11.6078C16.8026 12.1601 16.3549 12.6078 15.8026 12.6078C15.2504 12.6078 14.8026 12.1601 14.8026 11.6078C14.8026 11.0555 15.2504 10.6078 15.8026 10.6078C16.3549 10.6078 16.8026 11.0555 16.8026 11.6078Z"/>
        </g>

    </symbol>
    <symbol id="send" viewBox="0 0 24 24">
        <path stroke="transparent" d="M4.58818 7.77661L5.07229 7.90167L4.58818 7.77661ZM8.08799 4.48256L8.18217 4.97361L8.08799 4.48256ZM10.1526 13.2008L10.0116 12.7211L10.1526 13.2008ZM11.2594 14.3076L10.7797 14.1665L11.2594 14.3076ZM16.6836 19.8721L16.8087 20.3562L16.6836 19.8721ZM19.9777 16.3722L20.4687 16.4664L19.9777 16.3722ZM21.7323 7.22315L21.2412 7.12898V7.12898L21.7323 7.22315ZM17.237 2.72791L17.1429 2.23686L17.237 2.72791ZM6.18198 17.5711C5.98672 17.7664 5.98672 18.083 6.18198 18.2783C6.37724 18.4735 6.69382 18.4735 6.88909 18.2783L6.18198 17.5711ZM8.3033 16.864C8.49856 16.6688 8.49856 16.3522 8.3033 16.1569C8.10804 15.9617 7.79146 15.9617 7.59619 16.1569L8.3033 16.864ZM6.88909 21.1067C6.69383 21.3019 6.69383 21.6185 6.88909 21.8138C7.08435 22.009 7.40093 22.009 7.59619 21.8138L6.88909 21.1067ZM9.01041 20.3996C9.20567 20.2043 9.20567 19.8877 9.01041 19.6925C8.81515 19.4972 8.49856 19.4972 8.3033 19.6925L9.01041 20.3996ZM2.64645 16.864C2.45118 17.0593 2.45118 17.3759 2.64645 17.5711C2.84171 17.7664 3.15829 17.7664 3.35355 17.5711L2.64645 16.864ZM4.76777 16.1569C4.96303 15.9617 4.96303 15.6451 4.76777 15.4498C4.5725 15.2546 4.25592 15.2546 4.06066 15.4498L4.76777 16.1569ZM21.2412 7.12898L19.4866 16.278L20.4687 16.4664L22.2233 7.31733L21.2412 7.12898ZM8.18217 4.97361L17.3312 3.21897L17.1429 2.23686L7.99382 3.99151L8.18217 4.97361ZM5.07229 7.90167C5.45777 6.40945 6.67163 5.26331 8.18217 4.97361L7.99382 3.99151C6.10064 4.35459 4.58543 5.78818 4.10407 7.65156L5.07229 7.90167ZM10.0116 12.7211C7.06973 13.5863 4.302 10.8835 5.07229 7.90167L4.10407 7.65156C3.14289 11.3724 6.59407 14.7685 10.2937 13.6805L10.0116 12.7211ZM11.7391 14.4486C12.0498 13.3921 11.0681 12.4104 10.0116 12.7211L10.2937 13.6805C10.5909 13.5931 10.8671 13.8693 10.7797 14.1665L11.7391 14.4486ZM16.5586 19.3879C13.5767 20.1582 10.8739 17.3905 11.7391 14.4486L10.7797 14.1665C9.69172 17.8662 13.0878 21.3174 16.8087 20.3562L16.5586 19.3879ZM19.4866 16.278C19.1969 17.7886 18.0508 19.0025 16.5586 19.3879L16.8087 20.3562C18.6721 19.8748 20.1056 18.3596 20.4687 16.4664L19.4866 16.278ZM22.2233 7.31733C22.8012 4.30427 20.1559 1.65901 17.1429 2.23686L17.3312 3.21897C19.6501 2.77424 21.686 4.81008 21.2412 7.12898L22.2233 7.31733ZM6.88909 18.2783L8.3033 16.864L7.59619 16.1569L6.18198 17.5711L6.88909 18.2783ZM7.59619 21.8138L9.01041 20.3996L8.3033 19.6925L6.88909 21.1067L7.59619 21.8138ZM3.35355 17.5711L4.76777 16.1569L4.06066 15.4498L2.64645 16.864L3.35355 17.5711Z"/>

    </symbol>
    <symbol id="send-2" viewBox="0 0 24 24">
        <path fill="transparent" d="M8.82131 5.685C10.3449 3.43834 13.6549 3.43833 15.1785 5.68499L20.4072 13.3951C21.3798 14.8293 21.4326 16.7062 20.5527 18.1991C18.7951 21.181 14.4401 21.1386 12.7825 18.0999C12.4446 17.4805 11.5552 17.4805 11.2173 18.0999C9.55975 21.1386 5.20477 21.181 3.44718 18.1991C2.56727 16.7062 2.62007 14.8293 3.59267 13.3951L8.82131 5.685Z"/>

    </symbol>
    <symbol id="profile" viewBox="0 0 24 24">
        <path stroke="transparent" d="M15.5 6C15.5 7.933 13.933 9.5 12 9.5V10.5C14.4853 10.5 16.5 8.48528 16.5 6H15.5ZM12 9.5C10.067 9.5 8.5 7.933 8.5 6H7.5C7.5 8.48528 9.51472 10.5 12 10.5V9.5ZM8.5 6C8.5 4.067 10.067 2.5 12 2.5V1.5C9.51472 1.5 7.5 3.51472 7.5 6H8.5ZM12 2.5C13.933 2.5 15.5 4.067 15.5 6H16.5C16.5 3.51472 14.4853 1.5 12 1.5V2.5ZM9 13.5H15V12.5H9V13.5ZM15 20.5H9V21.5H15V20.5ZM9 20.5C7.067 20.5 5.5 18.933 5.5 17H4.5C4.5 19.4853 6.51472 21.5 9 21.5V20.5ZM18.5 17C18.5 18.933 16.933 20.5 15 20.5V21.5C17.4853 21.5 19.5 19.4853 19.5 17H18.5ZM15 13.5C16.933 13.5 18.5 15.067 18.5 17H19.5C19.5 14.5147 17.4853 12.5 15 12.5V13.5ZM9 12.5C6.51472 12.5 4.5 14.5147 4.5 17H5.5C5.5 15.067 7.067 13.5 9 13.5V12.5Z"/>

    </symbol>
    <symbol id="edit-square" viewBox="0 0 24 24">
        <path stroke="transparent" d="M4.06107 20.2164L4.35497 19.8119H4.35497L4.06107 20.2164ZM2.95491 19.1102L2.55041 19.4041H2.55041L2.95491 19.1102ZM17.9389 20.2164L17.645 19.8119L17.9389 20.2164ZM19.0451 19.1102L18.6406 18.8163L19.0451 19.1102ZM2.95491 5.23238L2.55041 4.93849H2.55041L2.95491 5.23238ZM4.06107 4.12623L4.35497 4.53073L4.06107 4.12623ZM9.00599 3.67848C9.28212 3.67517 9.50327 3.44865 9.49996 3.17252C9.49665 2.8964 9.27013 2.67524 8.99401 2.67855L9.00599 3.67848ZM20.4928 14.1773C20.4961 13.9012 20.2749 13.6747 19.9988 13.6713C19.7227 13.668 19.4961 13.8892 19.4928 14.1653L20.4928 14.1773ZM11.7976 16.1758L11.7423 15.6788L11.7976 16.1758ZM7.67777 15.8783L7.32422 16.2318L7.32422 16.2318L7.67777 15.8783ZM7.3803 11.7585L7.87724 11.8137L7.3803 11.7585ZM8.5274 9.3718L8.17385 9.01825L8.5274 9.3718ZM7.64293 10.4157L7.19228 10.1991L7.64293 10.4157ZM14.1843 15.0287L14.5378 15.3822L14.1843 15.0287ZM13.1403 15.9131L13.3569 16.3638V16.3638L13.1403 15.9131ZM11 20.6713C9.114 20.6713 7.73966 20.6706 6.67112 20.5549C5.61193 20.4401 4.91269 20.2171 4.35497 19.8119L3.76718 20.6209C4.52379 21.1706 5.41914 21.4251 6.5634 21.549C7.69831 21.672 9.13627 21.6713 11 21.6713V20.6713ZM1.5 12.1713C1.5 14.035 1.49931 15.473 1.62227 16.6079C1.74625 17.7522 2.0007 18.6475 2.55041 19.4041L3.35942 18.8163C2.95421 18.2586 2.73121 17.5594 2.61646 16.5002C2.50069 15.4317 2.5 14.0573 2.5 12.1713H1.5ZM4.35497 19.8119C3.97294 19.5343 3.63698 19.1984 3.35942 18.8163L2.55041 19.4041C2.88964 19.871 3.30026 20.2817 3.76718 20.6209L4.35497 19.8119ZM11 21.6713C12.8637 21.6713 14.3017 21.672 15.4366 21.549C16.5809 21.4251 17.4762 21.1706 18.2328 20.6209L17.645 19.8119C17.0873 20.2171 16.3881 20.4401 15.3289 20.5549C14.2603 20.6706 12.886 20.6713 11 20.6713V21.6713ZM18.6406 18.8163C18.363 19.1984 18.0271 19.5343 17.645 19.8119L18.2328 20.6209C18.6997 20.2817 19.1104 19.8711 19.4496 19.4041L18.6406 18.8163ZM2.5 12.1713C2.5 10.2853 2.50069 8.91097 2.61646 7.84243C2.73121 6.78325 2.95421 6.084 3.35942 5.52628L2.55041 4.93849C2.0007 5.6951 1.74625 6.59045 1.62227 7.73471C1.49931 8.86962 1.5 10.3076 1.5 12.1713H2.5ZM3.76718 3.72172C3.30026 4.06096 2.88964 4.47157 2.55041 4.93849L3.35942 5.52628C3.63698 5.14425 3.97294 4.80829 4.35497 4.53073L3.76718 3.72172ZM8.99401 2.67855C6.55511 2.70779 4.97183 2.84649 3.76718 3.72172L4.35497 4.53073C5.26338 3.87073 6.51757 3.70831 9.00599 3.67848L8.99401 2.67855ZM19.4928 14.1653C19.463 16.6537 19.3006 17.9079 18.6406 18.8163L19.4496 19.4041C20.3248 18.1995 20.4635 16.6162 20.4928 14.1773L19.4928 14.1653ZM19.2025 9.3033L13.8307 14.6751L14.5378 15.3822L19.9096 10.0104L19.2025 9.3033ZM8.88096 9.72535L14.2528 4.35355L13.5457 3.64645L8.17385 9.01825L8.88096 9.72535ZM11.7423 15.6788C10.5801 15.808 9.76257 15.8976 9.14867 15.8777C8.54819 15.8583 8.24215 15.7356 8.03133 15.5247L7.32422 16.2318C7.7931 16.7007 8.40026 16.8541 9.1164 16.8772C9.81912 16.8999 10.7216 16.7984 11.8528 16.6727L11.7423 15.6788ZM6.88335 11.7033C6.75767 12.8345 6.65616 13.7369 6.67885 14.4397C6.70197 15.1558 6.85534 15.763 7.32422 16.2318L8.03133 15.5247C7.8205 15.3139 7.69772 15.0079 7.67833 14.4074C7.6585 13.7935 7.7481 12.9759 7.87724 11.8137L6.88335 11.7033ZM8.17385 9.01825C7.70667 9.48542 7.38523 9.79766 7.19228 10.1991L8.09358 10.6323C8.19572 10.4198 8.36557 10.2407 8.88096 9.72535L8.17385 9.01825ZM7.87724 11.8137C7.95773 11.0893 7.99144 10.8448 8.09358 10.6323L7.19228 10.1991C6.99933 10.6006 6.95632 11.0466 6.88335 11.7033L7.87724 11.8137ZM13.8307 14.6751C13.3153 15.1905 13.1363 15.3603 12.9237 15.4625L13.3569 16.3638C13.7584 16.1708 14.0706 15.8494 14.5378 15.3822L13.8307 14.6751ZM11.8528 16.6727C12.5094 16.5997 12.9555 16.5567 13.3569 16.3638L12.9237 15.4625C12.7112 15.5646 12.4668 15.5983 11.7423 15.6788L11.8528 16.6727ZM19.2025 4.35355C19.8792 5.03021 20.3503 5.50289 20.6585 5.90684C20.9579 6.29925 21.0561 6.56749 21.0561 6.82843H22.0561C22.0561 6.26093 21.8208 5.78163 21.4536 5.30026C21.0951 4.83044 20.5663 4.30312 19.9096 3.64645L19.2025 4.35355ZM19.9096 10.0104C20.5663 9.35373 21.0951 8.82641 21.4536 8.35659C21.8208 7.87523 22.0561 7.39592 22.0561 6.82843H21.0561C21.0561 7.08936 20.9579 7.3576 20.6585 7.75001C20.3503 8.15396 19.8792 8.62664 19.2025 9.3033L19.9096 10.0104ZM19.9096 3.64645C19.2529 2.98977 18.7256 2.46095 18.2558 2.10249C17.7744 1.73522 17.2951 1.5 16.7276 1.5V2.5C16.9886 2.5 17.2568 2.59811 17.6492 2.89751C18.0532 3.20571 18.5258 3.67689 19.2025 4.35355L19.9096 3.64645ZM14.2528 4.35355C14.9294 3.67689 15.4021 3.20571 15.806 2.89751C16.1985 2.59811 16.4667 2.5 16.7276 2.5V1.5C16.1601 1.5 15.6808 1.73522 15.1995 2.10249C14.7296 2.46095 14.2023 2.98977 13.5457 3.64645L14.2528 4.35355ZM19.9096 9.3033L14.2528 3.64645L13.5457 4.35355L19.2025 10.0104L19.9096 9.3033Z"/>

    </symbol>
    <symbol id="like-3" viewBox="0 0 24 24">
        <path stroke="transparent" d="M11.6692 18.9506L11.9598 19.3574L11.6692 18.9506ZM11.7222 18.9128L11.4342 18.5041L11.7222 18.9128ZM14.5703 18.0001L14.5735 18.5001L14.5703 18.0001ZM7.3959 19.5103L7.86014 19.6959L7.3959 19.5103ZM9.05848 20.8154L8.76786 20.4085L9.05848 20.8154ZM21.798 14.4069L22.2778 14.5475L21.798 14.4069ZM18.4069 17.798L18.5475 18.2778L18.4069 17.798ZM4.73005 2.54497L4.95704 2.99047L4.73005 2.54497ZM2.54497 4.73005L2.99047 4.95704L2.54497 4.73005ZM19.27 2.54497L19.043 2.99047L19.27 2.54497ZM21.455 4.73005L21.0095 4.95704L21.455 4.73005ZM12.8003 6.57296L13.0682 6.99518L12.8003 6.57296ZM16.1557 6.73036L16.5127 6.38028L16.1557 6.73036ZM7.84426 6.73036L8.20126 7.08043H8.20126L7.84426 6.73036ZM11.1996 6.57297L11.4675 6.15075L11.1996 6.57297ZM14 1.5H10V2.5H14V1.5ZM1.5 10V14.2283H2.5V10H1.5ZM22.5 11.1842V10H21.5V11.1842H22.5ZM5.77166 18.5H6.37341V17.5H5.77166V18.5ZM9.3491 21.2222L11.9598 19.3574L11.3786 18.5437L8.76786 20.4085L9.3491 21.2222ZM14.6354 18.5H15.1842V17.5H14.6354V18.5ZM11.9598 19.3574C11.987 19.338 11.9988 19.3296 12.0103 19.3215L11.4342 18.5041C11.4195 18.5144 11.4047 18.525 11.3786 18.5437L11.9598 19.3574ZM14.6354 17.5C14.6033 17.5 14.5851 17.5 14.5671 17.5001L14.5735 18.5001C14.5876 18.5 14.6021 18.5 14.6354 18.5V17.5ZM12.0103 19.3215C12.7609 18.7926 13.6553 18.506 14.5735 18.5001L14.5671 17.5001C13.4448 17.5073 12.3516 17.8576 11.4342 18.5041L12.0103 19.3215ZM6.37341 18.5C6.79878 18.5 7.08964 18.9296 6.93166 19.3246L7.86014 19.6959C8.28086 18.6441 7.50624 17.5 6.37341 17.5V18.5ZM6.93166 19.3246C6.33773 20.8094 8.04777 22.1518 9.3491 21.2222L8.76786 20.4085C8.27922 20.7575 7.63712 20.2535 7.86014 19.6959L6.93166 19.3246ZM21.5 11.1842C21.5 12.9085 21.4949 13.6635 21.3182 14.2662L22.2778 14.5475C22.5051 13.7724 22.5 12.8382 22.5 11.1842H21.5ZM15.1842 18.5C16.8382 18.5 17.7724 18.5051 18.5475 18.2778L18.2662 17.3182C17.6635 17.4949 16.9085 17.5 15.1842 17.5V18.5ZM21.3182 14.2662C20.887 15.7369 19.7369 16.887 18.2662 17.3182L18.5475 18.2778C20.3451 17.7507 21.7507 16.3451 22.2778 14.5475L21.3182 14.2662ZM1.5 14.2283C1.5 16.5875 3.41249 18.5 5.77166 18.5V17.5C3.96477 17.5 2.5 16.0352 2.5 14.2283H1.5ZM10 1.5C8.60812 1.5 7.53414 1.49961 6.67529 1.56978C5.81061 1.64043 5.12007 1.78508 4.50305 2.09946L4.95704 2.99047C5.40959 2.75989 5.95389 2.63205 6.75673 2.56646C7.5654 2.50039 8.59162 2.5 10 2.5V1.5ZM2.5 10C2.5 8.59162 2.50039 7.5654 2.56646 6.75673C2.63205 5.95389 2.75989 5.40959 2.99047 4.95704L2.09946 4.50305C1.78508 5.12007 1.64043 5.81061 1.56978 6.67529C1.49961 7.53414 1.5 8.60812 1.5 10H2.5ZM4.50305 2.09946C3.46816 2.62677 2.62677 3.46816 2.09946 4.50305L2.99047 4.95704C3.4219 4.11031 4.11031 3.4219 4.95704 2.99047L4.50305 2.09946ZM14 2.5C15.4084 2.5 16.4346 2.50039 17.2433 2.56646C18.0461 2.63205 18.5904 2.75989 19.043 2.99047L19.4969 2.09946C18.8799 1.78508 18.1894 1.64043 17.3247 1.56978C16.4659 1.49961 15.3919 1.5 14 1.5V2.5ZM22.5 10C22.5 8.60812 22.5004 7.53414 22.4302 6.67529C22.3596 5.81061 22.2149 5.12007 21.9005 4.50305L21.0095 4.95704C21.2401 5.40959 21.3679 5.95389 21.4335 6.75673C21.4996 7.5654 21.5 8.59162 21.5 10H22.5ZM19.043 2.99047C19.8897 3.4219 20.5781 4.11031 21.0095 4.95704L21.9005 4.50305C21.3732 3.46816 20.5318 2.62677 19.4969 2.09946L19.043 2.99047ZM13.0682 6.99518C13.4523 6.75149 13.9181 6.53954 14.3907 6.50494C14.8383 6.47217 15.3222 6.59442 15.7987 7.08043L16.5127 6.38028C15.8222 5.67609 15.0468 5.45423 14.3177 5.50761C13.6136 5.55915 12.9852 5.8636 12.5325 6.15075L13.0682 6.99518ZM15.7987 7.08043C16.37 7.66301 16.5614 8.3777 16.4835 9.16519C16.4041 9.96802 16.0427 10.837 15.5131 11.6523C14.9857 12.4645 14.3116 13.192 13.6482 13.7115C12.9631 14.2482 12.3707 14.5 12 14.5V15.5C12.7169 15.5 13.534 15.0713 14.2649 14.4988C15.0175 13.9093 15.7659 13.0991 16.3518 12.197C16.9356 11.2981 17.3785 10.2763 17.4786 9.26365C17.5803 8.23571 17.3267 7.21036 16.5127 6.38028L15.7987 7.08043ZM12 14.5C11.6293 14.5 11.0369 14.2482 10.3518 13.7115C9.68841 13.192 9.01433 12.4645 8.48687 11.6523C7.95735 10.837 7.59592 9.96802 7.51649 9.16519C7.43858 8.3777 7.62999 7.66301 8.20126 7.08043L7.48726 6.38028C6.67329 7.21037 6.41965 8.23571 6.52135 9.26365C6.62153 10.2763 7.06438 11.2981 7.64822 12.197C8.23412 13.0991 8.98251 13.9093 9.73515 14.4988C10.466 15.0713 11.2831 15.5 12 15.5V14.5ZM8.20126 7.08043C8.67783 6.59443 9.16173 6.47218 9.6093 6.50495C10.0819 6.53954 10.5477 6.7515 10.9318 6.99518L11.4675 6.15075C11.0148 5.8636 10.3864 5.55916 9.68231 5.50762C8.95317 5.45424 8.17779 5.6761 7.48726 6.38028L8.20126 7.08043ZM12.5325 6.15075C12.2232 6.34698 11.7768 6.34698 11.4675 6.15075L10.9318 6.99518C11.5682 7.39884 12.4318 7.39884 13.0682 6.99518L12.5325 6.15075Z"/>
    </symbol>
    <symbol id="document-align-bottom" viewBox="0 0 24 24">
        <path stroke="transparent" d="M5.06107 21.0451L5.35497 20.6406L5.06107 21.0451ZM3.95491 19.9389L4.35942 19.645L3.95491 19.9389ZM20.0451 19.9389L19.6406 19.645L20.0451 19.9389ZM18.9389 21.0451L18.645 20.6406L18.9389 21.0451ZM18.9389 2.95491L18.645 3.35942L18.9389 2.95491ZM20.0451 4.06107L19.6406 4.35497L20.0451 4.06107ZM5.06107 2.95491L5.35497 3.35942L5.06107 2.95491ZM3.95491 4.06107L4.35942 4.35497L3.95491 4.06107ZM8 15.5C7.72386 15.5 7.5 15.7239 7.5 16C7.5 16.2761 7.72386 16.5 8 16.5V15.5ZM16 16.5C16.2761 16.5 16.5 16.2761 16.5 16C16.5 15.7239 16.2761 15.5 16 15.5V16.5ZM20.5 11V13H21.5V11H20.5ZM3.5 13V11H2.5V13H3.5ZM12 21.5C10.114 21.5 8.73966 21.4993 7.67112 21.3835C6.61193 21.2688 5.91269 21.0458 5.35497 20.6406L4.76718 21.4496C5.52378 21.9993 6.41914 22.2538 7.5634 22.3777C8.69831 22.5007 10.1363 22.5 12 22.5V21.5ZM2.5 13C2.5 14.8637 2.49931 16.3017 2.62227 17.4366C2.74625 18.5809 3.0007 19.4762 3.55041 20.2328L4.35942 19.645C3.95421 19.0873 3.73121 18.3881 3.61646 17.3289C3.50069 16.2603 3.5 14.886 3.5 13H2.5ZM5.35497 20.6406C4.97294 20.363 4.63698 20.0271 4.35942 19.645L3.55041 20.2328C3.88964 20.6997 4.30026 21.1104 4.76718 21.4496L5.35497 20.6406ZM20.5 13C20.5 14.886 20.4993 16.2603 20.3835 17.3289C20.2688 18.3881 20.0458 19.0873 19.6406 19.645L20.4496 20.2328C20.9993 19.4762 21.2538 18.5809 21.3777 17.4366C21.5007 16.3017 21.5 14.8637 21.5 13H20.5ZM12 22.5C13.8637 22.5 15.3017 22.5007 16.4366 22.3777C17.5809 22.2538 18.4762 21.9993 19.2328 21.4496L18.645 20.6406C18.0873 21.0458 17.3881 21.2688 16.3289 21.3835C15.2603 21.4993 13.886 21.5 12 21.5V22.5ZM19.6406 19.645C19.363 20.0271 19.0271 20.363 18.645 20.6406L19.2328 21.4496C19.6997 21.1104 20.1104 20.6997 20.4496 20.2328L19.6406 19.645ZM12 2.5C13.886 2.5 15.2603 2.50069 16.3289 2.61646C17.3881 2.73121 18.0873 2.95421 18.645 3.35942L19.2328 2.55041C18.4762 2.0007 17.5809 1.74625 16.4366 1.62227C15.3017 1.49931 13.8637 1.5 12 1.5V2.5ZM21.5 11C21.5 9.13627 21.5007 7.69831 21.3777 6.5634C21.2538 5.41914 20.9993 4.52378 20.4496 3.76718L19.6406 4.35497C20.0458 4.91269 20.2688 5.61193 20.3835 6.67112C20.4993 7.73966 20.5 9.114 20.5 11H21.5ZM18.645 3.35942C19.0271 3.63698 19.363 3.97294 19.6406 4.35497L20.4496 3.76718C20.1104 3.30026 19.6997 2.88964 19.2328 2.55041L18.645 3.35942ZM12 1.5C10.1363 1.5 8.69831 1.49931 7.5634 1.62227C6.41914 1.74625 5.52378 2.0007 4.76718 2.55041L5.35497 3.35942C5.91269 2.95421 6.61193 2.73121 7.67112 2.61646C8.73966 2.50069 10.114 2.5 12 2.5V1.5ZM3.5 11C3.5 9.114 3.50069 7.73966 3.61646 6.67112C3.73121 5.61193 3.95421 4.91269 4.35942 4.35497L3.55041 3.76718C3.0007 4.52378 2.74625 5.41914 2.62227 6.5634C2.49931 7.69831 2.5 9.13627 2.5 11H3.5ZM4.76718 2.55041C4.30026 2.88964 3.88964 3.30026 3.55041 3.76718L4.35942 4.35497C4.63698 3.97294 4.97294 3.63698 5.35497 3.35942L4.76718 2.55041ZM8 16.5H16V15.5H8V16.5Z" />

    </symbol>
    <symbol id="video" viewBox="0 0 24 24">
        <path fill="transparent" d="M9 9H5M16.7941 7.71794C17 8.68294 17 9.97559 17 12C17 14.024 17 15.3166 16.7942 16.2815M16.7941 7.71794C16.7152 7.3481 16.606 7.02638 16.455 6.73005C15.9757 5.78924 15.2108 5.02433 14.27 4.54497C13.2004 4 11.8003 4 9 4C6.19974 4 4.79961 4 3.73005 4.54497C2.78924 5.02433 2.02433 5.78924 1.54497 6.73005C1 7.79961 1 9.19974 1 12C1 14.8003 1 16.2004 1.54497 17.27C2.02433 18.2108 2.78924 18.9757 3.73005 19.455C4.79961 20 6.19974 20 9 20C11.8003 20 13.2004 20 14.27 19.455C15.2108 18.9757 15.9757 18.2108 16.455 17.27C16.6061 16.9735 16.7153 16.6516 16.7942 16.2815M16.7941 7.71794L17 7.62176L17.3984 7.44768C19.9262 6.34311 21.1902 5.79083 22.0951 6.38296C23 6.97508 23 8.3544 23 11.113V12.887C23 15.6456 23 17.0249 22.0951 17.617C21.1902 18.2092 19.9262 17.6569 17.3984 16.5523L17 16.3782L16.7942 16.2815" stroke-linecap="round"/>

    </symbol>
    <symbol id="video-2" viewBox="0 0 24 24">
        <path fill="transparent" d="M16.7926 7.71101C17 8.67676 17 9.97075 17 12C17 14.0287 17 15.3225 16.7928 16.2882M16.7926 7.71101C16.7138 7.34408 16.6051 7.02453 16.455 6.73005C15.9757 5.78924 15.2108 5.02433 14.27 4.54497C13.2004 4 11.8003 4 9 4C6.19974 4 4.79961 4 3.73005 4.54497C2.78924 5.02433 2.02433 5.78924 1.54497 6.73005C1 7.79961 1 9.19974 1 12C1 14.8003 1 16.2004 1.54497 17.27C2.02433 18.2108 2.78924 18.9757 3.73005 19.455C4.79961 20 6.19974 20 9 20C11.8003 20 13.2004 20 14.27 19.455C15.2108 18.9757 15.9757 18.2108 16.455 17.27C16.6052 16.9753 16.714 16.6555 16.7928 16.2882M16.7926 7.71101L17 7.62176L17.3984 7.44768C19.9262 6.34311 21.1902 5.79083 22.0951 6.38296C23 6.97508 23 8.3544 23 11.113V12.887C23 15.6456 23 17.0249 22.0951 17.617C21.1902 18.2092 19.9262 17.6569 17.3984 16.5523L17 16.3782L16.7928 16.2882M6 12C6 10.2142 6 9.32135 6.35181 8.80519C6.65868 8.35497 7.13034 8.06469 7.64955 8.00652C8.24481 7.93983 8.97022 8.38627 10.4211 9.27915C11.8719 10.172 12.5973 10.6185 12.8407 11.2013C13.0531 11.7097 13.0531 12.2903 12.8407 12.7987C12.5973 13.3815 11.8719 13.828 10.4211 14.7208C8.97022 15.6137 8.24481 16.0602 7.64955 15.9935C7.13034 15.9353 6.65868 15.645 6.35181 15.1948C6 14.6786 6 13.7858 6 12Z"/>

    </symbol>
    <symbol id="hashtag" viewBox="0 0 24 24">
        <path stroke="transparent" d="M5.06107 20.0451L5.35497 19.6406L5.06107 20.0451ZM3.95491 18.9389L4.35942 18.645L3.95491 18.9389ZM20.0451 18.9389L19.6406 18.645L20.0451 18.9389ZM18.9389 20.0451L18.645 19.6406L18.9389 20.0451ZM18.9389 3.95491L18.645 4.35942L18.9389 3.95491ZM20.0451 5.06107L19.6406 5.35497L20.0451 5.06107ZM5.06107 3.95491L5.35497 4.35942L5.06107 3.95491ZM3.95491 5.06107L4.35942 5.35497L3.95491 5.06107ZM9.5 17C9.5 17.2761 9.72386 17.5 10 17.5C10.2761 17.5 10.5 17.2761 10.5 17H9.5ZM10.5 7C10.5 6.72386 10.2761 6.5 10 6.5C9.72386 6.5 9.5 6.72386 9.5 7H10.5ZM13.5 17C13.5 17.2761 13.7239 17.5 14 17.5C14.2761 17.5 14.5 17.2761 14.5 17H13.5ZM14.5 7C14.5 6.72386 14.2761 6.5 14 6.5C13.7239 6.5 13.5 6.72386 13.5 7H14.5ZM17 10.5C17.2761 10.5 17.5 10.2761 17.5 10C17.5 9.72386 17.2761 9.5 17 9.5V10.5ZM7 9.5C6.72386 9.5 6.5 9.72386 6.5 10C6.5 10.2761 6.72386 10.5 7 10.5V9.5ZM17 14.5C17.2761 14.5 17.5 14.2761 17.5 14C17.5 13.7239 17.2761 13.5 17 13.5V14.5ZM7 13.5C6.72386 13.5 6.5 13.7239 6.5 14C6.5 14.2761 6.72386 14.5 7 14.5V13.5ZM12 20.5C10.114 20.5 8.73966 20.4993 7.67112 20.3835C6.61193 20.2688 5.91269 20.0458 5.35497 19.6406L4.76718 20.4496C5.52378 20.9993 6.41914 21.2538 7.5634 21.3777C8.69831 21.5007 10.1363 21.5 12 21.5V20.5ZM2.5 12C2.5 13.8637 2.49931 15.3017 2.62227 16.4366C2.74625 17.5809 3.0007 18.4762 3.55041 19.2328L4.35942 18.645C3.95421 18.0873 3.73121 17.3881 3.61646 16.3289C3.50069 15.2603 3.5 13.886 3.5 12H2.5ZM5.35497 19.6406C4.97294 19.363 4.63698 19.0271 4.35942 18.645L3.55041 19.2328C3.88964 19.6997 4.30026 20.1104 4.76718 20.4496L5.35497 19.6406ZM20.5 12C20.5 13.886 20.4993 15.2603 20.3835 16.3289C20.2688 17.3881 20.0458 18.0873 19.6406 18.645L20.4496 19.2328C20.9993 18.4762 21.2538 17.5809 21.3777 16.4366C21.5007 15.3017 21.5 13.8637 21.5 12H20.5ZM12 21.5C13.8637 21.5 15.3017 21.5007 16.4366 21.3777C17.5809 21.2538 18.4762 20.9993 19.2328 20.4496L18.645 19.6406C18.0873 20.0458 17.3881 20.2688 16.3289 20.3835C15.2603 20.4993 13.886 20.5 12 20.5V21.5ZM19.6406 18.645C19.363 19.0271 19.0271 19.363 18.645 19.6406L19.2328 20.4496C19.6997 20.1104 20.1104 19.6997 20.4496 19.2328L19.6406 18.645ZM12 3.5C13.886 3.5 15.2603 3.50069 16.3289 3.61646C17.3881 3.73121 18.0873 3.95421 18.645 4.35942L19.2328 3.55041C18.4762 3.0007 17.5809 2.74625 16.4366 2.62227C15.3017 2.49931 13.8637 2.5 12 2.5V3.5ZM21.5 12C21.5 10.1363 21.5007 8.69831 21.3777 7.5634C21.2538 6.41914 20.9993 5.52378 20.4496 4.76718L19.6406 5.35497C20.0458 5.91269 20.2688 6.61193 20.3835 7.67112C20.4993 8.73966 20.5 10.114 20.5 12H21.5ZM18.645 4.35942C19.0271 4.63698 19.363 4.97294 19.6406 5.35497L20.4496 4.76718C20.1104 4.30026 19.6997 3.88964 19.2328 3.55041L18.645 4.35942ZM12 2.5C10.1363 2.5 8.69831 2.49931 7.5634 2.62227C6.41914 2.74625 5.52378 3.0007 4.76718 3.55041L5.35497 4.35942C5.91269 3.95421 6.61193 3.73121 7.67112 3.61646C8.73966 3.50069 10.114 3.5 12 3.5V2.5ZM3.5 12C3.5 10.114 3.50069 8.73966 3.61646 7.67112C3.73121 6.61193 3.95421 5.91269 4.35942 5.35497L3.55041 4.76718C3.0007 5.52378 2.74625 6.41914 2.62227 7.5634C2.49931 8.69831 2.5 10.1363 2.5 12H3.5ZM4.76718 3.55041C4.30026 3.88964 3.88964 4.30026 3.55041 4.76718L4.35942 5.35497C4.63698 4.97294 4.97294 4.63698 5.35497 4.35942L4.76718 3.55041ZM17 13.5H14V14.5H17V13.5ZM14.5 17V14H13.5V17H14.5ZM14 13.5H10V14.5H14V13.5ZM10 13.5H7V14.5H10V13.5ZM10.5 17V14H9.5V17H10.5ZM10.5 14V10H9.5V14H10.5ZM10.5 10V7H9.5V10H10.5ZM10 9.5H7V10.5H10V9.5ZM17 9.5H14V10.5H17V9.5ZM14 9.5H10V10.5H14V9.5ZM14.5 14V10H13.5V14H14.5ZM14.5 10V7H13.5V10H14.5Z"/>
    </symbol>
    <symbol id="text-7" viewBox="0 0 24 24">
        <path stroke="transparent" d="M5.06107 20.0451L5.35497 19.6406L5.06107 20.0451ZM3.95491 18.9389L4.35942 18.645L3.95491 18.9389ZM20.0451 18.9389L19.6406 18.645L20.0451 18.9389ZM18.9389 20.0451L18.645 19.6406L18.9389 20.0451ZM18.9389 3.95491L18.645 4.35942L18.9389 3.95491ZM20.0451 5.06107L19.6406 5.35497L20.0451 5.06107ZM5.06107 3.95491L5.35497 4.35942L5.06107 3.95491ZM3.95491 5.06107L4.35942 5.35497L3.95491 5.06107ZM12 20.5C10.114 20.5 8.73966 20.4993 7.67112 20.3835C6.61193 20.2688 5.91269 20.0458 5.35497 19.6406L4.76718 20.4496C5.52378 20.9993 6.41914 21.2538 7.5634 21.3777C8.69831 21.5007 10.1363 21.5 12 21.5V20.5ZM2.5 12C2.5 13.8637 2.49931 15.3017 2.62227 16.4366C2.74625 17.5809 3.0007 18.4762 3.55041 19.2328L4.35942 18.645C3.95421 18.0873 3.73121 17.3881 3.61646 16.3289C3.50069 15.2603 3.5 13.886 3.5 12H2.5ZM5.35497 19.6406C4.97294 19.363 4.63698 19.0271 4.35942 18.645L3.55041 19.2328C3.88964 19.6997 4.30026 20.1104 4.76718 20.4496L5.35497 19.6406ZM20.5 12C20.5 13.886 20.4993 15.2603 20.3835 16.3289C20.2688 17.3881 20.0458 18.0873 19.6406 18.645L20.4496 19.2328C20.9993 18.4762 21.2538 17.5809 21.3777 16.4366C21.5007 15.3017 21.5 13.8637 21.5 12H20.5ZM12 21.5C13.8637 21.5 15.3017 21.5007 16.4366 21.3777C17.5809 21.2538 18.4762 20.9993 19.2328 20.4496L18.645 19.6406C18.0873 20.0458 17.3881 20.2688 16.3289 20.3835C15.2603 20.4993 13.886 20.5 12 20.5V21.5ZM19.6406 18.645C19.363 19.0271 19.0271 19.363 18.645 19.6406L19.2328 20.4496C19.6997 20.1104 20.1104 19.6997 20.4496 19.2328L19.6406 18.645ZM12 3.5C13.886 3.5 15.2603 3.50069 16.3289 3.61646C17.3881 3.73121 18.0873 3.95421 18.645 4.35942L19.2328 3.55041C18.4762 3.0007 17.5809 2.74625 16.4366 2.62227C15.3017 2.49931 13.8637 2.5 12 2.5V3.5ZM21.5 12C21.5 10.1363 21.5007 8.69831 21.3777 7.5634C21.2538 6.41914 20.9993 5.52378 20.4496 4.76718L19.6406 5.35497C20.0458 5.91269 20.2688 6.61193 20.3835 7.67112C20.4993 8.73966 20.5 10.114 20.5 12H21.5ZM18.645 4.35942C19.0271 4.63698 19.363 4.97294 19.6406 5.35497L20.4496 4.76718C20.1104 4.30026 19.6997 3.88964 19.2328 3.55041L18.645 4.35942ZM12 2.5C10.1363 2.5 8.69831 2.49931 7.5634 2.62227C6.41914 2.74625 5.52378 3.0007 4.76718 3.55041L5.35497 4.35942C5.91269 3.95421 6.61193 3.73121 7.67112 3.61646C8.73966 3.50069 10.114 3.5 12 3.5V2.5ZM3.5 12C3.5 10.114 3.50069 8.73966 3.61646 7.67112C3.73121 6.61193 3.95421 5.91269 4.35942 5.35497L3.55041 4.76718C3.0007 5.52378 2.74625 6.41914 2.62227 7.5634C2.49931 8.69831 2.5 10.1363 2.5 12H3.5ZM4.76718 3.55041C4.30026 3.88964 3.88964 4.30026 3.55041 4.76718L4.35942 5.35497C4.63698 4.97294 4.97294 4.63698 5.35497 4.35942L4.76718 3.55041Z"/>
        <g fill="transparent">
            <path d="M5 12H19" stroke-linecap="round"/>
            <path d="M5 14H11" stroke-linecap="round"/>
            <path d="M5 7C5 6.44772 5.44772 6 6 6H18C18.5523 6 19 6.44772 19 7V9C19 9.55228 18.5523 10 18 10H6C5.44772 10 5 9.55228 5 9V7Z"  stroke-linecap="round"/>
        </g>
    </symbol>
    <symbol id="document-align-left" viewBox="0 0 24 24">
        <path stroke="transparent" d="M19.2178 15.0616L19.1396 14.5677L19.2178 15.0616ZM15.0616 19.2178L14.5677 19.1396L15.0616 19.2178ZM5.06107 20.0451L5.35497 19.6406L5.06107 20.0451ZM3.95491 18.9389L4.35942 18.645L3.95491 18.9389ZM20.0451 18.9389L20.4496 19.2328L20.0451 18.9389ZM18.9389 20.0451L19.2328 20.4496L18.9389 20.0451ZM18.9389 3.95491L18.645 4.35942L18.9389 3.95491ZM20.0451 5.06107L19.6406 5.35497L20.0451 5.06107ZM5.06107 3.95491L5.35497 4.35942L5.06107 3.95491ZM3.95491 5.06107L4.35942 5.35497L3.95491 5.06107ZM20.9711 15L21.4708 15.0171L20.9711 15ZM15 20.9711L15.0171 21.4708L15 20.9711ZM8 15.5C7.72386 15.5 7.5 15.7239 7.5 16C7.5 16.2761 7.72386 16.5 8 16.5V15.5ZM11 16.5C11.2761 16.5 11.5 16.2761 11.5 16C11.5 15.7239 11.2761 15.5 11 15.5V16.5ZM8 11.5C7.72386 11.5 7.5 11.7239 7.5 12C7.5 12.2761 7.72386 12.5 8 12.5V11.5ZM16 12.5C16.2761 12.5 16.5 12.2761 16.5 12C16.5 11.7239 16.2761 11.5 16 11.5V12.5ZM8 7.5C7.72386 7.5 7.5 7.72386 7.5 8C7.5 8.27614 7.72386 8.5 8 8.5V7.5ZM11 8.5C11.2761 8.5 11.5 8.27614 11.5 8C11.5 7.72386 11.2761 7.5 11 7.5V8.5ZM19.1396 14.5677C16.7862 14.9405 14.9405 16.7862 14.5677 19.1396L15.5554 19.296C15.8604 17.3705 17.3705 15.8604 19.296 15.5554L19.1396 14.5677ZM12 20.5C10.114 20.5 8.73966 20.4993 7.67112 20.3835C6.61193 20.2688 5.91269 20.0458 5.35497 19.6406L4.76718 20.4496C5.52378 20.9993 6.41914 21.2538 7.5634 21.3777C8.69831 21.5007 10.1363 21.5 12 21.5V20.5ZM2.5 12C2.5 13.8637 2.49931 15.3017 2.62227 16.4366C2.74625 17.5809 3.0007 18.4762 3.55041 19.2328L4.35942 18.645C3.95421 18.0873 3.73121 17.3881 3.61646 16.3289C3.50069 15.2603 3.5 13.886 3.5 12H2.5ZM5.35497 19.6406C4.97294 19.363 4.63698 19.0271 4.35942 18.645L3.55041 19.2328C3.88964 19.6997 4.30026 20.1104 4.76718 20.4496L5.35497 19.6406ZM19.6406 18.645C19.363 19.0271 19.0271 19.363 18.645 19.6406L19.2328 20.4496C19.6997 20.1104 20.1104 19.6997 20.4496 19.2328L19.6406 18.645ZM12 3.5C13.886 3.5 15.2603 3.50069 16.3289 3.61646C17.3881 3.73121 18.0873 3.95421 18.645 4.35942L19.2328 3.55041C18.4762 3.0007 17.5809 2.74625 16.4366 2.62227C15.3017 2.49931 13.8637 2.5 12 2.5V3.5ZM21.5 12C21.5 10.1363 21.5007 8.69831 21.3777 7.5634C21.2538 6.41914 20.9993 5.52378 20.4496 4.76718L19.6406 5.35497C20.0458 5.91269 20.2688 6.61193 20.3835 7.67112C20.4993 8.73966 20.5 10.114 20.5 12H21.5ZM18.645 4.35942C19.0271 4.63698 19.363 4.97294 19.6406 5.35497L20.4496 4.76718C20.1104 4.30026 19.6997 3.88964 19.2328 3.55041L18.645 4.35942ZM12 2.5C10.1363 2.5 8.69831 2.49931 7.5634 2.62227C6.41914 2.74625 5.52378 3.0007 4.76718 3.55041L5.35497 4.35942C5.91269 3.95421 6.61193 3.73121 7.67112 3.61646C8.73966 3.50069 10.114 3.5 12 3.5V2.5ZM3.5 12C3.5 10.114 3.50069 8.73966 3.61646 7.67112C3.73121 6.61193 3.95421 5.91269 4.35942 5.35497L3.55041 4.76718C3.0007 5.52378 2.74625 6.41914 2.62227 7.5634C2.49931 8.69831 2.5 10.1363 2.5 12H3.5ZM4.76718 3.55041C4.30026 3.88964 3.88964 4.30026 3.55041 4.76718L4.35942 5.35497C4.63698 4.97294 4.97294 4.63698 5.35497 4.35942L4.76718 3.55041ZM20.5 12C20.5 13.1717 20.4999 14.1489 20.4714 14.9829L21.4708 15.0171C21.5001 14.1624 21.5 13.1662 21.5 12H20.5ZM20.4714 14.9829C20.4077 16.8409 20.2014 17.8731 19.6406 18.645L20.4496 19.2328C21.2032 18.1955 21.4067 16.8875 21.4708 15.0171L20.4714 14.9829ZM20.9711 14.5C20.0796 14.5 19.5727 14.4991 19.1396 14.5677L19.296 15.5554C19.6322 15.5022 20.043 15.5 20.9711 15.5L20.9711 14.5ZM12 21.5C13.1662 21.5 14.1624 21.5001 15.0171 21.4708L14.9829 20.4714C14.1489 20.4999 13.1717 20.5 12 20.5V21.5ZM15.0171 21.4708C16.8875 21.4067 18.1955 21.2032 19.2328 20.4496L18.645 19.6406C17.8731 20.2014 16.8409 20.4077 14.9829 20.4714L15.0171 21.4708ZM15.5 20.9711C15.5 20.043 15.5022 19.6322 15.5554 19.296L14.5677 19.1396C14.4991 19.5727 14.5 20.0796 14.5 20.9711L15.5 20.9711ZM8 16.5H11V15.5H8V16.5ZM8 12.5H16V11.5H8V12.5ZM8 8.5H11V7.5H8V8.5Z" />
    </symbol>
    <symbol id="add" viewBox="0 0 16 16">
        <path fill="transparent" d="M2.28516 7.99993H13.7137M7.99944 13.7142V7.99993L7.99944 2.28564" stroke-width="0.666667" stroke-linecap="round"/>
    </symbol>
    <symbol id="caret" viewBox="0 0 12 12">
        <path stroke="transparent" d="M10.9753 4.03212C10.9114 3.84997 10.7394 3.72803 10.5464 3.72803H1.45554C1.26248 3.72803 1.09051 3.84997 1.02663 4.03212C0.96272 4.21427 1.02087 4.41693 1.1716 4.53751L5.71715 8.17385C5.80015 8.24024 5.90063 8.27345 6.00108 8.27345C6.10157 8.27345 6.20202 8.24024 6.28505 8.17385L10.8304 4.53751C10.9811 4.4169 11.0392 4.21427 10.9753 4.03212Z"/>
    </symbol>
</svg>


